<?xml version="1.0" encoding="UTF-8" standalone="no"?> <!-- Created with Vectornator for iOS (http://vectornator.io/) --><!DOCTYPE svg PUBLIC "-//W3C//DTD SVG 1.1//EN" "http://www.w3.org/Graphics/SVG/1.1/DTD/svg11.dtd">
<svg height="100%" style="fill-rule:evenodd;clip-rule:evenodd;stroke-linecap:round;stroke-linejoin:round;" xmlns:xlink="http://www.w3.org/1999/xlink" xmlns="http://www.w3.org/2000/svg" xml:space="preserve" width="100%" xmlns:vectornator="http://vectornator.io" version="1.1" viewBox="0 0 160.326 160.326">
<metadata>
<vectornator:setting key="DynamicGuides" value="1"/>
<vectornator:setting key="Units" value="Points"/>
<vectornator:setting key="GuidesVisible" value="1"/>
<vectornator:setting key="RulersVisible" value="1"/>
<vectornator:setting key="SnapToGuides" value="1"/>
<vectornator:setting key="GridSpacing" value="36"/>
</metadata>
<defs>
<linearGradient y1="80.1631" id="LinearGradient" x1="6.43521" y2="80.1631" x2="153.891" gradientUnits="userSpaceOnUse" gradientTransform="matrix(1 0 0 1 -0.52544 -1.52588e-05)">
<stop stop-color="#08d5f7" offset="0"/>
<stop stop-color="#07d0f4" offset="0.26541"/>
<stop stop-color="#05c2eb" offset="0.56847"/>
<stop stop-color="#02acdc" offset="0.88889"/>
<stop stop-color="#00a2d6" offset="1"/>
</linearGradient>
<radialGradient cx="589.259" r="0" id="RadialGradient" gradientUnits="userSpaceOnUse" gradientTransform="matrix(1 0 0 1 -464.238 -94)" cy="216.167">
<stop stop-color="#fef43d" offset="0"/>
<stop stop-color="#fee937" offset="0.25424"/>
<stop stop-color="#ffcc26" offset="0.69719"/>
<stop stop-color="#ffb518" offset="1"/>
</radialGradient>
<radialGradient cx="568.097" r="66.1989" id="RadialGradient_2" gradientUnits="userSpaceOnUse" gradientTransform="matrix(1 0 0 1 -464.238 -94)" cy="155.467">
<stop stop-color="#fef43d" offset="0"/>
<stop stop-color="#fee937" offset="0.25424"/>
<stop stop-color="#ffcc26" offset="0.69719"/>
<stop stop-color="#ffb518" offset="1"/>
</radialGradient>
<radialGradient cx="569.066" r="56.8297" id="RadialGradient_3" gradientUnits="userSpaceOnUse" gradientTransform="matrix(1 0 0 1 -464.238 -94)" cy="127.949">
<stop stop-color="#fef43d" offset="0"/>
<stop stop-color="#fee937" offset="0.25424"/>
<stop stop-color="#ffcc26" offset="0.69719"/>
<stop stop-color="#ffb518" offset="1"/>
</radialGradient>
<radialGradient cx="514.709" r="66.1989" id="RadialGradient_4" gradientUnits="userSpaceOnUse" gradientTransform="matrix(1 0 0 1 -464.238 -94)" cy="155.948">
<stop stop-color="#fef43d" offset="0"/>
<stop stop-color="#fee937" offset="0.25424"/>
<stop stop-color="#ffcc26" offset="0.69719"/>
<stop stop-color="#ffb518" offset="1"/>
</radialGradient>
<radialGradient cx="515.678" r="56.8297" id="RadialGradient_5" gradientUnits="userSpaceOnUse" gradientTransform="matrix(1 0 0 1 -464.238 -94)" cy="128.43">
<stop stop-color="#fef43d" offset="0"/>
<stop stop-color="#fee937" offset="0.25424"/>
<stop stop-color="#ffcc26" offset="0.69719"/>
<stop stop-color="#ffb518" offset="1"/>
</radialGradient>
<radialGradient cx="589.499" r="0" id="RadialGradient_6" gradientUnits="userSpaceOnUse" gradientTransform="matrix(1 0 0 1 -464.238 -94)" cy="216.167">
<stop stop-color="#fef43d" offset="0"/>
<stop stop-color="#fee937" offset="0.25424"/>
<stop stop-color="#ffcc26" offset="0.69719"/>
<stop stop-color="#ffb518" offset="1"/>
</radialGradient>
<radialGradient cx="568.338" r="66.1989" id="RadialGradient_7" gradientUnits="userSpaceOnUse" gradientTransform="matrix(1 0 0 1 -464.238 -94)" cy="155.467">
<stop stop-color="#fef43d" offset="0"/>
<stop stop-color="#fee937" offset="0.25424"/>
<stop stop-color="#ffcc26" offset="0.69719"/>
<stop stop-color="#ffb518" offset="1"/>
</radialGradient>
<radialGradient cx="569.306" r="56.8297" id="RadialGradient_8" gradientUnits="userSpaceOnUse" gradientTransform="matrix(1 0 0 1 -464.238 -94)" cy="127.949">
<stop stop-color="#fef43d" offset="0"/>
<stop stop-color="#fee937" offset="0.25424"/>
<stop stop-color="#ffcc26" offset="0.69719"/>
<stop stop-color="#ffb518" offset="1"/>
</radialGradient>
<radialGradient cx="536.111" r="0" id="RadialGradient_9" gradientUnits="userSpaceOnUse" gradientTransform="matrix(1 0 0 1 -464.238 -94)" cy="216.648">
<stop stop-color="#fef43d" offset="0"/>
<stop stop-color="#fee937" offset="0.25424"/>
<stop stop-color="#ffcc26" offset="0.69719"/>
<stop stop-color="#ffb518" offset="1"/>
</radialGradient>
<radialGradient cx="514.95" r="66.1989" id="RadialGradient_10" gradientUnits="userSpaceOnUse" gradientTransform="matrix(1 0 0 1 -464.238 -94)" cy="155.948">
<stop stop-color="#fef43d" offset="0"/>
<stop stop-color="#fee937" offset="0.25424"/>
<stop stop-color="#ffcc26" offset="0.69719"/>
<stop stop-color="#ffb518" offset="1"/>
</radialGradient>
<radialGradient cx="515.918" r="56.8297" id="RadialGradient_11" gradientUnits="userSpaceOnUse" gradientTransform="matrix(1 0 0 1 -464.238 -94)" cy="128.43">
<stop stop-color="#fef43d" offset="0"/>
<stop stop-color="#fee937" offset="0.25424"/>
<stop stop-color="#ffcc26" offset="0.69719"/>
<stop stop-color="#ffb518" offset="1"/>
</radialGradient>
</defs>
<g id="Untitled" vectornator:layerName="Untitled">
<g opacity="1">
<g opacity="1">
<path d="M-0.52544+80.1631C-0.52544+35.8902+35.3648-1.52588e-05+79.6377-1.52588e-05C123.911-1.52588e-05+159.801+35.8902+159.801+80.1631C159.801+124.436+123.911+160.326+79.6377+160.326C35.3648+160.326-0.52544+124.436-0.52544+80.1631Z" fill-rule="evenodd" fill="#2d2d2d" opacity="0.3"/>
<path d="M-0.52544+80.1631C-0.52544+35.8902+35.3648-1.52588e-05+79.6377-1.52588e-05C123.911-1.52588e-05+159.801+35.8902+159.801+80.1631C159.801+124.436+123.911+160.326+79.6377+160.326C35.3648+160.326-0.52544+124.436-0.52544+80.1631Z" fill-rule="evenodd" fill="#ffffff" opacity="1"/>
<path d="M5.9098+80.1631C5.9098+39.4443+38.9189+6.4352+79.6377+6.4352C120.357+6.4352+153.366+39.4443+153.366+80.1631C153.366+120.882+120.357+153.891+79.6377+153.891C38.9189+153.891+5.9098+120.882+5.9098+80.1631Z" fill-rule="evenodd" fill="url(#LinearGradient)" opacity="1"/>
<path d="M138.057+71.365L139.316+75.372L143.323+76.631L139.316+77.89L138.057+81.897L136.798+77.89L132.792+76.631L136.798+75.372L138.057+71.365Z" fill-rule="evenodd" fill="#ffffff" opacity="1"/>
<path d="M16.3016+67.432L17.5606+71.439L21.5676+72.698L17.5606+73.957L16.3016+77.964L15.0426+73.957L11.0366+72.698L15.0426+71.439L16.3016+67.432Z" fill-rule="evenodd" fill="#ffffff" opacity="1"/>
<path d="M18.5166+57.872L19.3396+60.492L21.9586+61.315L19.3396+62.138L18.5166+64.757L17.6936+62.138L15.0746+61.315L17.6936+60.492L18.5166+57.872Z" fill-rule="evenodd" fill="#ffffff" opacity="1"/>
</g>
<g opacity="1">
<g opacity="1">
<path stroke="#ffffff" fill-rule="evenodd" stroke-width="3.07822" d="" fill="url(#RadialGradient)" stroke-linecap="butt" opacity="1" stroke-linejoin="miter"/>
<path stroke="#ffffff" fill-rule="evenodd" stroke-width="3.07822" d="M135.975+112.849C135.943+112.852+135.911+112.854+135.878+112.854C135.435+112.499+134.806+112.499+134.363+112.854C133.715+112.832+133.202+112.3+133.202+111.652C133.202+111.004+133.715+110.472+134.363+110.449C134.64+110.442+134.909+110.536+135.121+110.714C135.303+110.56+135.53+110.469+135.768+110.455C135.254+106.953+134.393+103.511+133.197+100.179C125.682+78.254+104.827+81.2072+104.827+81.2072C104.827+81.2072+83.972+78.254+76.4568+100.179C75.1118+103.833+74.2476+107.646+73.886+111.523C73.6671+113.606+73.9221+115.711+74.632+117.681C74.7665+117.635+74.9079+117.612+75.0502+117.613C75.5303+117.63+75.9558+117.927+76.137+118.372C76.3182+118.817+76.2215+119.327+75.8899+119.675C76.508+120.329+77.2832+120.814+78.1418+121.084C78.3236+120.675+78.7371+120.418+79.1845+120.437C79.4989+120.568+79.8525+120.568+80.1669+120.437C80.7066+120.416+81.1821+120.789+81.2904+121.318C81.6481+121.275+82.0033+121.213+82.3546+121.134C84.785+120.584+83.7238+116.877+84.4299+120.114C84.6445+121.097+84.2021+112.549+85.0994+121.445L125.261+121.445C125.335+121.204+125.401+120.974+125.462+120.752C127.344+121.762+129.512+122.107+131.615+121.731C131.25+121.418+131.102+120.921+131.235+120.459C131.368+119.997+131.759+119.655+132.234+119.584C132.325+119.478+132.436+119.392+132.56+119.33C132.777+118.928+133.209+118.689+133.664+118.721C134.12+118.752+134.515+119.048+134.674+119.476C135.757+117.446+136.21+115.139+135.975+112.849Z" fill="url(#RadialGradient_2)" stroke-linecap="butt" opacity="1" stroke-linejoin="miter"/>
<path stroke="#ffffff" fill-rule="evenodd" stroke-width="3.07822" d="M86.7925+90.4346C83.8117+97.0204+81.9964+104.074+81.4276+111.28C81.301+112.987+80.0355+114.392+78.3511+114.695C76.6668+114.999+74.9905+114.124+74.2761+112.569C74.1189+112.23+73.9861+111.88+73.8785+111.523C73.6376+113.614+74.0038+115.73+74.9335+117.619C74.9716+117.615+75.0101+117.613+75.0503+117.613C75.4362+117.614+75.7971+117.804+76.0171+118.121C76.2371+118.438+76.2884+118.842+76.1545+119.204C76.8324+119.839+77.6342+120.327+78.5097+120.637C78.7084+120.502+78.9443+120.432+79.1846+120.437C79.4993+120.567+79.8523+120.567+80.167+120.437C80.6383+120.417+81.069+120.702+81.2348+121.144C82.9155+121.202+84.1397+120.815+83.851+120.693L85.5924+101.232C83.8777+108.519+86.7925+90.4346+86.7925+90.4346Z" fill="#8d6800" stroke-linecap="butt" opacity="0.35" stroke-linejoin="miter"/>
<path stroke="#ffffff" fill-rule="evenodd" stroke-width="3.07822" d="M135.123+110.715C135.277+110.582+135.466+110.497+135.668+110.467C135.224+106.957+134.392+103.507+133.189+100.18C125.675+78.2538+104.819+81.208+104.819+81.208C104.819+81.208+83.9637+78.2538+76.4491+100.18C73.5115+108.752+73.2668+114.39+74.6267+117.684C74.7627+117.636+74.906+117.612+75.0502+117.613C75.0929+117.613+75.134+117.615+75.1743+117.619C74.2747+114.327+74.7228+109.145+77.2899+101.654C84.5818+80.3777+104.819+83.2443+104.819+83.2443C104.819+83.2443+125.057+80.3777+132.349+101.654C133.369+104.518+134.124+107.47+134.606+110.472C134.797+110.505+134.975+110.589+135.123+110.715Z" fill="#ffffff" stroke-linecap="butt" opacity="0.7" stroke-linejoin="miter"/>
<path stroke="#ffffff" fill-rule="evenodd" stroke-width="3.07822" d="M135.122+112.589C135.04+112.66+134.948+112.718+134.848+112.76C135.059+114.809+134.786+116.88+134.048+118.804C134.148+118.843+134.242+118.898+134.325+118.966C135.424+117.124+135.94+114.992+135.806+112.851C135.555+112.843+135.314+112.751+135.122+112.589Z" fill="#ffffff" stroke-linecap="butt" opacity="0.7" stroke-linejoin="miter"/>
<path stroke="#ffffff" stroke-width="3.07822" d="M81.6961+121.358C87.1564+121.07+92.6288+121.099+98.086+121.445C106.743+121.686+115.401+121.205+124.058+121.686C124.829+121.634+125.594+121.513+126.343+121.325" fill="none" stroke-linecap="round" opacity="1" stroke-linejoin="round"/>
<path stroke="#ffffff" stroke-width="3.07822" d="M75.9989+119.801C76.4052+120.216+76.8759+120.563+77.3927+120.828" fill="none" stroke-linecap="round" opacity="1" stroke-linejoin="round"/>
<path stroke="#ffffff" stroke-width="3.07822" d="M134.283+103.463C132.793+97.6443+129.77+92.3319+125.528+88.0796C120.975+83.8698+115.059+81.4401+108.861+81.2349C102.504+80.8482+95.715+80.9827+89.9304+83.9471C84.8912+86.6289+80.8142+90.8157+78.2672+95.9242C76.7965+98.8747+75.6674+101.983+74.9019+105.19C74.0828+108.437+73.3447+111.868+73.8701+115.225C73.9918+116.043+74.2173+116.841+74.5413+117.602" fill="none" stroke-linecap="round" opacity="1" stroke-linejoin="round"/>
<path stroke="#ffffff" stroke-width="3.07822" d="M135.812+110.356C135.535+108.489+135.147+106.639+134.649+104.818" fill="none" stroke-linecap="round" opacity="1" stroke-linejoin="round"/>
<path stroke="#ffffff" stroke-width="3.07822" d="M134.536+118.661C135.534+116.959+136.038+115.012+135.992+113.039" fill="none" stroke-linecap="round" opacity="1" stroke-linejoin="round"/>
<path stroke="#ffffff" stroke-width="3.07822" d="M125.446+120.571C127.153+121.293+129.029+121.521+130.86+121.231" fill="none" stroke-linecap="round" opacity="1" stroke-linejoin="round"/>
</g>
<g opacity="1">
<path stroke="#ffffff" fill-rule="evenodd" stroke-width="3.07822" d="M83.9637+118.124L83.9637+120.224" fill="#9339fb" stroke-linecap="butt" opacity="0.35" stroke-linejoin="miter"/>
<path stroke="#ffffff" stroke-width="3.07822" d="" fill="none" stroke-linecap="round" opacity="1" stroke-linejoin="round"/>
<path stroke="#ffffff" stroke-width="3.07822" d="" fill="none" stroke-linecap="round" opacity="1" stroke-linejoin="round"/>
</g>
<g opacity="1">
<path stroke="#ffffff" stroke-width="3.07822" d="M124.046+97.4943C124.046+97.4943+125.724+102.536+125.381+121.565" fill="none" stroke-linecap="round" opacity="1" stroke-linejoin="round"/>
<path stroke="#ffffff" stroke-width="3.07822" d="" fill="none" stroke-linecap="round" opacity="1" stroke-linejoin="round"/>
<path d="M122.142+97.7694C122.137+96.7087+122.175+95.6044+122.238+94.5072C122.273+93.3843+122.376+92.2646+122.546+91.1541C122.572+90.9714+122.742+90.8449+122.925+90.8716C123.013+90.8858+123.093+90.9338+123.147+91.0055C123.812+91.9494+124.363+92.9683+124.79+94.0412C125.245+95.0742+125.633+96.1358+125.95+97.2192C126.249+98.2496+125.655+99.3268+124.625+99.6251C123.594+99.9235+122.517+99.3299+122.219+98.2995C122.17+98.1269+122.144+97.9487+122.142+97.7694Z" fill-rule="evenodd" fill="#ffffff" opacity="1"/>
</g>
<path stroke="#ffffff" fill-rule="evenodd" stroke-width="3.07822" d="M104.819+86.1058C90.3178+86.1053+78.2564+74.9503+77.1255+60.4929C77.0704+61.2071+77.0426+61.9286+77.0421+62.6572C77.0527+77.9907+89.4859+90.4153+104.819+90.4153C120.153+90.4153+132.586+77.9907+132.597+62.6572C132.597+61.9288+132.569+61.2074+132.513+60.4929C131.382+74.9502+119.321+86.1053+104.819+86.1058Z" fill="#9339fb" stroke-linecap="butt" opacity="0.35" stroke-linejoin="miter"/>
<path stroke="#ffffff" stroke-width="3.07822" d="M92.0138+76.1836C93.8272+78.5389+96.535+80.0378+99.494+80.324" fill="none" stroke-linecap="round" opacity="1" stroke-linejoin="round"/>
<g opacity="1">
<path d="" opacity="1" fill="none"/>
<path d="" opacity="1" fill="none"/>
<path d="" opacity="1" fill="none"/>
<path d="" opacity="1" fill="none"/>
</g>
<path stroke="#ffffff" fill-rule="evenodd" stroke-width="3.07822" d="M135.804+112.851C135.682+112.845+135.562+112.822+135.447+112.781C135.421+112.843+135.393+112.907+135.363+112.973C134.648+114.529+132.972+115.403+131.288+115.1C129.603+114.796+128.338+113.392+128.211+111.685C127.642+104.478+125.827+97.4251+122.846+90.8393C122.846+90.8393+125.761+108.923+124.046+101.637L126.231+121.248C127.884+122.195+129.843+122.451+131.684+121.962C131.701+121.913+131.722+121.866+131.745+121.82C131.32+121.541+131.111+121.029+131.22+120.533C131.329+120.037+131.733+119.659+132.235+119.584C132.326+119.478+132.436+119.392+132.56+119.33C132.771+118.938+133.188+118.7+133.634+118.719C134.079+118.738+134.474+119.01+134.651+119.419C135.602+117.368+135.999+115.103+135.804+112.851Z" fill="#8d6800" stroke-linecap="butt" opacity="0.35" stroke-linejoin="miter"/>
<g opacity="1">
<path stroke="#ffffff" fill-rule="evenodd" stroke-width="3.07822" d="M132.603+62.656C132.603+63.4688+132.567+64.2745+132.497+65.0681C131.248+79.4199+119.233+90.4345+104.827+90.4345C90.421+90.4345+78.4061+79.4199+77.1568+65.0681C77.0871+64.2745+77.051+63.4688+77.051+62.656C77.038+47.3065+89.4776+34.8564+104.827+34.8564C120.177+34.8564+132.616+47.3065+132.603+62.656Z" fill="url(#RadialGradient_3)" stroke-linecap="butt" opacity="1" stroke-linejoin="miter"/>
<path stroke="#ffffff" fill-rule="evenodd" stroke-width="3.07822" d="M104.827+86.1058C90.3255+86.1053+78.2641+74.9502+77.1332+60.4928C77.0782+61.2071+77.0504+61.9286+77.0498+62.6572C77.0498+77.9982+89.4861+90.4345+104.827+90.4345C120.168+90.4345+132.604+77.9982+132.604+62.6572C132.604+61.9288+132.577+61.2074+132.521+60.4928C131.39+74.9502+119.329+86.1053+104.827+86.1058Z" fill="#8d6800" stroke-linecap="butt" opacity="0.35" stroke-linejoin="miter"/>
<path stroke="#ffffff" fill-rule="evenodd" stroke-width="3.07822" d="M132.216+58.0172C129.813+43.7739+116.893+33.7501+102.5+34.9605C88.1058+36.1709+77.0421+48.2115+77.0511+62.6561C77.0511+63.469+77.0872+64.2746+77.1569+65.0682C77.6509+70.8374+79.9437+76.3059+83.7119+80.7023C80.4765+76.5993+78.515+71.6378+78.07+66.4316C78.0026+65.6642+77.9677+64.8851+77.9677+64.0991C77.961+54.5826+82.995+45.7745+91.1979+40.9499C91.657+40.6796+92.2175+40.6443+92.707+40.8549C96.246+41.6276+99.934+40.5477+102.498+37.9885C102.796+37.55+103.284+37.2793+103.814+37.259C104.15+37.2462+104.488+37.2397+104.827+37.2396C111.952+37.2347+118.787+40.063+123.825+45.1012C128.863+50.1394+131.692+56.974+131.687+64.0991C131.687+64.8851+131.652+65.6642+131.584+66.4316C131.139+71.6378+129.178+76.5993+125.943+80.7023C129.711+76.3059+132.003+70.8374+132.498+65.0682C132.567+64.2746+132.603+63.469+132.603+62.6562C132.604+61.1017+132.475+59.55+132.216+58.0172Z" fill="#ffffff" stroke-linecap="butt" opacity="0.7" stroke-linejoin="miter"/>
<path stroke="#ffffff" stroke-width="3.07822" d="M115.133+75.9431C113.257+78.2237+110.582+79.7041+107.653+80.0835" fill="none" stroke-linecap="round" opacity="1" stroke-linejoin="round"/>
<g opacity="1">
<path stroke="#ffffff" stroke-width="3.07822" d="M109.51+42.3295C108.462+42.0891+107.396+41.9303+106.323+41.8545" fill="none" stroke-linecap="round" opacity="0.5" stroke-linejoin="round"/>
<path stroke="#ffffff" stroke-width="3.07822" d="M124.708+56.3372C123.159+51.4821+119.89+47.3598+115.515+44.745" fill="none" stroke-linecap="round" opacity="0.5" stroke-linejoin="round"/>
</g>
<path stroke="#ffffff" stroke-width="3.07822" d="M77.0498+62.6572C77.0498+47.3162+89.4861+34.8799+104.827+34.8799C120.168+34.8799+132.604+47.3162+132.604+62.6572C132.604+77.9982+120.168+90.4345+104.827+90.4345C89.4861+90.4345+77.0498+77.9982+77.0498+62.6572Z" fill="none" stroke-linecap="butt" opacity="1" stroke-linejoin="miter"/>
</g>
<path d="M83.6882+96.5741C84.0058+95.4907+84.3934+94.4291+84.8487+93.396C85.2754+92.3231+85.8269+91.3042+86.492+90.3603C86.6007+90.2112+86.8098+90.1784+86.959+90.2872C87.0306+90.3409+87.0786+90.4204+87.0928+90.5089C87.2626+91.6194+87.3652+92.7392+87.4002+93.862C87.4637+94.9593+87.5019+96.0635+87.4964+97.1243C87.4887+98.1955+86.6152+99.0583+85.544+99.0527C84.4727+99.0471+83.6082+98.1754+83.6116+97.1041C83.6138+96.9248+83.6396+96.7466+83.6882+96.5741Z" fill-rule="evenodd" fill="#ffffff" opacity="1"/>
<g opacity="1">
<path stroke="#ffffff" stroke-width="3.07822" d="M85.6185+97.4134C85.6185+97.4134+83.9149+102.055+84.2577+121.085" fill="none" stroke-linecap="round" opacity="1" stroke-linejoin="round"/>
<g opacity="1">
<path stroke="#ffffff" fill-rule="evenodd" stroke-width="3.07822" d="M79.8092+100.66C72.294+78.735+51.4391+81.6882+51.4391+81.6882C51.4391+81.6882+30.5842+78.735+23.069+100.66C21.908+103.884+21.0896+107.221+20.6273+110.616C20.6483+110.615+20.6686+110.613+20.6903+110.613C21.3381+110.636+21.8517+111.167+21.8517+111.816C21.8517+112.464+21.3381+112.996+20.6903+113.018C20.6121+113.018+20.5342+113.011+20.4573+112.997C20.3869+116.304+21.1157+118.602+22.3819+120.028C22.597+119.732+22.945+119.564+23.3101+119.578C23.7406+119.587+24.1336+119.825+24.3413+120.202C24.5489+120.579+24.5396+121.038+24.3169+121.407C25.8084+121.954+27.4326+122.027+28.9669+121.614C31.3973+121.065+30.3361+117.358+31.0422+120.595C31.2568+121.578+30.8144+113.03+31.7117+121.926L71.5253+121.926C71.4355+121.38+71.7346+120.844+72.2468+120.633C72.4781+120.345+72.8313+120.181+73.2008+120.192C73.5703+120.203+73.9133+120.386+74.1273+120.688C74.4331+120.701+74.719+120.843+74.9143+121.079C75.4885+121.214+75.8693+121.759+75.7988+122.345C76.0565+122.374+76.3093+122.39+76.5574+122.394C76.5014+122.057+76.5977+121.712+76.8204+121.453C77.0431+121.194+77.3693+121.047+77.711+121.051C77.8525+121.051+77.9929+121.074+78.1265+121.121C78.2989+120.692+78.7228+120.418+79.1847+120.437C79.499+120.568+79.8527+120.568+80.1671+120.437C80.392+120.433+80.6135+120.493+80.8048+120.612C83.2074+117.794+83.5195+111.487+79.8092+100.66ZM75.0503+120.018C74.4024+119.995+73.8889+119.463+73.8889+118.815C73.8889+118.167+74.4024+117.635+75.0503+117.613C75.6981+117.635+76.2118+118.167+76.2118+118.815C76.2118+119.464+75.6981+119.995+75.0503+120.018Z" fill="url(#RadialGradient_4)" stroke-linecap="butt" opacity="1" stroke-linejoin="miter"/>
<path stroke="#ffffff" fill-rule="evenodd" stroke-width="3.07822" d="" fill="#9339fb" stroke-linecap="butt" opacity="0.35" stroke-linejoin="miter"/>
<path stroke="#ffffff" fill-rule="evenodd" stroke-width="3.07822" d="M33.4047+90.9156C30.4238+97.5014+28.6086+104.555+28.0397+111.761C27.9131+113.468+26.6476+114.873+24.9632+115.176C23.2789+115.48+21.6026+114.605+20.8882+113.05L20.8687+113.005C20.8096+113.013+20.7499+113.018+20.6902+113.018C20.6117+113.018+20.5334+113.011+20.4562+112.997C20.426+116.315+21.4098+118.406+22.7756+119.695C22.9424+119.615+23.1252+119.575+23.31+119.578C23.639+119.571+23.9547+119.707+24.1766+119.95C24.3985+120.193+24.5049+120.52+24.4688+120.847C27.4517+122.264+30.9295+121.372+30.4632+121.174L32.2045+101.713C30.4899+109+33.4047+90.9156+33.4047+90.9156Z" fill="#8d6800" stroke-linecap="butt" opacity="0.35" stroke-linejoin="miter"/>
<path stroke="#ffffff" fill-rule="evenodd" stroke-width="3.07822" d="M79.8016+100.661C72.2871+78.7348+51.4315+81.6889+51.4315+81.6889C51.4315+81.6889+30.5759+78.7348+23.0614+100.661C21.9009+103.885+21.0823+107.222+20.6191+110.617C20.6428+110.615+20.6658+110.613+20.6903+110.613C21.0602+110.598+21.4124+110.771+21.627+111.073C22.1056+108.03+22.8673+105.037+23.9022+102.135C31.194+80.8587+51.4315+83.7253+51.4315+83.7253C51.4315+83.7253+71.669+80.8587+78.9609+102.135C82.2536+111.743+82.0614+117.555+80.008+120.447C80.0296+120.445+80.052+120.443+80.0744+120.442C82.903+117.878+83.5858+111.703+79.8016+100.661Z" fill="#ffffff" stroke-linecap="butt" opacity="0.7" stroke-linejoin="miter"/>
<path stroke="#ffffff" fill-rule="evenodd" stroke-width="3.07822" d="M21.436+112.764C21.2259+112.935+20.9613+113.025+20.6903+113.018C20.6095+113.018+20.5288+113.01+20.4494+112.996C20.3794+116.306+21.1107+118.605+22.3798+120.03C22.4164+119.979+22.4572+119.931+22.502+119.888C21.6+118.278+21.1794+115.938+21.436+112.764Z" fill="#ffffff" stroke-linecap="butt" opacity="0.7" stroke-linejoin="miter"/>
<path stroke="#ffffff" stroke-width="3.07822" d="M24.6399+121.58C25.844+121.936+27.0896+122.134+28.3449+122.167C42.774+120.724+56.9627+122.888+71.1409+121.968" fill="none" stroke-linecap="round" opacity="1" stroke-linejoin="round"/>
<path stroke="#ffffff" stroke-width="3.07822" d="M20.305+113.153C20.2443+115.469+20.8733+117.751+22.1121+119.709" fill="none" stroke-linecap="round" opacity="1" stroke-linejoin="round"/>
<path stroke="#ffffff" stroke-width="3.07822" d="M80.1356+120.334C83.4161+117.838+82.9351+113.269+82.4542+109.661C82.0436+103.901+80.1371+98.3471+76.923+93.5489C73.5562+88.9797+69.9489+85.1319+64.8987+82.9676C55.7602+79.1198+45.6598+80.0817+36.7619+83.9296C32.9141+85.613+30.0283+88.4988+27.3829+91.8656C26.257+93.4127+25.2135+95.0182+24.2566+96.6753C23.0542+99.3206+22.3327+101.966+21.3708+104.611C20.6493+106.535+20.8898+108.459+20.439+110.493" fill="none" stroke-linecap="round" opacity="1" stroke-linejoin="round"/>
</g>
<path d="M32.4998+118.605C32.3315+118.977+32.1211+119.33+31.8728+119.655C31.6022+120.055+31.2688+120.41+30.8854+120.705C30.7031+120.845+30.4487+120.845+30.2664+120.705C29.883+120.41+29.5496+120.055+29.2791+119.655C29.0307+119.33+28.8204+118.977+28.6521+118.605C28.2765+117.728+28.5408+116.708+29.2951+116.125C30.0493+115.541+31.1027+115.541+31.8569+116.125C32.6111+116.708+32.8755+117.728+32.4998+118.605Z" fill-rule="evenodd" fill="#ffffff" opacity="1"/>
<path stroke="#ffffff" stroke-width="3.07822" d="" fill="none" stroke-linecap="round" opacity="1" stroke-linejoin="round"/>
<path stroke="#ffffff" stroke-width="3.07822" d="" fill="none" stroke-linecap="round" opacity="1" stroke-linejoin="round"/>
<g opacity="1">
<path stroke="#ffffff" stroke-width="3.07822" d="M70.6585+97.9753C72.1133+105.333+71.8728+112.788+72.02+120.248" fill="none" stroke-linecap="round" opacity="1" stroke-linejoin="round"/>
<path stroke="#ffffff" stroke-width="3.07822" d="" fill="none" stroke-linecap="round" opacity="1" stroke-linejoin="round"/>
<path d="M68.7543+98.2504C68.7488+97.1897+68.7871+96.0854+68.8506+94.9882C68.8855+93.8653+68.9881+92.7456+69.158+91.6351C69.1846+91.4524+69.3544+91.3259+69.537+91.3526C69.6255+91.3668+69.7051+91.4148+69.7588+91.4864C70.4239+92.4303+70.9754+93.4492+71.4021+94.5221C71.8574+95.5552+72.245+96.6168+72.5626+97.7001C72.8609+98.7306+72.2674+99.8078+71.2369+100.106C70.2065+100.404+69.1293+99.8109+68.8309+98.7804C68.7823+98.6079+68.7565+98.4297+68.7543+98.2504Z" fill-rule="evenodd" fill="#ffffff" opacity="1"/>
</g>
<path stroke="#ffffff" fill-rule="evenodd" stroke-width="3.07822" d="M51.4315+86.5867C36.93+86.5863+24.8686+75.4312+23.7376+60.9738C23.6826+61.6881+23.6548+62.4095+23.6542+63.1382C23.6542+78.4792+36.0906+90.9155+51.4315+90.9155C66.7725+90.9155+79.2088+78.4792+79.2088+63.1382C79.2088+62.4098+79.181+61.6884+79.1254+60.9738C77.9945+75.4312+65.9331+86.5863+51.4315+86.5867Z" fill="#9339fb" stroke-linecap="butt" opacity="0.35" stroke-linejoin="miter"/>
<path stroke="#ffffff" stroke-width="3.07822" d="M38.626+76.6646C40.4393+79.0198+43.1473+80.5187+46.1059+80.805" fill="none" stroke-linecap="round" opacity="1" stroke-linejoin="round"/>
<g opacity="1">
<path d="" opacity="1" fill="none"/>
<path d="" opacity="1" fill="none"/>
<path d="" opacity="1" fill="none"/>
<path d="" opacity="1" fill="none"/>
</g>
<path stroke="#ffffff" fill-rule="evenodd" stroke-width="3.07822" d="M82.3724+112.408C82.2648+112.766+82.132+113.116+81.9748+113.454C81.2604+115.01+79.5841+115.884+77.8998+115.581C76.2154+115.277+74.9499+113.873+74.8233+112.166C74.2545+104.959+72.4392+97.9061+69.4583+91.3203C69.4583+91.3203+72.3731+109.404+70.6585+102.118L72.6827+120.286C72.8361+120.222+73.001+120.19+73.1673+120.192C73.7458+120.497+74.3287+120.793+74.9159+121.081C75.2445+121.167+75.5215+121.388+75.6784+121.689C75.8353+121.991+75.8574+122.344+75.7393+122.663C76.0339+122.697+76.3304+122.712+76.6269+122.708C76.471+122.343+76.5081+121.923+76.7258+121.59C76.9436+121.257+77.3132+121.055+77.7109+121.051C77.8525+121.05+77.9931+121.073+78.127+121.119C78.2998+120.691+78.7233+120.418+79.1846+120.437C79.4989+120.569+79.8527+120.569+80.167+120.437C80.395+120.433+80.6194+120.495+80.8122+120.617C81.9492+119.066+82.6398+116.496+82.3724+112.408ZM75.0502+120.018C74.4024+119.995+73.8888+119.463+73.8888+118.815C73.8888+118.167+74.4024+117.635+75.0502+117.613C75.6981+117.635+76.2117+118.167+76.2117+118.815C76.2117+119.464+75.6981+119.995+75.0502+120.018Z" fill="#8d6800" stroke-linecap="butt" opacity="0.35" stroke-linejoin="miter"/>
<g opacity="1">
<path stroke="#ffffff" fill-rule="evenodd" stroke-width="3.07822" d="M79.2154+63.137C79.2154+63.9498+79.1793+64.7554+79.1096+65.5491C77.8604+79.9009+65.8454+90.9154+51.4393+90.9154C37.0332+90.9154+25.0183+79.9009+23.769+65.5491C23.6993+64.7554+23.6632+63.9498+23.6632+63.137C23.6526+47.7892+36.0915+35.3417+51.4393+35.3417C66.7871+35.3417+79.226+47.7892+79.2154+63.137Z" fill="url(#RadialGradient_5)" stroke-linecap="butt" opacity="1" stroke-linejoin="miter"/>
<path stroke="#ffffff" fill-rule="evenodd" stroke-width="3.07822" d="M51.4393+86.5867C36.9377+86.5863+24.8763+75.4312+23.7454+60.9738C23.6904+61.6881+23.6626+62.4095+23.662+63.1382C23.662+78.4792+36.0983+90.9155+51.4393+90.9155C66.7803+90.9155+79.2166+78.4791+79.2166+63.1382C79.2166+62.4098+79.1888+61.6883+79.1332+60.9738C78.0022+75.4312+65.9408+86.5863+51.4393+86.5867Z" fill="#8d6800" stroke-linecap="butt" opacity="0.35" stroke-linejoin="miter"/>
<path stroke="#ffffff" fill-rule="evenodd" stroke-width="3.07822" d="M78.8282+58.4981C76.4248+44.2548+63.5056+34.2309+49.1117+35.4413C34.7179+36.6518+23.6542+48.6925+23.6632+63.1371C23.6632+63.95+23.6993+64.7556+23.769+65.5492C24.2631+71.3184+26.5559+76.7869+30.324+81.1833C27.0886+77.0803+25.1271+72.1187+24.6821+66.9125C24.6147+66.1451+24.5798+65.3661+24.5798+64.5801C24.5731+55.0636+29.6072+46.2554+37.81+41.4309C38.2692+41.1606+38.8296+41.1253+39.3191+41.3359C42.8578+42.1086+46.5466+41.0286+49.1098+38.4694C49.4078+38.031+49.8964+37.7603+50.4261+37.74C50.7623+37.7272+51.1+37.7207+51.4393+37.7205C58.5644+37.7157+65.399+40.544+70.4372+45.5821C75.4754+50.6203+78.3037+57.4549+78.2988+64.58C78.2988+65.366+78.2639+66.145+78.1965+66.9125C77.7515+72.1187+75.79+77.0802+72.5546+81.1832C76.3228+76.7868+78.6156+71.3183+79.1096+65.5491C79.1794+64.7555+79.2154+63.9499+79.2154+63.137C79.2162+61.5826+79.0866+60.0309+78.8282+58.4981Z" fill="#ffffff" stroke-linecap="butt" opacity="0.7" stroke-linejoin="miter"/>
<path stroke="#ffffff" stroke-width="3.07822" d="M38.6338+76.6646C40.4472+79.0198+43.1551+80.5187+46.1137+80.8049" fill="none" stroke-linecap="round" opacity="1" stroke-linejoin="round"/>
<g opacity="1">
<path stroke="#ffffff" stroke-width="3.07822" d="M56.1223+42.8105C55.0737+42.5701+54.008+42.4113+52.9349+42.3355" fill="none" stroke-linecap="round" opacity="0.5" stroke-linejoin="round"/>
<path stroke="#ffffff" stroke-width="3.07822" d="M71.32+56.8181C69.7708+51.9631+66.5019+47.8408+62.1276+45.226" fill="none" stroke-linecap="round" opacity="0.5" stroke-linejoin="round"/>
</g>
<path stroke="#ffffff" stroke-width="3.07822" d="M23.662+63.1382C23.662+47.7972+36.0983+35.3609+51.4393+35.3609C66.7803+35.3609+79.2166+47.7972+79.2166+63.1382C79.2166+78.4792+66.7803+90.9155+51.4393+90.9155C36.0983+90.9155+23.662+78.4792+23.662+63.1382Z" fill="none" stroke-linecap="butt" opacity="1" stroke-linejoin="miter"/>
</g>
<path stroke="#ffffff" stroke-width="3.07822" d="M32.2045+97.3301C32.2045+97.3301+32.7474+93.5728+33.4046+90.9156" fill="none" stroke-linecap="round" opacity="1" stroke-linejoin="round"/>
<path stroke="#ffffff" stroke-width="3.07822" d="M32.2308+97.8943C32.2308+97.8943+30.5271+102.536+30.87+121.565" fill="none" stroke-linecap="round" opacity="1" stroke-linejoin="round"/>
<g opacity="1">
<g opacity="1">
<path d="M118.633+101.286L113.7+101.286C113.576+101.272+113.452+101.314+113.36+101.399C113.269+101.484+113.219+101.605+113.224+101.73L113.224+103.401C113.246+103.66+113.455+103.864+113.715+103.88L115.287+103.88C115.415+103.869+115.54+103.917+115.629+104.009C115.718+104.101+115.761+104.228+115.745+104.355L115.745+105.103C115.745+105.395+115.469+105.63+115.038+105.772C114.604+105.906+114.153+105.971+113.699+105.963C112.757+105.99+111.847+105.623+111.188+104.95C110.529+104.277+110.181+103.359+110.227+102.419L110.227+102.382C110.187+101.481+110.511+100.601+111.126+99.9415C111.742+99.2817+112.596+98.897+113.498+98.874C114.479+98.8621+115.434+99.1826+116.21+99.7835C116.434+99.8837+116.694+99.8563+116.892+99.7116C117.289+99.2351+117.976+98.4099+118.369+97.9372C118.502+97.724+118.471+97.4467+118.293+97.2691C116.918+96.2065+115.216+95.6563+113.48+95.7133C111.674+95.6457+109.919+96.3167+108.619+97.5716C107.32+98.8266+106.587+100.557+106.591+102.364L106.591+102.4C106.591+106.274+109.57+109.014+113.553+109.014C115.163+109.023+116.744+108.584+118.119+107.745C118.6+107.37+118.946+106.85+119.107+106.263L119.107+101.733C119.064+101.497+118.872+101.316+118.633+101.286Z" fill-rule="evenodd" fill="#ffffff" opacity="1"/>
<path stroke="#ffffff" stroke-width="3.07822" d="M118.633+101.286L113.7+101.286C113.576+101.272+113.452+101.314+113.36+101.399C113.269+101.484+113.219+101.605+113.224+101.73L113.224+103.401C113.246+103.66+113.455+103.864+113.715+103.88L115.287+103.88C115.415+103.869+115.54+103.917+115.629+104.009C115.718+104.101+115.761+104.228+115.745+104.355L115.745+105.103C115.745+105.395+115.469+105.63+115.038+105.772C114.604+105.906+114.153+105.971+113.699+105.963C112.757+105.99+111.847+105.623+111.188+104.95C110.529+104.277+110.181+103.359+110.227+102.419L110.227+102.382C110.187+101.481+110.511+100.601+111.126+99.9415C111.742+99.2817+112.596+98.897+113.498+98.874C114.479+98.8621+115.434+99.1826+116.21+99.7835C116.434+99.8837+116.694+99.8563+116.892+99.7116C117.289+99.2351+117.976+98.4099+118.369+97.9372C118.502+97.724+118.471+97.4467+118.293+97.2691C116.918+96.2065+115.216+95.6563+113.48+95.7133C111.674+95.6457+109.919+96.3167+108.619+97.5716C107.32+98.8266+106.587+100.557+106.591+102.364L106.591+102.4C106.591+106.274+109.57+109.014+113.553+109.014C115.163+109.023+116.744+108.584+118.119+107.745C118.6+107.37+118.946+106.85+119.107+106.263L119.107+101.733C119.064+101.497+118.872+101.316+118.633+101.286Z" fill="none" stroke-linecap="butt" opacity="1" stroke-linejoin="miter"/>
</g>
<g opacity="1">
<path d="M107.579+98.2337C107.579+97.0382+108.479+96.069+109.589+96.069C110.699+96.069+111.599+97.0382+111.599+98.2337C111.599+99.4293+110.699+100.399+109.589+100.399C108.479+100.399+107.579+99.4293+107.579+98.2337Z" fill-rule="evenodd" fill="#ffffff" opacity="1"/>
<path stroke="#ffffff" stroke-width="3.07822" d="M107.579+98.2337C107.579+97.0382+108.479+96.069+109.589+96.069C110.699+96.069+111.599+97.0382+111.599+98.2337C111.599+99.4293+110.699+100.399+109.589+100.399C108.479+100.399+107.579+99.4293+107.579+98.2337Z" fill="none" stroke-linecap="butt" opacity="1" stroke-linejoin="miter"/>
</g>
<g opacity="1">
<path d="M109.392+98.3362C109.343+98.3402+109.307+98.383+109.31+98.4321L109.31+99.5533C109.305+99.5857+109.319+99.6181+109.347+99.6359C109.375+99.6537+109.41+99.6537+109.438+99.6359C109.465+99.6181+109.48+99.5857+109.475+99.5533L109.475+98.4321C109.478+98.383+109.441+98.3402+109.392+98.3362Z" fill-rule="evenodd" fill="#315060" opacity="1"/>
<path stroke="#ffffff" stroke-width="3.07822" d="M109.392+98.3362C109.343+98.3402+109.307+98.383+109.31+98.4321L109.31+99.5533C109.305+99.5857+109.319+99.6181+109.347+99.6359C109.375+99.6537+109.41+99.6537+109.438+99.6359C109.465+99.6181+109.48+99.5857+109.475+99.5533L109.475+98.4321C109.478+98.383+109.441+98.3402+109.392+98.3362Z" fill="none" stroke-linecap="butt" opacity="1" stroke-linejoin="miter"/>
</g>
<g opacity="1">
<path d="M108.517+97.7306C108.517+97.2458+108.91+96.8528+109.394+96.8528C109.879+96.8528+110.272+97.2458+110.272+97.7306C110.272+98.2153+109.879+98.6083+109.394+98.6083C108.91+98.6083+108.517+98.2153+108.517+97.7306Z" fill-rule="evenodd" fill="#0087b2" opacity="1"/>
<path stroke="#ffffff" stroke-width="3.07822" d="M108.517+97.7306C108.517+97.2458+108.91+96.8528+109.394+96.8528C109.879+96.8528+110.272+97.2458+110.272+97.7306C110.272+98.2153+109.879+98.6083+109.394+98.6083C108.91+98.6083+108.517+98.2153+108.517+97.7306Z" fill="none" stroke-linecap="butt" opacity="1" stroke-linejoin="miter"/>
</g>
<g opacity="1">
<path d="M108.585+97.7924C108.585+97.3418+108.95+96.9765+109.401+96.9765C109.851+96.9765+110.217+97.3418+110.217+97.7924C110.217+98.243+109.851+98.6083+109.401+98.6083C108.95+98.6083+108.585+98.243+108.585+97.7924Z" fill-rule="evenodd" fill="#00a2d6" opacity="1"/>
<path stroke="#ffffff" stroke-width="3.07822" d="M108.585+97.7924C108.585+97.3418+108.95+96.9765+109.401+96.9765C109.851+96.9765+110.217+97.3418+110.217+97.7924C110.217+98.243+109.851+98.6083+109.401+98.6083C108.95+98.6083+108.585+98.243+108.585+97.7924Z" fill="none" stroke-linecap="butt" opacity="1" stroke-linejoin="miter"/>
</g>
</g>
</g>
</g>
<g opacity="1">
<g opacity="1">
<path d="" fill-rule="evenodd" fill="url(#RadialGradient_6)" opacity="1"/>
<path d="M85.34+121.445C84.4426+112.549+84.8851+121.097+84.6705+120.114C83.9643+116.877+85.0255+120.584+82.5952+121.134C77.53+122.278+73.5935+119.673+74.1265+111.523C74.4881+107.646+75.3523+103.833+76.6973+100.179C84.2125+78.254+105.067+81.2072+105.067+81.2072C105.067+81.2072+125.922+78.254+133.437+100.179C141.337+123.232+131.012+125.808+121.07+117.807C120.494+117.344+128.354+112.235+125.501+121.445" fill-rule="evenodd" fill="url(#RadialGradient_7)" opacity="1"/>
<path d="" fill-rule="evenodd" fill="#9339fb" opacity="0.35"/>
<path d="M85.8328+101.232C84.1182+108.519+87.033+90.4347+87.033+90.4347C84.0521+97.0204+82.2369+104.074+81.668+111.28C81.5414+112.987+80.2759+114.392+78.5915+114.695C76.9072+114.999+75.2309+114.124+74.5165+112.569C74.3593+112.23+74.2265+111.88+74.1189+111.523C73.3301+123.583+84.9189+121.044+84.0914+120.693" fill-rule="evenodd" fill="#8d6800" opacity="0.35"/>
<path d="M133.43+100.18C125.915+78.2538+105.06+81.208+105.06+81.208C105.06+81.208+84.2042+78.2538+76.6896+100.18C72.8293+111.444+73.616+117.646+76.5886+120.114C74.436+117.273+74.1816+111.426+77.5305+101.654C84.8223+80.3777+105.06+83.2443+105.06+83.2443C105.06+83.2443+125.297+80.3777+132.589+101.654C135.938+111.426+135.684+117.273+133.531+120.114C136.504+117.646+137.29+111.444+133.43+100.18Z" fill-rule="evenodd" fill="#ffffff" opacity="0.7"/>
<path stroke="#8d6800" stroke-width="1.34672" d="M125.687+120.571C133.547+123.558+139.786+118.727+133.43+100.18C125.915+78.2538+105.06+81.208+105.06+81.208C105.06+81.208+84.2042+78.2538+76.6896+100.18C70.966+116.881+75.5215+122.541+82.1992+121.292C84.7388+120.817+124.578+122.393+126.583+121.325" fill="none" stroke-linecap="round" opacity="1" stroke-linejoin="round"/>
</g>
<g opacity="1">
<path d="M84.2042+118.124L84.2042+120.224" fill-rule="evenodd" fill="#9339fb" opacity="0.35"/>
<path d="" opacity="1" fill="none"/>
<path stroke="#8d6800" stroke-width="1.34672" d="" fill="none" stroke-linecap="round" opacity="1" stroke-linejoin="round"/>
<path stroke="#8d6800" stroke-width="1.34672" d="" fill="none" stroke-linecap="round" opacity="1" stroke-linejoin="round"/>
<path stroke="#8d6800" stroke-width="1.34672" d="" fill="none" stroke-linecap="round" opacity="1" stroke-linejoin="round"/>
<path stroke="#8d6800" stroke-width="1.34672" d="" fill="none" stroke-linecap="round" opacity="1" stroke-linejoin="round"/>
</g>
<g opacity="1">
<path stroke="#8d6800" stroke-width="1.34672" d="M124.287+97.4943C124.287+97.4943+125.964+102.536+125.621+121.565" fill="none" stroke-linecap="round" opacity="1" stroke-linejoin="round"/>
<path stroke="#9339fb" stroke-width="1.34672" d="" fill="none" stroke-linecap="round" opacity="1" stroke-linejoin="round"/>
<path d="M123.454+97.6147L123.201+94.3752C123.1+93.2944+123.022+92.2106+122.955+91.1122C122.95+91.0365+123.007+90.9709+123.083+90.9658C123.141+90.9623+123.194+90.9947+123.218+91.0472C123.658+92.0608+124.023+93.1056+124.308+94.1731C124.6+95.2344+124.899+96.2898+125.12+97.3739L125.121+97.3809C125.213+97.8368+124.918+98.2807+124.462+98.3735C124.007+98.4662+123.562+98.1727+123.468+97.7173C123.461+97.6834+123.457+97.6491+123.454+97.6147Z" fill-rule="evenodd" fill="#8d6800" opacity="1"/>
</g>
<path d="M105.06+86.1058C90.5583+86.1053+78.4969+74.9503+77.3659+60.4929C77.3109+61.2071+77.2831+61.9286+77.2825+62.6572C77.2931+77.9907+89.7263+90.4153+105.06+90.4153C120.393+90.4153+132.827+77.9907+132.837+62.6572C132.837+61.9288+132.809+61.2074+132.754+60.4928C131.623+74.9502+119.561+86.1053+105.06+86.1058Z" fill-rule="evenodd" fill="#9339fb" opacity="0.35"/>
<path stroke="#9339fb" stroke-width="1.34672" d="M92.2543+76.1836C94.068+78.5389+96.776+80.0378+99.734+80.324" fill="none" stroke-linecap="round" opacity="1" stroke-linejoin="round"/>
<g opacity="1">
<path d="" opacity="1" fill="none"/>
<path d="" opacity="1" fill="none"/>
<path d="" opacity="1" fill="none"/>
<path d="" opacity="1" fill="none"/>
</g>
<path d="M124.287+101.637C126.002+108.923+123.087+90.8393+123.087+90.8393C126.068+97.4251+127.883+104.478+128.452+111.685C128.578+113.392+129.844+114.796+131.528+115.1C133.213+115.403+134.889+114.529+135.603+112.973C135.76+112.635+135.893+112.285+136.001+111.927C136.79+123.988+129.247+122.857+126.472+121.248" fill-rule="evenodd" fill="#8d6800" opacity="0.35"/>
<g opacity="1">
<path d="M132.844+62.656C132.844+63.4688+132.808+64.2745+132.738+65.0681C131.489+79.4199+119.474+90.4345+105.068+90.4345C90.6615+90.4345+78.6466+79.4199+77.3973+65.0681C77.3276+64.2745+77.2915+63.4688+77.2915+62.656C77.2809+47.3082+89.7198+34.8607+105.068+34.8607C120.415+34.8607+132.854+47.3082+132.844+62.656Z" fill-rule="evenodd" fill="url(#RadialGradient_8)" opacity="1"/>
<path d="M105.068+86.1058C90.566+86.1053+78.5046+74.9502+77.3737+60.4928C77.3187+61.2071+77.2909+61.9286+77.2903+62.6572C77.2903+77.9982+89.7266+90.4345+105.068+90.4345C120.409+90.4345+132.845+77.9982+132.845+62.6572C132.845+61.9288+132.817+61.2074+132.761+60.4928C131.631+74.9502+119.569+86.1053+105.068+86.1058Z" fill-rule="evenodd" fill="#8d6800" opacity="0.35"/>
<path d="M132.457+58.0172C130.053+43.7739+117.134+33.75+102.74+34.9604C88.3462+36.1708+77.2825+48.2115+77.2915+62.6561C77.2915+63.469+77.3276+64.2746+77.3974+65.0682C77.8914+70.8374+80.1842+76.3059+83.9524+80.7023C80.717+76.5993+78.7555+71.6378+78.3105+66.4316C78.243+65.6642+78.2082+64.8851+78.2082+64.0991C78.2015+54.5826+83.2355+45.7745+91.4384+40.9499C91.8975+40.6796+92.458+40.6443+92.9474+40.8549C96.486+41.6276+100.175+40.5477+102.738+37.9885C103.036+37.5501+103.525+37.2793+104.055+37.259C104.391+37.2462+104.728+37.2397+105.068+37.2396C112.193+37.2347+119.027+40.063+124.066+45.1012C129.104+50.1394+131.932+56.974+131.927+64.0991C131.927+64.8851+131.892+65.6642+131.825+66.4316C131.38+71.6378+129.418+76.5993+126.183+80.7024C129.951+76.3059+132.244+70.8374+132.738+65.0683C132.808+64.2746+132.844+63.469+132.844+62.6562C132.845+61.1017+132.715+59.55+132.457+58.0172Z" fill-rule="evenodd" fill="#ffffff" opacity="0.7"/>
<path stroke="#8d6800" stroke-width="1.34672" d="M115.374+75.9431C113.497+78.2237+110.823+79.7041+107.894+80.0835" fill="none" stroke-linecap="round" opacity="1" stroke-linejoin="round"/>
<g opacity="1">
<path stroke="#ffffff" stroke-width="3.07822" d="M109.751+42.3295C108.702+42.0891+107.636+41.9303+106.563+41.8545" fill="none" stroke-linecap="round" opacity="0.5" stroke-linejoin="round"/>
<path stroke="#ffffff" stroke-width="3.07822" d="M124.948+56.3372C123.399+51.4821+120.13+47.3598+115.756+44.745" fill="none" stroke-linecap="round" opacity="0.5" stroke-linejoin="round"/>
</g>
<path stroke="#8d6800" stroke-width="1.34672" d="M77.2903+62.6572C77.2903+47.3162+89.7266+34.8799+105.068+34.8799C120.409+34.8799+132.845+47.3162+132.845+62.6572C132.845+77.9982+120.409+90.4345+105.068+90.4345C89.7266+90.4345+77.2903+77.9982+77.2903+62.6572Z" fill="none" stroke-linecap="butt" opacity="1" stroke-linejoin="miter"/>
</g>
<path d="M84.9998+96.7288C85.2205+95.6447+85.52+94.5893+85.8115+93.5279C86.0971+92.4605+86.4614+91.4157+86.9014+90.4021C86.9322+90.3327+87.0135+90.3013+87.0829+90.3321C87.1354+90.3559+87.1678+90.4096+87.1643+90.4671C87.0973+91.5655+87.0195+92.6492+86.9184+93.7301L86.6659+96.9695C86.6414+97.2816+86.4461+97.5545+86.1585+97.6782C85.871+97.802+85.5386+97.7564+85.295+97.5597C85.0515+97.3631+84.9369+97.0477+84.9974+96.7405L84.9998+96.7288Z" fill-rule="evenodd" fill="#8d6800" opacity="1"/>
<g opacity="1">
<path stroke="#8d6800" stroke-width="1.34672" d="M85.8591+97.4134C85.8591+97.4134+84.1554+102.055+84.4983+121.085" fill="none" stroke-linecap="round" opacity="1" stroke-linejoin="round"/>
<g opacity="1">
<path d="" fill-rule="evenodd" fill="url(#RadialGradient_9)" opacity="1"/>
<path d="M31.9522+121.926C31.0548+113.03+31.4972+121.578+31.2827+120.595C30.5765+117.358+31.6377+121.065+29.2074+121.615C24.1422+122.759+20.2056+120.154+20.7387+112.004C21.1003+108.127+21.9645+104.314+23.3095+100.66C30.8247+78.735+51.6796+81.6882+51.6796+81.6882C51.6796+81.6882+72.5345+78.735+80.0497+100.66C87.9497+123.713+77.6239+126.289+67.6822+118.288C67.1063+117.825+74.9661+112.716+72.1133+121.926" fill-rule="evenodd" fill="url(#RadialGradient_10)" opacity="1"/>
<path d="" fill-rule="evenodd" fill="#9339fb" opacity="0.35"/>
<path d="M32.445+101.713C30.7304+109+33.6452+90.9156+33.6452+90.9156C30.6643+97.5014+28.849+104.555+28.2802+111.761C28.1536+113.468+26.8881+114.873+25.2037+115.176C23.5194+115.48+21.8431+114.605+21.1287+113.05C20.9715+112.711+20.8387+112.361+20.7311+112.004C19.9423+124.064+31.5311+121.525+30.7036+121.174" fill-rule="evenodd" fill="#8d6800" opacity="0.35"/>
<path d="M80.0421+100.661C72.5275+78.7348+51.672+81.6889+51.672+81.6889C51.672+81.6889+30.8164+78.7348+23.3018+100.661C19.4415+111.925+20.2281+118.127+23.2008+120.595C21.0482+117.754+20.7938+111.907+24.1426+102.135C31.4345+80.8587+51.672+83.7253+51.672+83.7253C51.672+83.7253+71.9095+80.8587+79.2014+102.135C82.5502+111.907+82.2958+117.754+80.1432+120.595C83.1158+118.127+83.9024+111.925+80.0421+100.661Z" fill-rule="evenodd" fill="#ffffff" opacity="0.7"/>
<path stroke="#8d6800" stroke-width="1.34672" d="M72.2987+121.052C80.159+124.039+86.3986+119.208+80.0421+100.661C72.5276+78.7348+51.672+81.6889+51.672+81.6889C51.672+81.6889+30.8164+78.7348+23.3018+100.661C17.5782+117.362+22.1337+123.022+28.8114+121.773C31.351+121.297+71.1905+122.874+73.1954+121.806" fill="none" stroke-linecap="round" opacity="1" stroke-linejoin="round"/>
</g>
<path d="M31.6581+118.605C31.5829+118.959+31.4897+119.31+31.379+119.655C31.28+120.021+31.1366+120.373+30.9518+120.705C30.9244+120.754+30.8726+120.784+30.8164+120.784C30.7602+120.784+30.7084+120.754+30.681+120.705C30.4962+120.373+30.3528+120.021+30.2538+119.655C30.1431+119.31+30.0499+118.959+29.9747+118.605C29.8965+118.14+30.2094+117.7+30.6737+117.621C31.1381+117.543+31.5786+117.855+31.6581+118.319C31.6738+118.414+31.6738+118.51+31.6581+118.605Z" fill-rule="evenodd" fill="#8d6800" opacity="1"/>
<path stroke="#8d6800" stroke-width="1.34672" d="" fill="none" stroke-linecap="round" opacity="1" stroke-linejoin="round"/>
<path stroke="#8d6800" stroke-width="1.34672" d="" fill="none" stroke-linecap="round" opacity="1" stroke-linejoin="round"/>
<g opacity="1">
<path stroke="#8d6800" stroke-width="1.34672" d="M70.8989+97.9753C70.8989+97.9753+72.5764+103.017+72.2335+122.046" fill="none" stroke-linecap="round" opacity="1" stroke-linejoin="round"/>
<path stroke="#9339fb" stroke-width="1.34672" d="" fill="none" stroke-linecap="round" opacity="1" stroke-linejoin="round"/>
<path d="M70.0659+98.0956L69.8134+94.8562C69.7123+93.7754+69.6344+92.6916+69.5674+91.5932C69.5649+91.5568+69.577+91.521+69.601+91.4935C69.625+91.466+69.6589+91.4492+69.6953+91.4468C69.7528+91.4433+69.8065+91.4757+69.8303+91.5282C70.2704+92.5418+70.6347+93.5866+70.9203+94.654C71.2118+95.7154+71.5113+96.7708+71.732+97.8549L71.7334+97.8619C71.8261+98.3183+71.5314+98.7635+71.075+98.8564C70.6186+98.9493+70.1733+98.6547+70.0803+98.1984C70.0736+98.1644+70.0688+98.1301+70.0659+98.0956Z" fill-rule="evenodd" fill="#8d6800" opacity="1"/>
</g>
<path d="M51.6719+86.5867C37.1704+86.5863+25.109+75.4312+23.9781+60.9738C23.923+61.6881+23.8952+62.4095+23.8947+63.1382C23.8947+78.4792+36.331+90.9155+51.672+90.9155C67.0129+90.9155+79.4492+78.4792+79.4492+63.1382C79.4492+62.4098+79.4214+61.6884+79.3658+60.9738C78.2349+75.4312+66.1735+86.5863+51.6719+86.5867Z" fill-rule="evenodd" fill="#9339fb" opacity="0.35"/>
<path stroke="#9339fb" stroke-width="1.34672" d="M38.8665+76.6646C40.6798+79.0198+43.3877+80.5187+46.3464+80.805" fill="none" stroke-linecap="round" opacity="1" stroke-linejoin="round"/>
<g opacity="1">
<path d="" opacity="1" fill="none"/>
<path d="" opacity="1" fill="none"/>
<path d="" opacity="1" fill="none"/>
<path d="" opacity="1" fill="none"/>
</g>
<path d="M70.899+102.118C72.6137+109.404+69.6989+91.3203+69.6989+91.3203C72.6797+97.906+74.495+104.959+75.0639+112.166C75.1904+113.873+76.4559+115.277+78.1403+115.581C79.8246+115.884+81.5009+115.01+82.2153+113.454C82.3725+113.116+82.5054+112.766+82.613+112.408C83.4018+124.469+75.8588+123.338+73.084+121.729" fill-rule="evenodd" fill="#8d6800" opacity="0.35"/>
<g opacity="1">
<path d="M79.4559+63.137C79.4559+63.9498+79.4198+64.7554+79.3501+65.5491C78.1009+79.901+66.0859+90.9155+51.6798+90.9155C37.2736+90.9155+25.2587+79.901+24.0095+65.5491C23.9398+64.7554+23.9037+63.9498+23.9037+63.137C23.8907+47.7875+36.3303+35.3374+51.6798+35.3374C67.0293+35.3374+79.4689+47.7875+79.4559+63.137Z" fill-rule="evenodd" fill="url(#RadialGradient_11)" opacity="1"/>
<path d="M51.6798+86.5867C37.1782+86.5863+25.1168+75.4312+23.9859+60.9738C23.9308+61.6881+23.903+62.4095+23.9025+63.1382C23.9025+78.4792+36.3388+90.9155+51.6798+90.9155C67.0207+90.9155+79.457+78.4792+79.457+63.1382C79.457+62.4098+79.4292+61.6884+79.3736+60.9738C78.2427+75.4312+66.1813+86.5863+51.6798+86.5867Z" fill-rule="evenodd" fill="#8d6800" opacity="0.35"/>
<path d="M79.0687+58.4981C76.6653+44.2549+63.7461+34.231+49.3523+35.4414C34.9585+36.6519+23.8948+48.6925+23.9037+63.1371C23.9037+63.95+23.9398+64.7556+24.0096+65.5492C24.5036+71.3184+26.7964+76.7868+30.5645+81.1833C27.3292+77.0802+25.3677+72.1187+24.9227+66.9125C24.8552+66.1451+24.8204+65.3661+24.8204+64.5801C24.8136+55.0636+29.8477+46.2554+38.0506+41.4309C38.5097+41.1606+39.0702+41.1253+39.5596+41.3359C43.0983+42.1086+46.7871+41.0286+49.3503+38.4694C49.6484+38.031+50.137+37.7603+50.6667+37.74C51.0028+37.7272+51.3406+37.7207+51.6799+37.7205C58.8049+37.7157+65.6395+40.544+70.6777+45.5821C75.7159+50.6203+78.5442+57.4549+78.5393+64.58C78.5393+65.366+78.5044+66.145+78.437+66.9125C77.992+72.1187+76.0305+77.0802+72.7951+81.1832C76.5633+76.7868+78.8561+71.3183+79.3501+65.5491C79.4199+64.7555+79.4559+63.9499+79.4559+63.137C79.4567+61.5826+79.3271+60.0309+79.0687+58.4981Z" fill-rule="evenodd" fill="#ffffff" opacity="0.7"/>
<path stroke="#8d6800" stroke-width="1.34672" d="M38.8743+76.6646C40.6876+79.0198+43.3956+80.5187+46.3542+80.8049" fill="none" stroke-linecap="round" opacity="1" stroke-linejoin="round"/>
<g opacity="1">
<path stroke="#ffffff" stroke-width="3.07822" d="M56.3629+42.8105C55.3142+42.5701+54.2486+42.4113+53.1754+42.3355" fill="none" stroke-linecap="round" opacity="0.5" stroke-linejoin="round"/>
<path stroke="#ffffff" stroke-width="3.07822" d="M71.5606+56.8181C70.0113+51.963+66.7424+47.8408+62.368+45.2259" fill="none" stroke-linecap="round" opacity="0.5" stroke-linejoin="round"/>
</g>
<path stroke="#8d6800" stroke-width="1.34672" d="M23.9025+63.1382C23.9025+47.7972+36.3388+35.3609+51.6798+35.3609C67.0208+35.3609+79.4571+47.7972+79.4571+63.1382C79.4571+78.4792+67.0208+90.9155+51.6798+90.9155C36.3388+90.9155+23.9025+78.4792+23.9025+63.1382Z" fill="none" stroke-linecap="butt" opacity="1" stroke-linejoin="miter"/>
</g>
<path stroke="#8d6800" stroke-width="1.34672" d="M32.445+97.3301C32.445+97.3301+32.9879+93.5728+33.6451+90.9156" fill="none" stroke-linecap="round" opacity="1" stroke-linejoin="round"/>
<path stroke="#8d6800" stroke-width="1.34672" d="M32.4712+97.8943C32.4712+97.8943+30.7676+102.536+31.1104+121.565" fill="none" stroke-linecap="round" opacity="1" stroke-linejoin="round"/>
<g opacity="1">
<path d="M118.873+101.286L113.941+101.286C113.816+101.272+113.692+101.314+113.601+101.399C113.509+101.484+113.46+101.605+113.464+101.73L113.464+103.401C113.487+103.66+113.695+103.864+113.955+103.88L115.527+103.88C115.655+103.869+115.781+103.917+115.87+104.009C115.959+104.101+116.001+104.228+115.986+104.355L115.986+105.103C115.986+105.395+115.709+105.63+115.278+105.772C114.845+105.906+114.393+105.971+113.939+105.963C112.998+105.99+112.088+105.623+111.428+104.95C110.769+104.277+110.421+103.359+110.468+102.419L110.468+102.382C110.428+101.481+110.752+100.601+111.367+99.9415C111.982+99.2817+112.837+98.897+113.738+98.874C114.719+98.8621+115.675+99.1826+116.45+99.7835C116.674+99.8837+116.935+99.8563+117.133+99.7116C117.529+99.2351+118.216+98.4099+118.609+97.9372C118.743+97.724+118.711+97.4467+118.533+97.2691C117.159+96.2065+115.457+95.6563+113.72+95.7133C111.915+95.6457+110.16+96.3167+108.86+97.5716C107.56+98.8266+106.828+100.557+106.832+102.364L106.832+102.4C106.832+106.274+109.81+109.014+113.793+109.014C115.404+109.023+116.985+108.584+118.359+107.745C118.84+107.37+119.187+106.85+119.348+106.263L119.348+101.733C119.304+101.497+119.112+101.316+118.873+101.286Z" fill-rule="evenodd" fill="#ffffff" opacity="1"/>
<path d="M107.819+98.2337C107.819+97.0382+108.719+96.069+109.829+96.069C110.94+96.069+111.84+97.0382+111.84+98.2337C111.84+99.4293+110.94+100.399+109.829+100.399C108.719+100.399+107.819+99.4293+107.819+98.2337Z" fill-rule="evenodd" fill="#ffffff" opacity="1"/>
<path d="M109.633+98.3362C109.584+98.3402+109.547+98.383+109.551+98.4321L109.551+99.5533C109.546+99.5857+109.56+99.6181+109.588+99.6359C109.615+99.6537+109.65+99.6537+109.678+99.6359C109.706+99.6181+109.72+99.5857+109.715+99.5533L109.715+98.4321C109.718+98.383+109.682+98.3402+109.633+98.3362Z" fill-rule="evenodd" fill="#315060" opacity="1"/>
<path d="M108.757+97.7306C108.757+97.2458+109.15+96.8528+109.635+96.8528C110.12+96.8528+110.513+97.2458+110.513+97.7306C110.513+98.2153+110.12+98.6083+109.635+98.6083C109.15+98.6083+108.757+98.2153+108.757+97.7306Z" fill-rule="evenodd" fill="#0087b2" opacity="1"/>
<path d="M109.641+96.9765C109.191+96.9765+108.825+97.3418+108.825+97.7925C108.825+98.2431+109.191+98.6083+109.641+98.6083C110.092+98.6083+110.457+98.243+110.457+97.7924C110.457+97.3418+110.092+96.9764+109.641+96.9765Z" fill-rule="evenodd" fill="#00a2d6" opacity="1"/>
</g>
</g>
</g>
</g>
</g>
</svg>
