<svg xmlns="http://www.w3.org/2000/svg" viewBox="0 0 101.56 102.33"><defs><style>.cls-1{fill:#05c2ea;}</style></defs><title>BuscarGlup</title><g id="Capa_2" data-name="Capa 2"><g id="Capa_1-2" data-name="Capa 1"><path class="cls-1" d="M99.23,88.68,72.76,62A39.61,39.61,0,1,0,39.67,79.94a39.15,39.15,0,0,0,21.87-6.63l7.32,7.37h0L88,100a7.87,7.87,0,0,0,11.22,0,8,8,0,0,0,0-11.3M39.67,72A32,32,0,1,1,71.41,40,31.9,31.9,0,0,1,39.67,72m25.1-1a40.48,40.48,0,0,0,5.61-5.65L76,70.93a49.07,49.07,0,0,1-5.61,5.65Z"/><path class="cls-1" d="M61.9,31.39a23.91,23.91,0,0,0-8.6-11.07A23.51,23.51,0,0,0,39.67,16a2,2,0,0,0,0,4A20,20,0,0,1,58.2,32.83a2,2,0,0,0,1.85,1.28,1.76,1.76,0,0,0,.71-.14,2,2,0,0,0,1.14-2.58"/></g></g></svg>