<svg xmlns="http://www.w3.org/2000/svg" xmlns:xlink="http://www.w3.org/1999/xlink" viewBox="0 0 42.6 37"><defs><linearGradient id="linear-gradient" y1="18.51" x2="42.58" y2="18.51" gradientUnits="userSpaceOnUse"><stop offset="0" stop-color="#b76aff"/><stop offset="1" stop-color="#e9aaff"/></linearGradient></defs><title>Compartir</title><g id="Capa_2" data-name="Capa 2"><g id="Layer_1" data-name="Layer 1"><path d="M42.6,1.5A1.2,1.2,0,0,0,40.9.1L.8,15.4A1.2,1.2,0,0,0,0,16.5a1.2,1.2,0,0,0,.8,1.2l11.3,4.4V35.8A1.4,1.4,0,0,0,13,37a1.3,1.3,0,0,0,1.4-.7l4.7-9.2,11.3,8.4a1.3,1.3,0,0,0,2-.6C43,.1,42.5,1.6,42.6,1.5ZM32.7,5.9,13.1,19.8,4.7,16.6Zm-18.1,16,17-12.2-14,14.8c-.1.1.2-.4-3,6ZM30.5,32.5,20.5,25,38.6,6Z" fill="url(#linear-gradient)"/></g></g></svg>