<svg xmlns="http://www.w3.org/2000/svg" viewBox="0 0 143.5 128.7">
   <defs>
      <style>
       .a {
         fill: #fff;
       }
     </style>
   </defs>
   <g>
      <path class="a" d="M127.2,128.7H16.4a16.4,16.4,0,0,1-14.2-8.2,16.5,16.5,0,0,1,0-16.4L57.6,8.2A16.4,16.4,0,0,1,71.8,0h0A16.1,16.1,0,0,1,85.9,8.2l55.4,95.9a16.4,16.4,0,0,1-14.1,24.6ZM65,12.4l-55.4,96a7.3,7.3,0,0,0,0,7.8,7.7,7.7,0,0,0,6.8,4H127.2a7.9,7.9,0,0,0,6.8-11.8l-55.4-96a7.9,7.9,0,0,0-6.8-3.9A7.8,7.8,0,0,0,65,12.4Z" />
      <g>
         <path class="a" d="M71.8,34.7h0A10.3,10.3,0,0,1,82,46.2L77.5,83.8a5.8,5.8,0,0,1-5.7,5.1h0a5.7,5.7,0,0,1-5.7-5.1L61.6,46.2A10.3,10.3,0,0,1,71.8,34.7Z" />
         <path class="a" d="M66,107.1a7.7,7.7,0,0,1-2.4-5.8A7.8,7.8,0,0,1,66,95.5a8.5,8.5,0,0,1,11.6,0,7.8,7.8,0,0,1,2.4,5.8,7.7,7.7,0,0,1-2.4,5.8,8.2,8.2,0,0,1-11.6,0Z" />
      </g>
   </g>
</svg>
