<svg xmlns="http://www.w3.org/2000/svg" xmlns:xlink="http://www.w3.org/1999/xlink" viewBox="0 0 313.9 301.5">
  <defs>
    <clipPath id="a">
      <path d="M142.4,17.7l-34,79.5L22.5,105A16,16,0,0,0,8.9,115.9a15.7,15.7,0,0,0,4.6,16.8l65,57L59.3,274a15.8,15.8,0,0,0,6.2,16.4,15.6,15.6,0,0,0,9.2,3,17.1,17.1,0,0,0,8.2-2.2L157,246.8l74,44.4A15.9,15.9,0,0,0,254.6,274l-19.1-84.3,64.9-57a15.9,15.9,0,0,0-9-27.7l-85.9-7.8-34-79.5a15.8,15.8,0,0,0-29.1,0" fill="none"/>
    </clipPath>
    <linearGradient id="b" x1="-359.25" y1="1160.57" x2="-350.36" y2="1160.57" gradientTransform="matrix(33.49, 0, 0, -33.49, 12040.7, 39023.31)" gradientUnits="userSpaceOnUse">
      <stop offset="0" stop-color="#f6e946"/>
      <stop offset="0.21" stop-color="#f7dd3d"/>
      <stop offset="1" stop-color="#fab31f"/>
    </linearGradient>
  </defs>
  <title>Recurso 1</title>
  <g>
    <g clip-path="url(#a)">
      <rect x="6.9" y="8.1" width="300.1" height="286.28" fill="url(#b)"/>
    </g>
    <path d="M305,115.9A15.8,15.8,0,0,0,291.4,105l-85.9-7.8-34-79.5a15.8,15.8,0,0,0-29.1,0L108.5,97.2l-86,7.8A16,16,0,0,0,8.9,115.9a15.7,15.7,0,0,0,4.6,16.8l65,57L59.3,274a15.8,15.8,0,0,0,6.2,16.4,15.7,15.7,0,0,0,17.4.7L157,246.8l74.1,44.3a15.7,15.7,0,0,0,17.4-.7,16,16,0,0,0,6.1-16.4l-19.1-84.3,64.9-57A15.7,15.7,0,0,0,305,115.9Z" fill="none" stroke="#fff" stroke-miterlimit="10" stroke-width="10"/>
  </g>
</svg>
