<svg xmlns="http://www.w3.org/2000/svg" xmlns:xlink="http://www.w3.org/1999/xlink" viewBox="0 0 383.4 659"><defs><linearGradient id="linear-gradient" x1="10.01" y1="329.5" x2="373.35" y2="329.5" gradientUnits="userSpaceOnUse"><stop offset="0" stop-color="#b76aff"/><stop offset="1" stop-color="#e9aaff"/></linearGradient><linearGradient id="linear-gradient-2" x1="96.19" y1="315.89" x2="172.65" y2="315.89" gradientUnits="userSpaceOnUse"><stop offset="0" stop-color="#fffa3f"/><stop offset="0.41" stop-color="#ffdc2d"/><stop offset="1" stop-color="#ffb415"/></linearGradient><linearGradient id="linear-gradient-3" x1="876.38" y1="315.89" x2="954.47" y2="315.89" gradientTransform="matrix(-1, 0, 0, 1, 1160.5, 0)" xlink:href="#linear-gradient-2"/></defs><title>glupperson_2</title><g id="Capa_2" data-name="Capa 2"><g id="Layer_1" data-name="Layer 1"><path d="M363.6,358.9a271.3,271.3,0,0,0-21.5-55.5A241.9,241.9,0,0,0,320,268.2a210.3,210.3,0,0,0-28.6-30.3c-1.9-1.7-23.3-19.2-23-19.5a121.1,121.1,0,0,0,8.7-9.4c44.9-50.1,41-120.4-2.1-163.8S167.3-2.1,119.1,35C92,56,76.9,84.1,73.9,118.3s8.2,63.9,30.9,90.1c-.2-.2,5.7,5.6,10,9.6-1.6,1.7-7.7,7.4-7.9,7.5C90.6,236.8,76,250.1,64.5,266.2L48.6,288.7l-1.4,2.4c-5.3,10.4-11.1,20.5-15.7,31.2-8.4,20-15,40.7-17.8,62.3-1.6,12.8-2.7,25.7-3.7,38.5,0,0,1.6,54.1,43,54.1,15.2,0,26-7.3,33.6-16.5V596.6a66.7,66.7,0,0,0,7.5,25.8c6.7,12.1,20.6,26.6,48.6,26.6,20.9,0,37-8.9,46.9-25.9,6.8,12,20.8,25.9,48.3,25.9,22.4,0,39.4-10.2,49-29.4a74.5,74.5,0,0,0,7.5-27.9V460.8c7.9,9.2,19.1,16.4,34.7,16.4,42.5,0,44.2-54.1,44.2-54.1A310.6,310.6,0,0,0,363.6,358.9Z" stroke="#fff" stroke-miterlimit="10" stroke-width="20" fill="url(#linear-gradient)"/><path d="M89.3,110.1A100.4,100.4,0,0,1,102,76.4,100.4,100.4,0,0,0,89.3,110.1Z" fill="none"/><path d="M287.7,91.2a106.3,106.3,0,0,1,5.2,19A106.3,106.3,0,0,0,287.7,91.2Z" fill="none"/><polygon points="24.4 423.1 24.4 423.1 24.4 423.1 24.4 423.1" fill="none"/><path d="M51.9,464.2c22,.5,32.1-24.8,35.4-35.9H24.6C25.5,439.1,30,463.7,51.9,464.2Z" fill="none"/><path d="M88,120.7c.2-2.4.4-4.8.8-7.1C88.4,115.9,88.2,118.3,88,120.7Z" fill="none"/><polygon points="358.8 423.1 358.8 423.1 358.8 423.1 358.8 423.1" fill="none"/><path d="M330.3,464.2c22.5-.5,27.2-25.1,28.2-35.9H293.3C296.9,439.4,307.6,464.7,330.3,464.2Z" fill="none"/><path d="M286.9,428.3l-10.1-7.4.4,9L277,591.2c-.1,2.9-2.5,41.5-39.1,41.5-15.6,0-26.5-5.7-33.1-17.5a48.4,48.4,0,0,1-5.9-19.1V428.3H181.6V596.6a62.8,62.8,0,0,0,7.5,25.8c6.8,12.1,20.7,26.6,48.8,26.6,22.4,0,39.4-10.2,49-29.4a74.5,74.5,0,0,0,7.5-27.9l.2-151.1A19,19,0,0,1,286.9,428.3Z" fill="#9538f9"/><path d="M149.2,169.7c8.4,9.5,19.2,14.5,31.7,15.8,8,.8,7,12.3-1,11.5-15.6-1.7-29.7-8.1-40.2-20C134.4,171,144.3,164,149.2,169.7Z" fill="#9538f9" fill-rule="evenodd"/><path d="M363.6,358.9a271.3,271.3,0,0,0-21.5-55.5A241.9,241.9,0,0,0,320,268.2a210.3,210.3,0,0,0-28.6-30.3c-1.9-1.7-23.3-19.2-23-19.5a121.1,121.1,0,0,0,8.7-9.4c44.9-50.1,41-120.4-2.1-163.8S167.3-2.1,119.1,35C92,56,76.9,84.1,73.9,118.3s8.2,63.9,30.9,90.1c-.2-.2,5.7,5.6,10,9.6-1.6,1.7-7.7,7.4-7.9,7.5C90.6,236.8,76,250.1,64.5,266.2L48.6,288.7l-1.4,2.4c-5.3,10.4-11.1,20.5-15.7,31.2-8.4,20-15,40.7-17.8,62.3-1.6,12.8-2.7,25.7-3.7,38.5,0,0,1.6,54.1,43,54.1s50.3-54,50.4-54.1h0c.5-4.4,1.1-8.9,1.7-13.4,1.5-11.7,3.1-23.5,4.5-35.3s2.7-22.5,4.1-33.8c.1-.4.1-.7.2-1.1s.3-2.2.5-3.3.4-2.7.6-3.8a2.8,2.8,0,0,0-.1-.9,11,11,0,0,0-.2-1.8,6.9,6.9,0,0,0-1.2-2.9,7.9,7.9,0,0,0-1.4-1.7,6.8,6.8,0,0,0-4-1.7c-3-.2-5.9,2.1-7.2,5.2a7.9,7.9,0,0,0-.6,2.2c-2.3,18.3-4.8,36.6-7.1,54.9h0c-.8,6.3-1.5,12.6-2.3,18.9s-1.5,12.3-2.2,18.4h0s-.4,2-1.4,5.2c-3.3,11.1-13.4,36.4-35.4,35.9s-26.4-25.1-27.3-35.9c-.2-3.2-.2-5.2-.2-5.2h0c.2-3.7.5-7.4.7-11.1.1-.6.1-1.2.2-1.8.2-3.7.5-7.4.8-11.1a204,204,0,0,1,7-37.1q1.6-6,3.6-12c.7-2.3,1.5-4.7,2.3-6.9l2.4-6.9a245.7,245.7,0,0,1,19.1-39.3,230.9,230.9,0,0,1,14.2-20.8A172,172,0,0,1,91,257.4a161.1,161.1,0,0,1,40.3-29.5c3.2-1.6,5.1-3.8,5.6-6.1a4.4,4.4,0,0,0,.2-1,6.5,6.5,0,0,0-.5-3.1,9.3,9.3,0,0,0-.5-1,11.1,11.1,0,0,0-3.7-3.8q-34.2-24-42.5-65.3a111.8,111.8,0,0,1-2.1-19.7c0-2.4.1-4.8.2-7.2s.4-4.8.8-7.1.3-2.4.5-3.5A100.4,100.4,0,0,1,102,76.4a34.5,34.5,0,0,1,2-3.2c10.8-17.2,24.9-29.9,42.1-38.1a105.8,105.8,0,0,1,9.8-4,124.4,124.4,0,0,1,15.7-4.3,107.1,107.1,0,0,1,16.7-2H191c2.7,0,5.4,0,8,.2a91.6,91.6,0,0,1,23.3,4.5l5,1.7c2.4,1,4.9,2,7.3,3.2s6.4,3.3,9.6,5.2a107.3,107.3,0,0,1,9.2,6.3,97.7,97.7,0,0,1,23.5,24.3c1.8,2.6,3.4,5.3,4.9,8s1.5,2.8,2.2,4.3a85.9,85.9,0,0,1,3.7,8.8,106.3,106.3,0,0,1,5.2,19,108.2,108.2,0,0,1,1.6,14.7c.1,1.6.1,3.2.1,4.7a89.5,89.5,0,0,1-3,23.2c-.3,1.5-.8,3-1.2,4.5a94.4,94.4,0,0,1-3.2,8.9c-1.1,2.9-2.5,5.9-3.9,8.7s-3.1,5.8-4.9,8.6a85.2,85.2,0,0,1-6.1,8.7c-1.1,1.4-2.2,2.8-3.4,4.1a104.4,104.4,0,0,1-15.4,14.3l-4.4,3.2a10.6,10.6,0,0,0-2.4,2.3,7.5,7.5,0,0,0-1.4,4.6,5.8,5.8,0,0,0,.4,1.8l.3.9,1.1,1.6.8.7a6.2,6.2,0,0,0,1.9,1.2c5,2.6,9.8,5.3,14.4,8.3a161.9,161.9,0,0,1,17.5,13c2.7,2.4,5.4,4.8,8,7.3s5.1,5.1,7.6,7.8,4.8,5.5,7.1,8.3,4.6,5.7,6.7,8.7,2.2,3,3.2,4.6c2.4,3.3,4.6,6.7,6.7,10.2a233.6,233.6,0,0,1,14.1,26.6l2.4,5.5c3.1,7.4,5.9,14.9,8.3,22.6l1.8,5.8c1.6,5.8,3.1,11.7,4.4,17.7.5,2.2,1,4.3,1.4,6.5s.3,1.8.5,2.7.5,2.5.7,3.7l.6,3.6c.1.9.3,1.8.4,2.7l.6,4.2.3,2.1.6,4.6c.1.6.1,1.1.2,1.7s.4,3.3.5,5a4.1,4.1,0,0,1,.1,1.1c.2,1.8.3,3.6.5,5.4v.7c.2,2,.3,3.9.4,5.8h0s0,2-.3,5.2c-1,10.8-5.7,35.4-28.2,35.9s-33.4-24.8-37-35.9c-1-3.2-1.5-5.2-1.5-5.2h0c-.7-6.1-1.5-12.2-2.2-18.4s-1.5-12.6-2.3-18.9h-.1c-2.3-18.3-4.7-36.6-7-54.9a7.9,7.9,0,0,0-.6-2.2c-1.3-3.1-4.2-5.4-7.2-5.2a6.6,6.6,0,0,0-4,1.7,7.9,7.9,0,0,0-1.4,1.7,6.9,6.9,0,0,0-1.2,2.9l-.3,1.8v.9c.2,1.1.4,2.4.6,3.8s.4,2.2.5,3.3a4.1,4.1,0,0,1,.1,1.1c1.4,11.3,2.7,22.5,4.1,33.8s3,23.6,4.6,35.3c.6,4.5,1.1,9,1.7,13.4,0,0,9.5,54.1,52.1,54.1s44.2-54.1,44.2-54.1A310.6,310.6,0,0,0,363.6,358.9Z" fill="#9538f9"/><path d="M181.8,428.2l-.2,163c-.1,2.9-2.5,41.5-38.9,41.5-15.6,0-26.3-5.7-33-17.5a49.3,49.3,0,0,1-5.8-19.1v-173l-13,5.2a24.5,24.5,0,0,1-4.3,6.5V596.6a66.7,66.7,0,0,0,7.5,25.8c6.7,12.1,20.6,26.6,48.6,26.6,22.3,0,39.2-10.2,48.7-29.4a76.8,76.8,0,0,0,7.5-27.9l.2-163.4Z" fill="#9538f9"/><circle cx="190.3" cy="428.3" r="8.7" fill="#9538f9"/><polygon points="120.8 222.5 172.6 252.6 172.6 409.3 96.2 409.3 107 329.5 96.2 243.6 120.8 222.5" stroke="#9538f9" stroke-miterlimit="10" stroke-width="13" fill-rule="evenodd" fill="url(#linear-gradient-2)"/><polygon points="259 222.5 206 252.6 206 409.3 284.1 409.3 273.1 329.5 284.1 243.6 259 222.5" stroke="#9538f9" stroke-miterlimit="10" stroke-width="13.14" fill-rule="evenodd" fill="url(#linear-gradient-3)"/><g id="_G_copia" data-name=" G copia"><path d="M262.7,285H245.1a1.6,1.6,0,0,0-1.7,1.6v6a1.9,1.9,0,0,0,1.7,1.7h5.7a1.5,1.5,0,0,1,1.6,1.7v2.7c0,1-1,1.8-2.5,2.3a14.3,14.3,0,0,1-4.8.7c-7.2,0-12.4-5.3-12.4-12.6v-.2c0-6.9,5.1-12.5,11.7-12.5a15.6,15.6,0,0,1,9.7,3.3,2.4,2.4,0,0,0,2.4-.3l5.3-6.3a2,2,0,0,0-.3-2.4c-4.6-3.5-9.9-5.5-17.2-5.5-14.1,0-24.6,10.4-24.6,23.7h0c0,13.8,10.7,23.6,24.9,23.6a30.9,30.9,0,0,0,16.3-4.5c1.6-1,3.5-4.4,3.5-5.3V286.6A2,2,0,0,0,262.7,285Z" fill="#fff" fill-rule="evenodd"/></g><g id="Forma_25_copia" data-name="Forma 25 copia"><ellipse cx="230.4" cy="274.1" rx="7.2" ry="7.7" fill="#fff"/></g><g id="Forma_24_copia" data-name="Forma 24 copia"><path d="M229.7,274.5a.4.4,0,0,0-.3.4v4a.5.5,0,0,0,.3.3.3.3,0,0,0,.3-.3v-4C230,274.7,229.9,274.5,229.7,274.5Z" fill="#315060" fill-rule="evenodd"/></g><g id="Forma_23_copia_3" data-name="Forma 23 copia 3"><circle cx="229.7" cy="272.4" r="3.1" fill="#0087b2"/></g><g id="Forma_23_copia_4" data-name="Forma 23 copia 4"><path d="M229.8,269.7a2.9,2.9,0,1,0,2.9,2.9A2.9,2.9,0,0,0,229.8,269.7Z" fill="#00a2d6" fill-rule="evenodd"/></g></g></g></svg>