<svg xmlns="http://www.w3.org/2000/svg" xmlns:xlink="http://www.w3.org/1999/xlink" viewBox="0 0 301.7 311"><defs><linearGradient id="linear-gradient" x1="206.04" y1="235.62" x2="246.73" y2="235.62" gradientUnits="userSpaceOnUse"><stop offset="0" stop-color="#08d5f7"/><stop offset="0.27" stop-color="#07d0f4"/><stop offset="0.57" stop-color="#05c2eb"/><stop offset="0.89" stop-color="#02acdc"/><stop offset="1" stop-color="#00a2d6"/></linearGradient><linearGradient id="linear-gradient-2" x1="221.04" y1="270.14" x2="299.16" y2="270.14" gradientUnits="userSpaceOnUse"><stop offset="0" stop-color="#fffa3f"/><stop offset="0.41" stop-color="#ffdc2d"/><stop offset="1" stop-color="#ffb415"/></linearGradient><linearGradient id="linear-gradient-3" x1="58.84" y1="159.92" x2="242.46" y2="159.92" gradientUnits="userSpaceOnUse"><stop offset="0" stop-color="#6fd645"/><stop offset="1" stop-color="#a2eb33"/></linearGradient></defs><title>gluplupa</title><g id="Capa_2" data-name="Capa 2"><g id="Layer_1" data-name="Layer 1"><path d="M146.2,37.2a5.9,5.9,0,0,0,5.9-5.8V5.8A5.9,5.9,0,0,0,146.2,0a5.8,5.8,0,0,0-5.8,5.8V31.4A5.8,5.8,0,0,0,146.2,37.2Z" fill="#6d6d6d"/><path d="M235.6,29.6a5.8,5.8,0,0,0-8.1,1.3l-15,20.6a5.8,5.8,0,1,0,9.4,6.9l15-20.7A5.8,5.8,0,0,0,235.6,29.6Z" fill="#6d6d6d"/><path d="M262.5,121.3l24.3-7.9a5.9,5.9,0,0,0,3.7-7.4,5.8,5.8,0,0,0-7.3-3.7l-24.3,7.9a5.8,5.8,0,1,0,3.6,11.1Z" fill="#6d6d6d"/><path d="M77,244.9a5.9,5.9,0,0,0-8.1,1.3l-15,20.7a5.8,5.8,0,0,0,9.4,6.8l15-20.6A5.9,5.9,0,0,0,77,244.9Z" fill="#6d6d6d"/><path d="M35.6,187.1a5.8,5.8,0,0,0-7.3-3.8L4,191.2a5.9,5.9,0,0,0-3.7,7.4,5.8,5.8,0,0,0,7.3,3.7l24.3-7.9a5.8,5.8,0,0,0,3.7-7.3Z" fill="#6d6d6d"/><path d="M32.4,108.6,8.1,100.7a5.8,5.8,0,0,0-7.3,3.7,5.9,5.9,0,0,0,3.7,7.4l24.3,7.9a5.9,5.9,0,0,0,7.4-3.8A5.8,5.8,0,0,0,32.4,108.6Z" fill="#6d6d6d"/><path d="M70.3,57.4a5.8,5.8,0,1,0,9.4-6.9l-15-20.6a5.8,5.8,0,0,0-9.4,6.8Z" fill="#6d6d6d"/><path d="M245.7,234.4l-18-18c-7,6.3-14,13.8-21.7,19.4l19,19c7.7-5.5,14.8-12.3,21.7-19.3Z" fill="url(#linear-gradient)"/><path d="M282.1,308.4a16.6,16.6,0,0,1-12.1-5l-49-48.9,2.5-1.8c7.5-5.3,14.4-12,21.4-19l1.8-1.8,47.5,47.4a17.1,17.1,0,0,1-12.1,29.1Z" fill="url(#linear-gradient-2)"/><path d="M246.7,235.5l45.6,45.6a14.5,14.5,0,0,1-10.2,24.7,14.8,14.8,0,0,1-10.3-4.2l-46.6-46.7H225c7.7-5.5,14.8-12.3,21.7-19.3m0-7.3-3.6,3.7c-7,6.9-13.8,13.5-21.1,18.7l-4.9,3.5,4.3,4.4h.1l46.7,46.7a19.8,19.8,0,0,0,27.8,0,19.9,19.9,0,0,0,0-27.9l-45.6-45.5-3.7-3.7Z" fill="#fff"/><path d="M225,213.8h0a92.4,92.4,0,1,0-20.5,20.4h0l1.5,1.5c7.7-5.6,14.7-13.1,21.7-19.4Zm-74.3,18.6a72.5,72.5,0,1,1,72.4-72.5A72.6,72.6,0,0,1,150.7,232.4Z" fill="url(#linear-gradient-3)"/><path d="M295.7,277.7l-64.5-64.5a95.2,95.2,0,0,0,16.1-53.3,96.7,96.7,0,1,0-96.6,96.7,95.6,95.6,0,0,0,53.2-16.1l17.8,17.8h.1L268.4,305a19.1,19.1,0,0,0,13.7,5.7,19.3,19.3,0,0,0,13.6-33Zm-83.9-43a92,92,0,0,0,13.6-13.6l13.8,13.7a117.3,117.3,0,0,1-13.7,13.6ZM63.7,159.9a87,87,0,1,1,137.9,70.4h0a85.6,85.6,0,0,1-50.9,16.6A87.1,87.1,0,0,1,63.7,159.9ZM288.9,298.2a9.5,9.5,0,0,1-6.8,2.8,9.9,9.9,0,0,1-6.9-2.8l-42.9-42.9A126.6,126.6,0,0,0,246,241.6l42.9,42.9a9.8,9.8,0,0,1,0,13.7Z" fill="#6d6d6d"/><path d="M228,159.9a77.4,77.4,0,1,0-77.3,77.3A77.4,77.4,0,0,0,228,159.9Zm-77.3,67.7a67.7,67.7,0,1,1,67.6-67.7A67.8,67.8,0,0,1,150.7,227.6Z" fill="#6d6d6d"/><circle cx="150.7" cy="159.9" r="68.1" fill="#8ee2f6" opacity="0.4"/></g></g></svg>