<svg xmlns="http://www.w3.org/2000/svg" xmlns:xlink="http://www.w3.org/1999/xlink" viewBox="0 0 107.65 106.98"><defs><linearGradient id="Degradado_sin_nombre" x1="33.18" y1="314.19" x2="54.23" y2="314.19" gradientTransform="matrix(1, 0, 0, -1, 0, 381.14)" gradientUnits="userSpaceOnUse"><stop offset="0" stop-color="#2c2c2c"/><stop offset="0.86" stop-color="#161616"/><stop offset="1"/></linearGradient><linearGradient id="Degradado_sin_nombre_2" x1="54.09" y1="314.45" x2="76.03" y2="314.45" gradientTransform="matrix(1, 0, 0, -1, 0, 381.14)" gradientUnits="userSpaceOnUse"><stop offset="0"/><stop offset="0.14" stop-color="#161616"/><stop offset="1" stop-color="#2c2c2c"/></linearGradient></defs><title>Glup_cajaRecurso 2</title><g id="Capa_2" data-name="Capa 2"><g id="Capa_1-2" data-name="Capa 1"><g id="Caja"><path d="M2,52.89C2,24.46,26.87,2,53.07,2s52.55,24.54,52.55,53-26.35,50-52.55,50S2,81.31,2,52.89Z" fill="#ee2b78" stroke="#fff" stroke-linecap="round" stroke-linejoin="round" stroke-width="4.06" fill-rule="evenodd"/><path d="M54.09,54.78,47.67,60.5,33.76,51.84l-.58,17.82,21,12.4" fill-rule="evenodd" fill="url(#Degradado_sin_nombre)"/><path d="M54.23,82.06l21.64-12.7L76,51.3l-13.6,9.28-8.34-5.8" fill-rule="evenodd" fill="url(#Degradado_sin_nombre_2)"/><path d="M54.16,55l8.06,5.85,22-14.39-8.41-5.11,7.37-4.13L60.62,23.82l-6.86,4.55-6.61-4.84L25.89,37.29l6.27,3.59-9,5.25,23.68,15.3Z" fill="#f1bd89" fill-rule="evenodd"/><path d="M53.24,28.41,73.61,40.76,53.88,52.66" fill="#cf894e" fill-rule="evenodd"/><path d="M53.88,52.66,34.52,41.31l18.72-12.9" fill="#e49b64" fill-rule="evenodd"/></g></g></g></svg>