<svg id="a61b1f7a-508c-46fa-ad8b-0e88865761da" data-name="Layer 1" xmlns="http://www.w3.org/2000/svg" xmlns:xlink="http://www.w3.org/1999/xlink" viewBox="0 0 169.76451 169.76451">
    <defs>
        <style>.e27a0467-c423-422b-a32e-fed1efdf19af{fill:#05c2ea;}.b97f7aa2-a57d-47e2-81d3-7fb5c946536e{fill:#2d2d2d;opacity:0.3;}.a3738913-f8ed-458a-9cf4-5ff54d2ae159,.a64bdce5-1521-4b5e-9388-5ffdef9eabea,.b029131f-5438-41d6-84aa-c1f3ac224495,.b3929a45-b3f9-4c5f-917a-b2673d512868{fill:#fff;}.a64bdce5-1521-4b5e-9388-5ffdef9eabea,.ff0a1e75-5e33-4475-9166-becd992b252d{stroke:#fff;}.a64bdce5-1521-4b5e-9388-5ffdef9eabea,.addecc4b-ee62-471b-a6ff-ea78c4cf0dbb,.b0191bbc-00b7-45bd-9c27-54597fb0b059,.e1103b27-a7f7-4586-9767-3a799b04726f,.ff0a1e75-5e33-4475-9166-becd992b252d{stroke-miterlimit:10;}.a64bdce5-1521-4b5e-9388-5ffdef9eabea{stroke-width:0.57862px;}.b453278b-68da-43b8-be59-213fee76f0f8{fill:#ee5534;}.e26299a9-24cc-4d16-ba35-5f0c6727f0f8{fill:url(#b9fe362f-5469-49b7-a95c-769f3cf8de8b);}.ff298102-4d39-474c-bc03-5d13d47417f2{fill:url(#a2e009f3-49ec-42e7-8547-f3068e92e9bd);}.b2f7d6de-19fb-430b-9fc0-b51dcde833cd{fill:#9339fb;}.b2f7d6de-19fb-430b-9fc0-b51dcde833cd,.bbc242a2-048b-49d2-a7b8-969ce04ebb1a{opacity:0.35;}.b549eba7-d91f-47ea-a9c7-6dbf098e5fe8,.bbc242a2-048b-49d2-a7b8-969ce04ebb1a{fill:#8d6800;}.b029131f-5438-41d6-84aa-c1f3ac224495{opacity:0.7;}.addecc4b-ee62-471b-a6ff-ea78c4cf0dbb,.aeffb65f-b1c2-4524-9d4f-ac5588f39746,.b0191bbc-00b7-45bd-9c27-54597fb0b059,.bda8a48f-69b9-4a30-ba99-4dcc8c83d091,.e1103b27-a7f7-4586-9767-3a799b04726f,.e2b268d4-656a-4ee8-b7c5-22a54c4ce35f,.ff0a1e75-5e33-4475-9166-becd992b252d{fill:none;}.addecc4b-ee62-471b-a6ff-ea78c4cf0dbb,.e1103b27-a7f7-4586-9767-3a799b04726f,.e2b268d4-656a-4ee8-b7c5-22a54c4ce35f{stroke:#8d6800;}.b0191bbc-00b7-45bd-9c27-54597fb0b059,.bda8a48f-69b9-4a30-ba99-4dcc8c83d091,.e1103b27-a7f7-4586-9767-3a799b04726f,.e2b268d4-656a-4ee8-b7c5-22a54c4ce35f,.ff0a1e75-5e33-4475-9166-becd992b252d{stroke-linecap:round;}.bda8a48f-69b9-4a30-ba99-4dcc8c83d091,.e2b268d4-656a-4ee8-b7c5-22a54c4ce35f{stroke-linejoin:round;}.addecc4b-ee62-471b-a6ff-ea78c4cf0dbb,.b0191bbc-00b7-45bd-9c27-54597fb0b059,.bda8a48f-69b9-4a30-ba99-4dcc8c83d091,.e1103b27-a7f7-4586-9767-3a799b04726f,.e2b268d4-656a-4ee8-b7c5-22a54c4ce35f{stroke-width:1.82827px;}.b0191bbc-00b7-45bd-9c27-54597fb0b059,.bda8a48f-69b9-4a30-ba99-4dcc8c83d091{stroke:#9339fb;}.e7e35108-58b2-4c69-876b-740fe6aacef6{fill:url(#a290e533-c366-4cd4-bfb8-78d41b4e6273);}.ff0a1e75-5e33-4475-9166-becd992b252d{stroke-width:4.1789px;opacity:0.5;}.b3929a45-b3f9-4c5f-917a-b2673d512868,.bbbe4b96-5dfd-46bc-9b1c-bcfea7053de6,.fd3e9f2d-1b13-4fe9-964b-851692fb4f88{fill-rule:evenodd;}.fd3e9f2d-1b13-4fe9-964b-851692fb4f88{fill:#315060;}.bbbe4b96-5dfd-46bc-9b1c-bcfea7053de6{fill:#0087b2;}.be7dfecb-c85f-49ae-acb4-53fcb43ca1a9{fill:#00a2d6;}</style>
        <radialGradient id="b9fe362f-5469-49b7-a95c-769f3cf8de8b" cx="566.20457" cy="634.70103" r="0" gradientUnits="userSpaceOnUse">
            <stop offset="0" stop-color="#fef43d" />
            <stop offset="0.25424" stop-color="#fee937" />
            <stop offset="0.69719" stop-color="#ffcc26" />
            <stop offset="1" stop-color="#ffb518" />
        </radialGradient>
        <radialGradient id="a2e009f3-49ec-42e7-8547-f3068e92e9bd" cx="540.81499" cy="561.87335" r="79.42595">
            <stop offset="0" stop-color="#fef43d" />
            <stop offset="0.25424" stop-color="#fee937" />
            <stop offset="0.69719" stop-color="#ffcc26" />
            <stop offset="1" stop-color="#ffb518" />
        </radialGradient>

        <radialGradient id="a290e533-c366-4cd4-bfb8-78d41b4e6273" cx="541.97686" cy="528.85651" r="68.1847">
            <stop offset="0" stop-color="#fef43d" />
            <stop offset="0.25424" stop-color="#fee937" />
            <stop offset="0.69719" stop-color="#ffcc26" />
            <stop offset="1" stop-color="#ffb518" />
        </radialGradient>
    </defs>
    <path class="e27a0467-c423-422b-a32e-fed1efdf19af" d="M1080,0" transform="translate(-457.50072 -509.6361)" />
    <path class="e27a0467-c423-422b-a32e-fed1efdf19af" d="M0,0" transform="translate(-457.50072 -509.6361)" />
    <circle class="b97f7aa2-a57d-47e2-81d3-7fb5c946536e" cx="84.88225" cy="84.88226" r="84.59295" />
    <circle class="a64bdce5-1521-4b5e-9388-5ffdef9eabea" cx="84.88226" cy="84.88226" r="84.59295" />
    <circle class="b453278b-68da-43b8-be59-213fee76f0f8" cx="84.88225" cy="84.88226" r="77.80213" />
    <polygon class="a3738913-f8ed-458a-9cf4-5ff54d2ae159" points="125.985 67.422 127.667 72.774 133.018 74.455 127.667 76.136 125.985 81.488 124.304 76.136 118.952 74.455 124.304 72.774 125.985 67.422" />
    <polygon class="a3738913-f8ed-458a-9cf4-5ff54d2ae159" points="41.462 68.699 43.143 74.05 48.495 75.732 43.143 77.413 41.462 82.765 39.781 77.413 34.429 75.732 39.781 74.05 41.462 68.699" />
    <polygon class="a3738913-f8ed-458a-9cf4-5ff54d2ae159" points="36.846 53.58 37.945 57.078 41.443 58.177 37.945 59.277 36.846 62.775 35.746 59.277 32.248 58.177 35.746 57.078 36.846 53.58" />
    <path class="e26299a9-24cc-4d16-ba35-5f0c6727f0f8" d="M566.20457,634.701" transform="translate(-457.50072 -509.6361)" />
    <path class="ff298102-4d39-474c-bc03-5d13d47417f2" d="M518.30749,633.83542c-1.07664-10.67431-.54581-.41763-.80326-1.59773-.84728-3.88373.426.56494-2.49,1.22373-6.07724,1.373-10.80033-1.75273-10.16079-11.531a53.88809,53.88809,0,0,1,3.08446-13.61026c9.01677-26.3059,34.03866-22.76266,34.03866-22.76266s25.02188-3.54324,34.03865,22.76266c9.47844,27.65911-2.91046,30.75-14.83858,21.1504-.69092-.55591,8.73933-6.68545,5.31644,4.36489" transform="translate(-457.50072 -509.6361)" />
    <path class="b2f7d6de-19fb-430b-9fc0-b51dcde833cd" d="M578.61351,623.18534" transform="translate(-457.50072 -509.6361)" />
    <path class="bbc242a2-048b-49d2-a7b8-969ce04ebb1a" d="M518.89885,609.58331c-2.05727,8.74266,1.43993-12.95469,1.43993-12.95469a74.9601,74.9601,0,0,0-6.43693,25.01054,4.50182,4.50182,0,0,1-8.58038,1.54618,9.457,9.457,0,0,1-.47709-1.255c-.94641,14.47012,12.9579,11.42339,11.96517,11.00258" transform="translate(-457.50072 -509.6361)" />
    <path class="b029131f-5438-41d6-84aa-c1f3ac224495" d="M576.00624,608.32134c-9.01605-26.30737-34.03875-22.763-34.03875-22.763s-25.0227-3.54441-34.03874,22.763c-4.63158,13.51418-3.68779,20.95612-.12124,23.91635-2.58267-3.40816-2.88792-10.424,1.13-22.14772,8.74884-25.52769,33.02994-22.08832,33.02994-22.08832s24.28111-3.43937,33.02994,22.08832c4.018,11.72372,3.71271,18.73956,1.13,22.14772C579.694,629.27746,580.63781,621.83552,576.00624,608.32134Z" transform="translate(-457.50072 -509.6361)" />
    <path class="e2b268d4-656a-4ee8-b7c5-22a54c4ce35f" d="M566.71564,632.78627c9.43083,3.584,16.91713-2.212,9.2906-24.46493-9.01605-26.30737-34.03875-22.763-34.03875-22.763s-25.0227-3.54441-34.03874,22.763c-6.86727,20.03756-1.40151,26.82905,6.61049,25.32987,3.047-.57015,50.84672,1.32127,53.25228.03994" transform="translate(-457.50072 -509.6361)" />
    <line class="b2f7d6de-19fb-430b-9fc0-b51dcde833cd" x1="59.43155" y1="120.32485" x2="59.43155" y2="122.60882" />
    <path class="aeffb65f-b1c2-4524-9d4f-ac5588f39746" d="M530.08321,638.672" transform="translate(-457.50072 -509.6361)" />
    <path class="aeffb65f-b1c2-4524-9d4f-ac5588f39746" d="M538.90215,642.34868" transform="translate(-457.50072 -509.6361)" />
    <path class="aeffb65f-b1c2-4524-9d4f-ac5588f39746" d="M551.82059,661.912" transform="translate(-457.50072 -509.6361)" />
    <path class="e2b268d4-656a-4ee8-b7c5-22a54c4ce35f" d="M566.41918,629.69129" transform="translate(-457.50072 -509.6361)" />
    <path class="e2b268d4-656a-4ee8-b7c5-22a54c4ce35f" d="M550.41531,671.18816" transform="translate(-457.50072 -509.6361)" />
    <path class="e2b268d4-656a-4ee8-b7c5-22a54c4ce35f" d="M545.03284,663.91173" transform="translate(-457.50072 -509.6361)" />
    <path class="e2b268d4-656a-4ee8-b7c5-22a54c4ce35f" d="M538.90214,642.34867" transform="translate(-457.50072 -509.6361)" />
    <path class="e2b268d4-656a-4ee8-b7c5-22a54c4ce35f" d="M517.65611,629.85018" transform="translate(-457.50072 -509.6361)" />
    <path class="e2b268d4-656a-4ee8-b7c5-22a54c4ce35f" d="M565.03614,605.09888s2.01261,6.04927,1.60123,28.88081" transform="translate(-457.50072 -509.6361)" />
    <path class="bda8a48f-69b9-4a30-ba99-4dcc8c83d091" d="M518.89885,605.09888" transform="translate(-457.50072 -509.6361)" />
    <path class="bda8a48f-69b9-4a30-ba99-4dcc8c83d091" d="M517.27,644.317" transform="translate(-457.50072 -509.6361)" />
    <path class="b549eba7-d91f-47ea-a9c7-6dbf098e5fe8" d="M564.13138,605.2296l-.67785-7.79163a.14886.14886,0,0,1,.28552-.07061,28.35385,28.35385,0,0,1,1.25977,3.75817c.33868,1.27448.68426,2.54279.94207,3.84266a.91562.91562,0,1,1-1.79467.36413A1.033,1.033,0,0,1,564.13138,605.2296Z" transform="translate(-457.50072 -509.6361)" />
    <path class="b2f7d6de-19fb-430b-9fc0-b51dcde833cd" d="M541.96749,591.43482a33.32986,33.32986,0,0,1-33.22734-30.73058q-.09906,1.28547-.10006,2.59683a33.3274,33.3274,0,1,0,66.65481,0q0-1.31087-.10007-2.59683A33.32985,33.32985,0,0,1,541.96749,591.43482Z" transform="translate(-457.50072 -509.6361)" />
    <path class="b0191bbc-00b7-45bd-9c27-54597fb0b059" d="M526.60334,579.53016a12.893,12.893,0,0,0,8.97444,4.96762" transform="translate(-457.50072 -509.6361)" />
    <path class="aeffb65f-b1c2-4524-9d4f-ac5588f39746" d="M549.66085,611.4924" transform="translate(-457.50072 -509.6361)" />
    <path class="aeffb65f-b1c2-4524-9d4f-ac5588f39746" d="M542.77025,610.20684" transform="translate(-457.50072 -509.6361)" />
    <path class="aeffb65f-b1c2-4524-9d4f-ac5588f39746" d="M549.66085,607.19006" transform="translate(-457.50072 -509.6361)" />
    <path class="aeffb65f-b1c2-4524-9d4f-ac5588f39746" d="M542.77025,608.47562" transform="translate(-457.50072 -509.6361)" />
    <path class="bbc242a2-048b-49d2-a7b8-969ce04ebb1a" d="M565.03625,610.06883c2.05726,8.74265-1.43994-12.9547-1.43994-12.9547a74.96027,74.96027,0,0,1,6.43694,25.01055,4.50181,4.50181,0,0,0,8.58037,1.54618,9.457,9.457,0,0,0,.47709-1.25495c.94641,14.47012-8.10369,13.11345-11.43287,11.1834" transform="translate(-457.50072 -509.6361)" />
    <path class="e7e35108-58b2-4c69-876b-740fe6aacef6" d="M575.30284,563.29961c0,.97525-.04329,1.94184-.127,2.894a33.32455,33.32455,0,0,1-66.39805,0c-.08366-.95219-.127-1.91878-.127-2.894a33.326,33.326,0,1,1,66.652,0Z" transform="translate(-457.50072 -509.6361)" />
    <path class="bbc242a2-048b-49d2-a7b8-969ce04ebb1a" d="M541.97686,591.4348a33.32985,33.32985,0,0,1-33.22734-30.73058q-.09906,1.28547-.10007,2.59683a33.32741,33.32741,0,1,0,66.65481,0q0-1.31085-.10006-2.59683A33.32986,33.32986,0,0,1,541.97686,591.4348Z" transform="translate(-457.50072 -509.6361)" />
    <path class="b029131f-5438-41d6-84aa-c1f3ac224495" d="M574.8383,557.73387a33.326,33.326,0,0,0-66.18742,5.56586c0,.97526.04329,1.94185.127,2.894a33.17369,33.17369,0,0,0,7.86471,18.75791,32.06252,32.06252,0,0,1-6.76919-17.12214c-.0809-.92077-.12276-1.85546-.12276-2.79854a32.19611,32.19611,0,0,1,15.87371-27.77454,2.006,2.006,0,0,1,1.81058-.114c1.33843.57418,3.7439.53261,6.316-.22155,2.56762-.75282,4.6117-2.01359,5.431-3.21765a2.00224,2.00224,0,0,1,1.57939-.87519q.605-.02305,1.21562-.02333A32.20434,32.20434,0,0,1,574.20313,565.031c0,.94308-.04187,1.87777-.12277,2.79854a32.06243,32.06243,0,0,1-6.76918,17.12214,33.17368,33.17368,0,0,0,7.8647-18.75791c.08367-.95218.127-1.91877.127-2.894A33.38476,33.38476,0,0,0,574.8383,557.73387Z" transform="translate(-457.50072 -509.6361)" />
    <path class="e1103b27-a7f7-4586-9767-3a799b04726f" d="M544.8826,582.983a13.9415,13.9415,0,0,1,9.94441-2.51524" transform="translate(-457.50072 -509.6361)" />
    <path class="ff0a1e75-5e33-4475-9166-becd992b252d" d="M547.59562,538.91175a24.99378,24.99378,0,0,0-3.82435-.57" transform="translate(-457.50072 -509.6361)" />
    <path class="ff0a1e75-5e33-4475-9166-becd992b252d" d="M565.82992,555.7182a25.09007,25.09007,0,0,0-11.02925-13.90839" transform="translate(-457.50072 -509.6361)" />
    <circle class="addecc4b-ee62-471b-a6ff-ea78c4cf0dbb" cx="84.55526" cy="53.58204" r="33.3714" />
    <path class="b549eba7-d91f-47ea-a9c7-6dbf098e5fe8" d="M517.99412,604.19414c.25775-1.29987.60333-2.56818.94207-3.84265a28.34451,28.34451,0,0,1,1.25971-3.75818.14886.14886,0,0,1,.28552.07062l-.67786,7.79162a.91558.91558,0,1,1-1.82428-.15869A1.007,1.007,0,0,1,517.99412,604.19414Z" transform="translate(-457.50072 -509.6361)" />
    <path class="e2b268d4-656a-4ee8-b7c5-22a54c4ce35f" d="M518.9303,605.00175s-2.04407,5.56933-1.63269,28.40086" transform="translate(-457.50072 -509.6361)" />
    <line class="b2f7d6de-19fb-430b-9fc0-b51dcde833cd" x1="91.91474" y1="123.11637" x2="91.91474" y2="125.40035" />
    <path class="e2b268d4-656a-4ee8-b7c5-22a54c4ce35f" d="M500.87943,634.43689" transform="translate(-457.50072 -509.6361)" />
    <path class="e2b268d4-656a-4ee8-b7c5-22a54c4ce35f" d="M550.11143,632.80021" transform="translate(-457.50072 -509.6361)" />
    <path class="aeffb65f-b1c2-4524-9d4f-ac5588f39746" d="M578.26037,616.6541" transform="translate(-457.50072 -509.6361)" />
    <path class="aeffb65f-b1c2-4524-9d4f-ac5588f39746" d="M572.19992,615.52342" transform="translate(-457.50072 -509.6361)" />
    <path class="aeffb65f-b1c2-4524-9d4f-ac5588f39746" d="M578.26037,612.87009" transform="translate(-457.50072 -509.6361)" />
    <path class="aeffb65f-b1c2-4524-9d4f-ac5588f39746" d="M572.19992,614.00077" transform="translate(-457.50072 -509.6361)" />
    <g id="eda22c3b-c97b-4fbd-82b7-6510890100f2" data-name=" G copia">
        <path class="b3929a45-b3f9-4c5f-917a-b2673d512868" d="M558.48578,609.65894h-5.95746a.51394.51394,0,0,0-.57513.52172v1.96143a.62566.62566,0,0,0,.59259.56213h1.9046a.5098.5098,0,0,1,.54816.57013v.8974c0,.35041-.33082.632-.84638.80182a5.09005,5.09005,0,0,1-1.60065.22968,4.04647,4.04647,0,0,1-4.15118-4.25269v-.03168a3.98613,3.98613,0,0,1,3.88061-4.16223,5.14884,5.14884,0,0,1,3.21747,1.079.81155.81155,0,0,0,.80994-.0852c.47058-.56549,1.28534-1.54462,1.75207-2.10547a.63989.63989,0,0,0-.09039-.79273,8.86228,8.86228,0,0,0-5.71075-1.846,7.87825,7.87825,0,0,0-8.1731,7.89093v.09948c0,4.63373,3.56287,7.9123,8.32788,7.9123a10.37471,10.37471,0,0,0,5.46253-1.51807,3.38287,3.38287,0,0,0,1.18231-1.77368v-5.43292A.65859.65859,0,0,0,558.48578,609.65894Z" transform="translate(-457.50072 -509.6361)" />
    </g>
    <g id="f8e542c0-d7ff-420d-885a-a7c56b0a76b0" data-name="Forma 25 copia">
        <path class="b3929a45-b3f9-4c5f-917a-b2673d512868" d="M547.69,603.38873a2.60445,2.60445,0,1,0,2.41187,2.59735A2.50976,2.50976,0,0,0,547.69,603.38873Z" transform="translate(-457.50072 -509.6361)" />
    </g>
    <g id="b8de2abf-b10b-4ad0-aea4-c473b421c495" data-name="Forma 24 copia">
        <path class="fd3e9f2d-1b13-4fe9-964b-851692fb4f88" d="M547.45416,606.109a.07672.07672,0,0,0-.06891.11511v1.34528a.07673.07673,0,0,0,.06891.11511c.05451,0,.0987-.05152.18488-.11511v-1.34528C547.55286,606.16046,547.50867,606.109,547.45416,606.109Z" transform="translate(-457.50072 -509.6361)" />
    </g>
    <g id="ea07992a-d130-41d9-a275-fec2ab180275" data-name="Forma 23 copia 3">
        <path class="bbbe4b96-5dfd-46bc-9b1c-bcfea7053de6" d="M547.4566,604.32922a1.05314,1.05314,0,1,0,1.05317,1.0531A1.05313,1.05313,0,0,0,547.4566,604.32922Z" transform="translate(-457.50072 -509.6361)" />
    </g>
    <g id="ec41c038-656c-4831-89f0-c885e8b0b85c" data-name="Forma 23 copia 4">
        <circle class="be7dfecb-c85f-49ae-acb4-53fcb43ca1a9" cx="89.96357" cy="95.82044" r="0.97894" />
    </g>
</svg>