<svg xmlns="http://www.w3.org/2000/svg" xmlns:xlink="http://www.w3.org/1999/xlink" viewBox="35 35 250 250">
	<defs>
		<linearGradient id="linear-gradient" x1="46.23" y1="158.87" x2="270.93" y2="158.87" gradientUnits="userSpaceOnUse">
			<stop offset="0" stop-color="#ff5baf" />
			<stop offset="0.22" stop-color="#ff60af" />
			<stop offset="0.5" stop-color="#ff70b0" />
			<stop offset="0.8" stop-color="#ff89b1" />
			<stop offset="1" stop-color="#ff9eb2" />
		</linearGradient>
		<linearGradient id="linear-gradient-2" x1="84.36" y1="164.7" x2="236.96" y2="164.7" gradientUnits="userSpaceOnUse">
			<stop offset="0" stop-color="#edba84" />
			<stop offset="1" stop-color="#e89660" />
		</linearGradient>
		<linearGradient id="linear-gradient-3" x1="163.52" y1="196.07" x2="212.51" y2="196.07">
			<stop offset="0" stop-color="#edba84" />
			<stop offset="1" stop-color="#e89660" />
		</linearGradient>
		<linearGradient id="linear-gradient-4" x1="108.5" y1="196.01" x2="157.37" y2="196.01">
			<stop offset="0" stop-color="#edba84" />
			<stop offset="1" stop-color="#e89660" />
		</linearGradient>
		<linearGradient id="linear-gradient-5" x1="117.33" y1="141.35" x2="203.83" y2="141.35">
			<stop offset="0" stop-color="#edba84" />
			<stop offset="1" stop-color="#e89660" />
		</linearGradient>
	</defs>
	<title>
		gluppaquete
	</title>
	<g id="Capa_2" data-name="Capa 2">
		<g id="Layer_1" data-name="Layer 1">
			<circle cx="158.6" cy="158.9" r="122.2" fill="#fff" stroke="#fff" stroke-miterlimit="10" stroke-width="2.2" />
			<circle cx="158.6" cy="158.9" r="112.3" fill="url(#linear-gradient)" />
			<path d="M237,163.5l-10.5-17.1a27.5,27.5,0,0,0-2.6-4c-1.2-1.4-1.3-2.3-.3-3.7a1.8,1.8,0,0,0,.5-.7l5.3-8.5,9.2-15a3.3,3.3,0,0,0-2.1-5l-6.1-1.6-17.6-4.8L199,99.3l-19.8-5.5c-2.2-.6-4.4-.6-5.5,1.1-3.9,6.3-11.9,20.3-12.7,21.5L147.6,94.6c-.8-1.2-2.7-1.3-4.1-.9L133,96.4l-13.3,3.7-8.6,2.4-15,4.1-10.8,2.9c-2.3.6-3.6,2.7-2.1,5.1L98.1,139a.9.9,0,0,1,0,1l-5.7,9.3-9.8,16c-1.4,2.2-.2,6.3,2,6.9l12.2,3.3c.8.2,1.8.2,2,1.2a12.9,12.9,0,0,1,0,3.4v36.7a3.2,3.2,0,0,0,2.6,3.2l10,2.6,16.9,4.7,17.6,4.7c4.2,1.2,8.5,2.5,12.8,3.6a5.7,5.7,0,0,0,2.6.1l7.8-2,12.8-3.6,16.9-4.5,6.9-1.9,12.8-3.6c3-.8,3.5-1.4,3.5-4.5V185.8c0-2-.1-4-.2-6s-.5-4.1.8-4.3l13.8-3.7c2.1-.5,2.7-3.7,2-5.7A10.8,10.8,0,0,0,237,163.5Z" fill="#fff" />
			<path d="M160.4,234a7.6,7.6,0,0,1-2.1-.3l-6.9-1.9-5.2-1.5-8.5-2.2-8.1-2.2-8.1-2.3-7.8-2.1-6.1-1.7-3.3-.8a5.2,5.2,0,0,1-4.1-5.2V175.3L93,173.4l-4.4-1.2a5.7,5.7,0,0,1-3.9-3.3,5.4,5.4,0,0,1,.5-4.8l6.2-10,3.1-5.1c.6-1,1.3-2,1.9-3.1l3.1-5L92,128.8c-2.1-3.4-4.2-6.8-6.2-10.2a5.4,5.4,0,0,1-.6-4.9,5.8,5.8,0,0,1,3.9-3.2l7.4-2,6.5-1.8,10.4-2.8,4.2-1.2,3.9-1.1,12.6-3.4.8-.2,9.1-2.4,1.3-.2a4.8,4.8,0,0,1,4.2,2.5l8.6,13.9,2.8,4.5,4.7-7.6,6.5-10.6a5.2,5.2,0,0,1,4.6-2.7l2.1.3,9,2.5,9.6,2.7,12.7,3.5h.4l16.6,4.5,5.7,1.5a5.7,5.7,0,0,1,3.8,3.3,5.5,5.5,0,0,1-.5,4.8l-5.7,9.2-3,4.8c-1.2,2.1-2.5,4.2-3.8,6.3l-1.2,1.8a4.1,4.1,0,0,1-.5.9l-.2.2.4.4a27,27,0,0,1,2,3.1l.6,1,9.9,16.1.4.5a13.4,13.4,0,0,1,1.2,2.4,5.1,5.1,0,0,1-.3,4.2,5.5,5.5,0,0,1-3.7,2.7l-6.1,1.6-1.8.5-1.4.4-2.2.6c.1,10.8.1,21.5.1,32.3v5.1c0,3.9-1.2,5.3-4.9,6.4h-.3l-11.8,3.3-5.3,1.4-1.2.4-8.6,2.3-7.4,2c-2.2.5-4.3,1.2-6.5,1.8l-5.5,1.5-.7.2-6.8,1.8Z" fill="url(#linear-gradient-2)" />
			<path d="M176.7,97.6l1.5.3,18.7,5.1,13,3.6,16.6,4.5,5.7,1.5a3.1,3.1,0,0,1,2,4.8l-8.6,14.1c-1.7,2.7-3.4,5.4-5,8.1l-.5.6c-1,1.3-.8,2.1.3,3.4s1.6,2.5,2.4,3.8l9.9,16.1a12.3,12.3,0,0,1,1.4,2.5c.6,1.9-.4,3.5-2.4,4.1s-5.4,1.4-8,2.1l-4.1,1.1c-.9.2-1.1.6-1.1,1.5.1,12.6.1,25.3.1,37.9,0,2.9-.5,3.5-3.3,4.3l-12.1,3.4-6.5,1.7-16,4.3-12,3.4-7.4,1.9h-.9l-1.5-.2-12.1-3.4-16.6-4.5-15.9-4.4-9.4-2.5a2.9,2.9,0,0,1-2.5-3v-39c0-.9-.2-1.3-1-1.5-4.1-1-8.2-2.2-12.2-3.3a3.1,3.1,0,0,1-2.1-4.8l9.3-15.1,5.4-8.7a1.7,1.7,0,0,0,0-1l-14.2-23c-1.3-2.2-.1-4.2,2.1-4.8l10.1-2.7L114,106l8.1-2.2,12.6-3.5,9.9-2.6h.7a2.8,2.8,0,0,1,2.4,1.4c4.1,6.7,8.2,13.5,12.4,20.2.2.4.5.7.8,1.3.7-1.2,1.4-2.2,2.1-3.3,3.6-6,7.3-11.9,11-17.9a2.9,2.9,0,0,1,2.7-1.7m0-4.4a7.2,7.2,0,0,0-6.5,3.8l-6.5,10.6-2.8,4.5-.9-1.6-8.6-13.8a7.2,7.2,0,0,0-6.1-3.5l-1.8.2-9.2,2.4-.8.3-12.6,3.4-3.9,1.1-4.1,1.2-10.7,2.9-3.5.9-2.8.8-7.3,1.9a7.9,7.9,0,0,0-5.4,4.6,7.5,7.5,0,0,0,.7,6.8l6.2,10.2,6.8,11-2.4,3.9-1.9,3c-1,1.7-2,3.4-3.1,5.1l-6.1,10a7.2,7.2,0,0,0-.7,6.8,7.7,7.7,0,0,0,5.3,4.6l4.5,1.2L98,177v36.8a7.3,7.3,0,0,0,5.8,7.3l3.3.9,6,1.6,7.8,2.1L129,228l8.2,2.2,8.4,2.3,5.2,1.4,6.9,2,2.7.3,1.9-.2,6.9-1.8.7-.2,5.5-1.5,6.5-1.8,7.3-2,8.6-2.3,1.2-.3,5.4-1.5,11.9-3.3h.2c4.7-1.3,6.5-3.6,6.5-8.5V177l.6-.2,1.2-.4,1.9-.5,6.1-1.6a7.7,7.7,0,0,0,5-3.7,7.3,7.3,0,0,0,.5-6,13,13,0,0,0-1.5-2.9l-.3-.5-9.9-16.1-.6-.9a16.5,16.5,0,0,0-1.5-2.5l1-1.8,3.8-6.1,3-4.9,5.7-9.2a7.4,7.4,0,0,0-4.7-11.3l-5.6-1.5-16.6-4.5-.5-.2L198,98.8l-9.6-2.7-9-2.5a9.3,9.3,0,0,0-2.7-.4Z" fill="#fff" />
			<path d="M102.4,190.3V174.8c0-.9-.2-1.3-1-1.5-4.1-1-8.2-2.2-12.2-3.3a3.1,3.1,0,0,1-2.1-4.8l9.3-15.1,5.4-8.7a1.7,1.7,0,0,0,0-1l-14.2-23c-1.3-2.2-.1-4.2,2.1-4.8l10.1-2.7L114,106l8.1-2.2,12.6-3.5,9.9-2.6a2.8,2.8,0,0,1,3.1,1.3c4.1,6.7,8.2,13.5,12.4,20.2.2.4.5.7.8,1.3.7-1.2,1.4-2.2,2.1-3.3,3.6-6,7.3-11.9,11-17.9,1-1.6,2.2-2,4.2-1.4l18.7,5.1,13,3.6,16.6,4.5,5.7,1.5a3.1,3.1,0,0,1,2,4.8l-8.6,14.1c-1.7,2.7-3.4,5.4-5,8.1l-.5.6c-1,1.3-.8,2.1.3,3.4s1.6,2.5,2.4,3.8l9.9,16.1a12.3,12.3,0,0,1,1.4,2.5c.6,1.9-.4,3.5-2.4,4.1s-5.4,1.4-8,2.1l-4.1,1.1c-.9.2-1.1.6-1.1,1.5.1,12.6.1,25.3.1,37.9,0,2.9-.5,3.5-3.3,4.3l-12.1,3.4-6.5,1.7-16,4.3-12,3.4-7.4,1.9a4.9,4.9,0,0,1-2.4-.1l-12.1-3.4-16.6-4.5-15.9-4.4-9.4-2.5a2.9,2.9,0,0,1-2.5-3V190.3Zm110.1-15-5.5,1.4-10.5,2.9-18.6,5.2c-1.9.5-3.4.2-4.2-1.2-2.4-3.8-4.8-7.7-7.1-11.6l-3-4.8a3.9,3.9,0,0,0-.1.9v56c0,.2.1.5.1.8l48.9-13.4Zm-55.1,49.6V167.1c-1.2,1.8-2.2,3.5-3.2,5.2-2.3,3.7-4.6,7.5-7,11.2a2.8,2.8,0,0,1-3.2,1.4l-3-.7-17.4-4.7-12.1-3.4-3-.8v36.3Zm-35-115-9.2,2.6-9.1,2.5-9.3,2.5.4.9c3.9,6.2,7.7,12.4,11.5,18.6a.8.8,0,0,0,1.2.5l16.1-4.4,19-5.1,13.1-3.7a3,3,0,0,0-.4-.8l-11.5-18.7c-.4-.6-.6-.7-1.2-.5S125.4,109.2,122.4,109.9Zm42.8,48.3a3.6,3.6,0,0,1,.3.7c3.8,6.2,7.7,12.4,11.4,18.6.6,1,1.2,1,2.2.7l5.5-1.6,14.3-3.8,13.1-3.6,7.8-2.1,6.7-1.9a6.4,6.4,0,0,0-.2-.7l-6.7-10.9-2.6-4.1c-.6-.9-1.1-1.8-1.6-2.7s-1.3-2-3.7-1.3l-13.1,3.6-9.3,2.6-16.8,4.5Zm61.9-40.7-1.3-.4-9.8-2.7-14-3.8c-2.5-.7-5-1.5-7.6-2.1l-9.8-2.6-5.9-1.6c-.5-.2-.7,0-1,.4-3.1,5.1-6.2,10.2-9.4,15.2-.9,1.5-1.8,2.9-2.7,4.5l1.2.3,14.4,3.9,17.5,4.9,15,4.1c.8.2,1.1,0,1.5-.7,3-5,6.1-10,9.2-15Zm-71.4,40.8-1.1-.4L138,153.4l-15.2-4.1-15.2-4.2c-.8-.2-1.1-.1-1.4.5-3.3,5.4-6.6,10.8-10,16.2l-2,3.4,12.6,3.4,15.1,4.1,15.1,4.2,5.5,1.5c.5.1.8.1,1.1-.5l6.2-10Zm-38.4-16.8,12.4,3.4,16.6,4.5,12.1,3.4a5.5,5.5,0,0,0,2.5.3c2.8-.6,5.5-1.4,8.3-2.2l9.8-2.7,13.9-3.8,10.5-2.8.4-.4-3.7-1-9.6-2.7-16-4.3-12.1-3.4a5.2,5.2,0,0,0-2.1-.2l-15,4-14.4,3.9-13,3.6C117.7,141.1,117.6,141.3,117.3,141.5Z" fill="#9b5221" />
			<path d="M212.5,175.3v36.2l-48.9,13.4c0-.3-.1-.6-.1-.8v-56a3.9,3.9,0,0,1,.1-.9l3,4.8c2.3,3.9,4.7,7.8,7.1,11.6.8,1.4,2.3,1.7,4.2,1.2l18.6-5.2,10.5-2.9Z" fill="url(#linear-gradient-3)" />
			<path d="M157.4,224.9l-48.9-13.3V175.3l3,.8,12.1,3.4,17.4,4.7,3,.7a2.8,2.8,0,0,0,3.2-1.4c2.4-3.7,4.7-7.5,7-11.2,1-1.7,2-3.4,3.2-5.2Z" fill="url(#linear-gradient-4)" />
			<path d="M143,104.3c.6-.2.8-.1,1.2.5l11.5,18.7a3,3,0,0,1,.4.8L143,128l-19,5.1-16.1,4.4a.8.8,0,0,1-1.2-.5c-3.8-6.2-7.6-12.4-11.5-18.6l-.4-.9,9.3-2.5,9.1-2.5,9.2-2.6C125.4,109.2,141.4,104.7,143,104.3Z" fill="#edb881" />
			<path d="M165.2,158.2l7.3-2,16.8-4.5,9.3-2.6,13.1-3.6c2.4-.7,2.4-.7,3.7,1.3s1,1.8,1.6,2.7l2.6,4.1,6.7,10.9a6.4,6.4,0,0,1,.2.7l-6.7,1.9-7.8,2.1-13.1,3.6-14.3,3.8-5.5,1.6c-1,.3-1.6.3-2.2-.7-3.7-6.2-7.6-12.4-11.4-18.6A3.6,3.6,0,0,0,165.2,158.2Z" fill="#edb881" />
			<path d="M227.1,117.5l-2.7,4.4c-3.1,5-6.2,10-9.2,15-.4.7-.7.9-1.5.7l-15-4.1-17.5-4.9-14.4-3.9-1.2-.3c.9-1.6,1.8-3,2.7-4.5,3.2-5,6.3-10.1,9.4-15.2.3-.4.5-.6,1-.4l5.9,1.6,9.8,2.6c2.6.6,5.1,1.4,7.6,2.1l14,3.8,9.8,2.7Z" fill="#edb881" />
			<path d="M155.7,158.3l-5.9,9.6-6.2,10c-.3.6-.6.6-1.1.5l-5.5-1.5-15.1-4.2-15.1-4.1-12.6-3.4,2-3.4c3.4-5.4,6.7-10.8,10-16.2.3-.6.6-.7,1.4-.5l15.2,4.2,15.2,4.1,16.6,4.5Z" fill="#edb881" />
			<path d="M117.3,141.5c.3-.2.4-.4.6-.4l13-3.6,14.4-3.9,15-4a5.2,5.2,0,0,1,2.1.2l12.1,3.4,16,4.3,9.6,2.7,3.7,1-.4.4-10.5,2.8L179,148.2l-9.8,2.7c-2.8.8-5.5,1.6-8.3,2.2a5.5,5.5,0,0,1-2.5-.3l-12.1-3.4-16.6-4.5Z" fill="url(#linear-gradient-5)" />
			<polygon points="111.4 211.9 111.4 186.9 117 193.4 124.6 188.1 123.9 214.3 123.9 215.2 111.4 211.9" fill="#fc5e8f" stroke="#fc5e8f" stroke-linecap="round" stroke-linejoin="round" stroke-width="1.15" />
			<path d="M191.4,209.9c1.2.8,1.6,1.6,1,3s.1,2.4,1.8,2.6a2.6,2.6,0,0,1,1.4.6l16.9-4.6V192a2.5,2.5,0,0,1-3.4-.6,2,2,0,0,0-3-.1c-1.2,1.4-2.4,1.4-4,.9a2,2,0,0,0-2.8,1.5,2.3,2.3,0,0,1-2.5,1.8c-1.8,0-2.7.8-2.5,2.4a2.4,2.4,0,0,1-1.7,2.8c-1.5.6-1.9,1.7-1.1,2.9a2.3,2.3,0,0,1-.4,3.2C190,207.9,190.1,209.1,191.4,209.9Z" fill="#f9c215" />
			<polygon points="146.9 107.4 148.8 113.5 154.9 115.5 148.8 117.4 146.9 123.5 144.9 117.4 138.8 115.5 144.9 113.5 146.9 107.4" fill="#fff" />
			<polygon points="172.9 117.3 175.8 126.6 185.1 129.5 175.8 132.4 172.9 141.8 170 132.4 160.7 129.5 170 126.6 172.9 117.3" fill="#fff" />
			<polygon points="160.7 83.7 162.7 90.4 169.4 92.5 162.7 94.5 160.7 101.2 158.6 94.5 152 92.5 158.6 90.4 160.7 83.7" fill="#fff" />
			<g id="_G_copia" data-name=" G copia">
				<path d="M149.7,203.1l-6.9-1.7c-.3-.1-.6,0-.6.5v2.6a1.1,1.1,0,0,0,.7,1l2.2.5a.9.9,0,0,1,.6.9v1.2c0,.4-.4.7-1,.8a7.2,7.2,0,0,1-1.9-.2,6.8,6.8,0,0,1-4.8-6.8h0c0-3.1,2-5,4.6-4.4a7.5,7.5,0,0,1,3.7,2.4.9.9,0,0,0,1,.1l2.1-2.3c.2-.2.1-.8-.1-1.1a13.5,13.5,0,0,0-6.8-4.1c-5.5-1.3-9.6,2.2-9.6,8.1h0a13.3,13.3,0,0,0,9.7,12.8,10.3,10.3,0,0,0,6.4-.4,3.2,3.2,0,0,0,1.4-2v-7.2C150.4,203.6,150,203.1,149.7,203.1Z" fill="#fff" fill-rule="evenodd" />
			</g>
			<g id="Forma_25_copia" data-name="Forma 25 copia">
				<path d="M137.1,191.7c-1.5-.3-2.8.9-2.8,2.7s1.3,3.8,2.8,4.1,2.8-.8,2.8-2.7A4.3,4.3,0,0,0,137.1,191.7Z" fill="#fff" fill-rule="evenodd" />
			</g>
			<g id="Forma_24_copia" data-name="Forma 24 copia">
				<path d="M136.8,195.2v2.1c.1,0,.2,0,.2-.1v-1.8Z" fill="#315060" fill-rule="evenodd" />
			</g>
			<g id="Forma_23_copia_3" data-name="Forma 23 copia 3">
				<path d="M136.8,192.9c-.6-.2-1.2.3-1.2,1.1a2,2,0,0,0,1.2,1.7,1.1,1.1,0,0,0,1.3-1.1A1.8,1.8,0,0,0,136.8,192.9Z" fill="#0087b2" fill-rule="evenodd" />
			</g>
			<g id="Forma_23_copia_4" data-name="Forma 23 copia 4">
				<ellipse cx="136.9" cy="194.4" rx="1.1" ry="1.4" transform="translate(-75.3 87.1) rotate(-28)" fill="#00a2d6" />
			</g>
		</g>
	</g>
</svg>
