<svg id="acbdef2b-d237-452c-a764-f79446f5a77e" data-name="Layer 1" xmlns="http://www.w3.org/2000/svg" viewBox="0 0 288.61925 288.61925">
    <defs>
        <style>.b95d0ae5-9e0e-48fc-9fbb-3866ef416674,.f805776d-65ba-49f9-a308-010afc8ead13{fill:#05eab6;}.f805776d-65ba-49f9-a308-010afc8ead13{stroke:#fff;stroke-miterlimit:10;stroke-width:7px;}.b9c3a56f-c514-4514-a199-a01a3bcdba29{font-size:32px;font-weight:800;letter-spacing:0.24001em;}.aa3fa9d1-86d0-4872-be7a-b5b2e3463d2f,.b9c3a56f-c514-4514-a199-a01a3bcdba29,.bf4bab72-3ac6-409a-94dc-30d2048d6c20{fill:#fff;}.e129dc9d-90aa-4d5e-9904-ea8c4f3c3925{letter-spacing:0.23401em;}.a8729475-183b-42dc-a673-e29d07e714d6{letter-spacing:0.23999em;}.b95d0ae5-9e0e-48fc-9fbb-3866ef416674,.bf4bab72-3ac6-409a-94dc-30d2048d6c20{fill-rule:evenodd;}</style>
    </defs>
    <circle class="f805776d-65ba-49f9-a308-010afc8ead13" cx="144.30963" cy="144.30963" r="140.80963" />
    <text class="b9c3a56f-c514-4514-a199-a01a3bcdba29" transform="translate(58.15879 103.36568)">
        BUS
        <tspan class="e129dc9d-90aa-4d5e-9904-ea8c4f3c3925" x="91.03955" y="0">C</tspan>
        <tspan class="a8729475-183b-42dc-a673-e29d07e714d6" x="121.8877" y="0">AR</tspan>
    </text>
    <g id="e524d2f5-1e66-483f-b9c2-c54563feaabe" data-name=" G copia">
        <path class="bf4bab72-3ac6-409a-94dc-30d2048d6c20" d="M790.75415,1726.43091h-26.128a2.28009,2.28009,0,0,0-2.52216,2.35437v8.85144a2.78143,2.78143,0,0,0,2.59888,2.53674h8.32886a2.25425,2.25425,0,0,1,2.4281,2.517v3.96167c0,1.54712-1.46515,2.7904-3.749,3.54a22.61691,22.61691,0,0,1-7.09058,1.01391c-10.7428,0-18.38861-7.83886-18.38861-18.7749v-.1936c0-10.35523,7.549-18.5813,17.324-18.5813a22.98629,22.98629,0,0,1,14.36347,4.817c.67755.49719,2.93921.43286,3.61584-.38025,2.10083-2.52466,5.73816-6.89563,7.82172-9.39942a2.85673,2.85673,0,0,0-.4035-3.53894c-6.73426-5.20349-14.67536-8.24109-25.49427-8.24109-21.00164,0-36.48675,15.48462-36.48675,35.2273v.1936c0,20.51685,15.77539,35.03369,36.8739,35.03369a45.93512,45.93512,0,0,0,24.18646-6.72155c2.47229-1.51209,5.23517-6.42994,5.23517-7.85364v-23.991A2.92341,2.92341,0,0,0,790.75415,1726.43091Z" transform="translate(-684.64419 -1574.9312)" />
    </g>
    <g id="fb1069b5-0405-42d2-a4a8-91a0b42a5243" data-name="l copia 3">
        <path class="bf4bab72-3ac6-409a-94dc-30d2048d6c20" d="M813.52148,1695.17139H799.73126c-1.8518,0-2.49945.87866-2.49945,2.47473v66.96472a2.70042,2.70042,0,0,0,2.452,2.45142h13.6784a3.11388,3.11388,0,0,0,2.58167-2.478v-66.92A2.42536,2.42536,0,0,0,813.52148,1695.17139Z" transform="translate(-684.64419 -1574.9312)" />
    </g>
    <g id="b3a9a793-ad00-4164-bcee-a3e2f4ac9fec" data-name="u copia 2">
        <path class="bf4bab72-3ac6-409a-94dc-30d2048d6c20" d="M869.21851,1713.24H855.81268a2.56615,2.56615,0,0,0-2.70477,2.50867v26.11487c0,5.76391-3.32166,8.89-7.7179,8.89-4.494,0-7.52258-3.1261-7.52258-8.89v-26.12159a2.70486,2.70486,0,0,0-2.48315-2.502H822.016a2.42076,2.42076,0,0,0-2.71063,2.5343v32.04846c0,12.01612,6.741,19.44068,17.97589,19.44068,7.52252,0,12.40729-4.00537,15.8266-8.40161v4.67749a3.11929,3.11929,0,0,0,2.67786,2.55175h13.42932a2.56282,2.56282,0,0,0,2.45489-2.57385v-47.7406A2.45726,2.45726,0,0,0,869.21851,1713.24Z" transform="translate(-684.64419 -1574.9312)" />
    </g>
    <g id="aa61e534-54b5-426f-82f4-067ae89a638d" data-name="p copia">
        <path class="bf4bab72-3ac6-409a-94dc-30d2048d6c20" d="M910.14667,1712.06763c-7.91333,0-12.40729,3.81006-16.022,8.20617v-4.54809a2.57667,2.57667,0,0,0-2.48059-2.48572H878.09424a2.42965,2.42965,0,0,0-2.53162,2.48389v63.34375a2.79587,2.79587,0,0,0,2.52381,2.65405H891.4751a2.53647,2.53647,0,0,0,2.64959-2.66467v-19.41358c3.41932,4.00537,8.10865,7.62,16.11969,7.62,12.505,0,23.34913-10.45313,23.34913-27.64673v-.19531C933.59351,1722.52075,922.74933,1712.06763,910.14667,1712.06763Zm5.17785,27.64673c0,7.13159-4.787,12.01611-10.84417,12.01611-5.95941,0-10.74646-4.9823-10.74646-12.01611v-.19532c0-6.93615,4.78705-11.91845,10.74646-11.91845,6.05713,0,10.84417,4.9823,10.84417,11.91845Z" transform="translate(-684.64419 -1574.9312)" />
    </g>
    <g id="bca05639-d78e-49db-94b9-776878f7f5e7" data-name="Forma 25 copia">
        <ellipse class="aa3fa9d1-86d0-4872-be7a-b5b2e3463d2f" cx="58.2048" cy="135.33321" rx="10.64812" ry="11.4668" />
    </g>
    <g id="a6df4d25-797f-4b32-9460-3d3d6125025e" data-name="Forma 24 copia">
        <path class="b95d0ae5-9e0e-48fc-9fbb-3866ef416674" d="M741.80792,1710.80688a.47624.47624,0,0,0-.43567.50831v5.939a.44086.44086,0,1,0,.87134,0v-5.939A.4762.4762,0,0,0,741.80792,1710.80688Z" transform="translate(-684.64419 -1574.9312)" />
    </g>
    <g id="b011b8f4-5534-4fed-b0d3-039c4aad39e2" data-name="Forma 23 copia 3">
        <path class="b95d0ae5-9e0e-48fc-9fbb-3866ef416674" d="M741.8186,1702.94971a4.64935,4.64935,0,1,0,4.64948,4.64941A4.64942,4.64942,0,0,0,741.8186,1702.94971Z" transform="translate(-684.64419 -1574.9312)" />
    </g>
</svg>