<svg xmlns="http://www.w3.org/2000/svg" xmlns:xlink="http://www.w3.org/1999/xlink" viewBox="0 0 114.57 120.11"><defs><style>.cls-1{stroke:#fff;stroke-miterlimit:10;stroke-width:5.5px;fill:url(#linear-gradient);}.cls-2{font-size:11.79px;font-weight:500;}.cls-2,.cls-3{fill:#fff;}</style><linearGradient id="linear-gradient" x1="2.75" y1="57.28" x2="111.82" y2="57.28" gradientUnits="userSpaceOnUse"><stop offset="0" stop-color="#a3dc97"/><stop offset="1" stop-color="#1fcdab"/></linearGradient></defs><title>glupofertar</title><g id="Capa_2" data-name="Capa 2"><g id="Layer_1" data-name="Layer 1"><path class="cls-1" d="M111.82,57.28a54.54,54.54,0,0,1-54.54,54.54h0A54.54,54.54,0,0,1,2.75,57.28h0A54.54,54.54,0,0,1,57.28,2.75h0a54.54,54.54,0,0,1,54.54,54.53Z"/><text class="cls-2" transform="translate(27.67 92.25) rotate(35.04)">O</text><text class="cls-2" transform="translate(36.33 97.9) rotate(23.61)">F</text><text class="cls-2" transform="matrix(0.97, 0.24, -0.24, 0.97, 43.54, 100.87)">E</text><text class="cls-2" transform="matrix(1, 0.06, -0.06, 1, 51.24, 102.6)">R</text><text class="cls-2" transform="translate(59.79 102.92) rotate(-6.81)">T</text><text class="cls-2" transform="matrix(0.96, -0.28, 0.28, 0.96, 66.8, 102.04)">A</text><text class="cls-2" transform="translate(75.68 99.14) rotate(-27.53)">R</text><path class="cls-3" d="M28.75,50.72a8.12,8.12,0,0,1,11.48,0l10.5,10.5L77.48,34.48A8.12,8.12,0,0,1,89,46L56.48,78.45a8.12,8.12,0,0,1-11.49,0L28.75,62.21a8.11,8.11,0,0,1,0-11.49Z"/></g></g></svg>