<svg xmlns="http://www.w3.org/2000/svg" viewBox="0 0 313.29 313.29"><defs><style>.cls-1,.cls-2,.cls-3,.cls-4,.cls-5,.cls-6,.cls-7,.cls-8,.cls-9{fill:#fff;}.cls-1{opacity:0.9;}.cls-2{opacity:0.8;}.cls-3{opacity:0.7;}.cls-4{opacity:0.6;}.cls-5{opacity:0.5;}.cls-6{opacity:0.4;}.cls-7{opacity:0.3;}.cls-8{opacity:0.2;}</style></defs><title>glupesperandoCargando</title><g id="Capa_2" data-name="Capa 2"><g id="Layer_1" data-name="Layer 1"><path class="cls-1" d="M157.37,313.29a1.91,1.91,0,0,1-1.91-1.92V294.13a1.92,1.92,0,0,1,3.83,0v17.24A1.92,1.92,0,0,1,157.37,313.29Z"/><path class="cls-1" d="M184.56,310.78a1.92,1.92,0,0,1-2.22-1.55l-3-17a1.91,1.91,0,0,1,3.77-.67l3,17A1.91,1.91,0,0,1,184.56,310.78Z"/><path class="cls-1" d="M210.9,303.59a1.91,1.91,0,0,1-2.45-1.14l-5.9-16.2a1.92,1.92,0,1,1,3.6-1.31l5.9,16.2A1.91,1.91,0,0,1,210.9,303.59Z"/><path class="cls-1" d="M235.6,291.94a1.93,1.93,0,0,1-2.62-.71l-8.62-14.93a1.92,1.92,0,0,1,3.32-1.91l8.62,14.93A1.92,1.92,0,0,1,235.6,291.94Z"/><path class="cls-2" d="M257.89,276.17a1.92,1.92,0,0,1-2.7-.24l-11.08-13.2a1.91,1.91,0,1,1,2.93-2.46l11.09,13.2A1.92,1.92,0,0,1,257.89,276.17Z"/><path class="cls-2" d="M277.11,256.77a1.92,1.92,0,0,1-2.7.24L261.2,245.93a1.92,1.92,0,0,1,2.46-2.94l13.21,11.09A1.91,1.91,0,0,1,277.11,256.77Z"/><path class="cls-2" d="M292.66,234.33a1.9,1.9,0,0,1-2.61.7l-14.93-8.62A1.91,1.91,0,1,1,277,223.1L292,231.72A1.9,1.9,0,0,1,292.66,234.33Z"/><path class="cls-2" d="M304.09,209.53a1.92,1.92,0,0,1-2.46,1.15l-16.2-5.9a1.92,1.92,0,0,1,1.31-3.6l16.2,5.9A1.91,1.91,0,0,1,304.09,209.53Z"/><path class="cls-3" d="M311,183.13a1.91,1.91,0,0,1-2.22,1.55l-17-3a1.92,1.92,0,1,1,.66-3.78l17,3A1.9,1.9,0,0,1,311,183.13Z"/><path class="cls-3" d="M313.29,155.91a1.92,1.92,0,0,1-1.92,1.92H294.13a1.92,1.92,0,0,1,0-3.83h17.24A1.92,1.92,0,0,1,313.29,155.91Z"/><path class="cls-3" d="M310.78,128.72a1.91,1.91,0,0,1-1.55,2.22l-17,3a1.92,1.92,0,0,1-.67-3.78l17-3A1.92,1.92,0,0,1,310.78,128.72Z"/><path class="cls-3" d="M303.59,102.38a1.92,1.92,0,0,1-1.14,2.46l-16.2,5.89a1.92,1.92,0,1,1-1.31-3.6l16.2-5.89A1.91,1.91,0,0,1,303.59,102.38Z"/><path class="cls-4" d="M291.94,77.69a1.93,1.93,0,0,1-.71,2.62L276.3,88.93a1.92,1.92,0,0,1-1.91-3.32L289.32,77A1.91,1.91,0,0,1,291.94,77.69Z"/><path class="cls-4" d="M276.17,55.4a1.91,1.91,0,0,1-.24,2.69l-13.2,11.09a1.92,1.92,0,0,1-2.46-2.94l13.2-11.08A1.92,1.92,0,0,1,276.17,55.4Z"/><path class="cls-4" d="M256.77,36.18a1.92,1.92,0,0,1,.24,2.7l-11.08,13.2A1.92,1.92,0,0,1,243,49.62l11.09-13.2A1.91,1.91,0,0,1,256.77,36.18Z"/><path class="cls-4" d="M234.33,20.62a1.91,1.91,0,0,1,.7,2.62l-8.62,14.93a1.91,1.91,0,1,1-3.31-1.92l8.62-14.93A1.91,1.91,0,0,1,234.33,20.62Z"/><path class="cls-5" d="M209.53,9.2a1.91,1.91,0,0,1,1.15,2.45l-5.9,16.2a1.92,1.92,0,1,1-3.6-1.31l5.9-16.2A1.91,1.91,0,0,1,209.53,9.2Z"/><path class="cls-5" d="M183.13,2.25a1.92,1.92,0,0,1,1.55,2.22l-3,17a1.92,1.92,0,0,1-3.78-.67l3-17A1.92,1.92,0,0,1,183.13,2.25Z"/><path class="cls-5" d="M155.91,0a1.92,1.92,0,0,1,1.92,1.92V19.15a1.92,1.92,0,1,1-3.83,0V1.92A1.92,1.92,0,0,1,155.91,0Z"/><path class="cls-5" d="M128.72,2.51a1.9,1.9,0,0,1,2.22,1.55l3,17a1.92,1.92,0,0,1-3.78.66l-3-17A1.91,1.91,0,0,1,128.72,2.51Z"/><path class="cls-6" d="M102.38,9.7a1.91,1.91,0,0,1,2.46,1.14L110.73,27a1.92,1.92,0,0,1-3.6,1.31l-5.89-16.2A1.91,1.91,0,0,1,102.38,9.7Z"/><path class="cls-6" d="M77.69,21.35a1.92,1.92,0,0,1,2.62.7L88.93,37a1.92,1.92,0,1,1-3.32,1.92L77,24A1.91,1.91,0,0,1,77.69,21.35Z"/><path class="cls-6" d="M55.4,37.12a1.9,1.9,0,0,1,2.69.23L69.18,50.56A1.92,1.92,0,1,1,66.24,53L55.16,39.81A1.91,1.91,0,0,1,55.4,37.12Z"/><path class="cls-6" d="M36.18,56.51a1.92,1.92,0,0,1,2.7-.23l13.2,11.08a1.91,1.91,0,1,1-2.46,2.93L36.42,59.21A1.92,1.92,0,0,1,36.18,56.51Z"/><path class="cls-7" d="M20.62,79a1.92,1.92,0,0,1,2.62-.7l14.93,8.62a1.92,1.92,0,1,1-1.92,3.32L21.32,81.57A1.92,1.92,0,0,1,20.62,79Z"/><path class="cls-7" d="M9.2,103.75a1.91,1.91,0,0,1,2.45-1.14l16.2,5.89a1.92,1.92,0,1,1-1.31,3.6l-16.2-5.89A1.92,1.92,0,0,1,9.2,103.75Z"/><path class="cls-7" d="M2.25,130.16a1.91,1.91,0,0,1,2.22-1.55l17,3a1.91,1.91,0,0,1-.67,3.77l-17-3A1.93,1.93,0,0,1,2.25,130.16Z"/><path class="cls-7" d="M0,157.37a1.91,1.91,0,0,1,1.92-1.91H19.15a1.92,1.92,0,1,1,0,3.83H1.92A1.92,1.92,0,0,1,0,157.37Z"/><path class="cls-8" d="M2.51,184.56a1.91,1.91,0,0,1,1.55-2.22l17-3a1.91,1.91,0,1,1,.66,3.77l-17,3A1.9,1.9,0,0,1,2.51,184.56Z"/><path class="cls-8" d="M9.7,210.9a1.9,1.9,0,0,1,1.14-2.45l16.2-5.9a1.92,1.92,0,0,1,1.31,3.6l-16.2,5.9A1.91,1.91,0,0,1,9.7,210.9Z"/><path class="cls-8" d="M21.35,235.6a1.92,1.92,0,0,1,.7-2.62L37,224.36a1.92,1.92,0,1,1,1.92,3.32L24,236.3A1.92,1.92,0,0,1,21.35,235.6Z"/><path class="cls-8" d="M37.12,257.89a1.92,1.92,0,0,1,.23-2.7l13.21-11.08A1.91,1.91,0,1,1,53,247L39.81,258.13A1.91,1.91,0,0,1,37.12,257.89Z"/><path class="cls-9" d="M56.51,277.11a1.92,1.92,0,0,1-.23-2.7L67.36,261.2a1.91,1.91,0,0,1,2.93,2.46L59.21,276.87A1.92,1.92,0,0,1,56.51,277.11Z"/><path class="cls-9" d="M79,292.66a1.91,1.91,0,0,1-.7-2.61l8.62-14.93A1.92,1.92,0,0,1,90.19,277L81.57,292A1.91,1.91,0,0,1,79,292.66Z"/><path class="cls-9" d="M103.75,304.09a1.92,1.92,0,0,1-1.14-2.46l5.89-16.2a1.92,1.92,0,0,1,3.6,1.31l-5.89,16.2A1.92,1.92,0,0,1,103.75,304.09Z"/><path class="cls-9" d="M130.16,311a1.9,1.9,0,0,1-1.55-2.22l3-17a1.91,1.91,0,1,1,3.77.66l-3,17A1.91,1.91,0,0,1,130.16,311Z"/></g></g></svg>