<svg id="b5029f22-5582-4373-8019-b633519f8ac2" data-name="Layer 1" xmlns="http://www.w3.org/2000/svg" xmlns:xlink="http://www.w3.org/1999/xlink" viewBox="0 0 64.00248 91.08675">
    <defs>
        <style>.a1b7bf3f-9e6a-402a-9756-60eaf1c76186{fill:#05c2ea;}.b26f38bb-e96a-4c20-b23c-1d8d10c2c2e4{fill:#fff;opacity:0.7;}.b5f73f37-115d-432d-a11f-9e9bc7e11e23,.be06aafa-257e-404b-8bce-0974e6ec8378{fill:#9339fb;}.b5f73f37-115d-432d-a11f-9e9bc7e11e23{opacity:0.35;}.a32e0f53-d470-4a2e-9ab6-e33758b4ac0f{fill:url(#a97e3ae1-e8d7-491f-a26f-6690962e48ac);}.abaa3116-4185-4203-ac17-731c7b4bb691,.af6b32c2-94bb-4980-8a07-dba174b59a2d,.b7887597-5d65-4b2d-9edc-14c45c5230aa,.b92f5bea-2e92-4589-bf70-bbe118c8b7c3,.bc21131c-a917-4e12-a8f5-84fd78511214,.bc5848d8-37bd-4088-ae57-4ba8122955fb{fill:none;}.abaa3116-4185-4203-ac17-731c7b4bb691,.af6b32c2-94bb-4980-8a07-dba174b59a2d,.b7887597-5d65-4b2d-9edc-14c45c5230aa,.bc21131c-a917-4e12-a8f5-84fd78511214,.bc5848d8-37bd-4088-ae57-4ba8122955fb{stroke:#9339fb;}.abaa3116-4185-4203-ac17-731c7b4bb691,.b7887597-5d65-4b2d-9edc-14c45c5230aa,.b92f5bea-2e92-4589-bf70-bbe118c8b7c3,.bc21131c-a917-4e12-a8f5-84fd78511214{stroke-linecap:round;}.abaa3116-4185-4203-ac17-731c7b4bb691,.b7887597-5d65-4b2d-9edc-14c45c5230aa{stroke-linejoin:round;}.abaa3116-4185-4203-ac17-731c7b4bb691,.bc21131c-a917-4e12-a8f5-84fd78511214,.bc5848d8-37bd-4088-ae57-4ba8122955fb{stroke-width:0.95027px;}.f491e192-c8dc-4778-8907-bb0fa7bbb9dc{fill:url(#ad606b77-4b4c-4f77-a562-303acd7004b4);}.b3e3c816-5372-4108-942f-c1d63b2aafe5{fill:url(#e9af4cf1-ec5a-4c52-8916-7f7651cf54d8);}.f0cb29e0-cf2c-4210-bfbf-dfcb2e376179{fill:url(#ebad8def-70cd-426b-827c-424066a114b1);}.af6b32c2-94bb-4980-8a07-dba174b59a2d,.b92f5bea-2e92-4589-bf70-bbe118c8b7c3,.bc21131c-a917-4e12-a8f5-84fd78511214,.bc5848d8-37bd-4088-ae57-4ba8122955fb{stroke-miterlimit:10;}.b92f5bea-2e92-4589-bf70-bbe118c8b7c3{stroke:#fff;stroke-width:2.17204px;opacity:0.5;}.eeb4999d-6a49-4a60-8054-3e6c6956b51f{fill:#ff7bb3;}.af6b32c2-94bb-4980-8a07-dba174b59a2d,.b7887597-5d65-4b2d-9edc-14c45c5230aa{stroke-width:0.81452px;}</style>
        <radialGradient id="a97e3ae1-e8d7-491f-a26f-6690962e48ac" cx="855.56751" cy="525.45701" r="48.10349" gradientUnits="userSpaceOnUse">
            <stop offset="0" stop-color="#dc9afe" />
            <stop offset="0.29702" stop-color="#d895fe" />
            <stop offset="0.63016" stop-color="#cd88fe" />
            <stop offset="0.97962" stop-color="#ba72ff" />
            <stop offset="1" stop-color="#b970ff" />
        </radialGradient>
        <radialGradient id="ad606b77-4b4c-4f77-a562-303acd7004b4" cx="856.44877" cy="589.67704" r="24.80659">
            <stop offset="0" stop-color="#dc9afe" />
            <stop offset="0.29702" stop-color="#d895fe" />
            <stop offset="0.63016" stop-color="#cd88fe" />
            <stop offset="0.97962" stop-color="#ba72ff" />
            <stop offset="1" stop-color="#b970ff" />
        </radialGradient>
        <radialGradient id="e9af4cf1-ec5a-4c52-8916-7f7651cf54d8" cx="856.07101" cy="552.53059" r="26.44324" gradientUnits="userSpaceOnUse">
            <stop offset="0" stop-color="#06d5f5" />
            <stop offset="0.27924" stop-color="#06d0f2" />
            <stop offset="0.59241" stop-color="#06c3ea" />
            <stop offset="0.92089" stop-color="#06addc" />
            <stop offset="1" stop-color="#06a6d8" />
        </radialGradient>
        <radialGradient id="ebad8def-70cd-426b-827c-424066a114b1" cx="856.34209" cy="505.05861" r="41.74171" gradientUnits="userSpaceOnUse">
            <stop offset="0" stop-color="#dc9afe" />
            <stop offset="0.36578" stop-color="#da97fe" />
            <stop offset="0.62763" stop-color="#d28efe" />
            <stop offset="0.85634" stop-color="#c57eff" />
            <stop offset="1" stop-color="#b970ff" />
        </radialGradient>
    </defs>
    <path class="a1b7bf3f-9e6a-402a-9756-60eaf1c76186" d="M1080,0" transform="translate(-815.57709 -505.26737)" />
    <path class="b26f38bb-e96a-4c20-b23c-1d8d10c2c2e4" d="M821.064,567.30092a17.01181,17.01181,0,0,0,.3674-9.10215c-1.52571-7.014-4.69044-10.70334-5.85426-11.86564l.43854-1.29389.00177-.00177s4.40711,3.58928,6.29714,12.27811a17.01181,17.01181,0,0,1-.3674,9.10215,6.85268,6.85268,0,0,1-2.10209,3.157A8.16429,8.16429,0,0,0,821.064,567.30092Z" transform="translate(-815.57709 -505.26737)" />
    <ellipse class="b5f73f37-115d-432d-a11f-9e9bc7e11e23" cx="40.765" cy="86.92973" rx="21.00304" ry="4.15702" />
    <path class="a32e0f53-d470-4a2e-9ab6-e33758b4ac0f" d="M867.1912,566.12981a101.0136,101.0136,0,0,1-10.84911-9.82107,101.014,101.014,0,0,1-10.8491,9.82107c-5.84673,4.70564-12.45652,4.7657-11.87714-4.0927a32.989,32.989,0,0,1,1.88826-8.332c5.51994-16.1041,20.838-13.935,20.838-13.935s15.318-2.16912,20.838,13.935C882.98264,570.63762,874.49342,572.00656,867.1912,566.12981Z" transform="translate(-815.57709 -505.26737)" />
    <path class="b5f73f37-115d-432d-a11f-9e9bc7e11e23" d="M879.06833,562.03711a5.788,5.788,0,0,1-.29207.76826,2.75594,2.75594,0,0,1-5.25278-.94655,45.88948,45.88948,0,0,0-3.9406-15.3111s-3.14769,3.90547-4.40712-1.44666c0,0-3.11943,5.935-8.83367,5.935s-8.83367-5.935-8.83367-5.935c-1.25943,5.35213-4.40712,1.44666-4.40712,1.44666a45.88948,45.88948,0,0,0-3.9406,15.3111,2.75594,2.75594,0,0,1-5.25278.94655,5.78973,5.78973,0,0,1-.29207-.76826c-.57938,8.8584,6.03041,8.79834,11.87714,4.0927a101.014,101.014,0,0,0,10.8491-9.82107,101.0136,101.0136,0,0,0,10.84911,9.82107C873.03792,570.83545,879.64771,570.89551,879.06833,562.03711Z" transform="translate(-815.57709 -505.26737)" />
    <path class="b26f38bb-e96a-4c20-b23c-1d8d10c2c2e4" d="M877.18013,553.70584c-5.5195-16.105-20.838-13.93516-20.838-13.93516s-15.31854-2.16984-20.838,13.93516c-2.83538,8.27319-2.25761,12.829-.07421,14.64125-1.58108-2.08643-1.768-6.38143.69179-13.55852,5.35591-15.62769,20.22046-13.52216,20.22046-13.52216s14.86455-2.10553,20.22046,13.52216c2.45974,7.17709,2.27287,11.47209.69179,13.55852C879.43774,566.53488,880.01551,561.979,877.18013,553.70584Z" transform="translate(-815.57709 -505.26737)" />
    <path class="abaa3116-4185-4203-ac17-731c7b4bb691" d="M877.18013,553.70584c-5.5195-16.105-20.838-13.93516-20.838-13.93516s-15.31854-2.16984-20.838,13.93516c-5.80286,16.93182,2.6863,18.30041,9.98967,12.42413a100.91,100.91,0,0,0,10.84837-9.82177A100.91,100.91,0,0,0,867.19046,566.13C874.49384,572.00625,882.983,570.63766,877.18013,553.70584Z" transform="translate(-815.57709 -505.26737)" />
    <path class="f491e192-c8dc-4778-8907-bb0fa7bbb9dc" d="M873.612,590.21264c-.19607,2.94279-7.31281,3.45857-12.09793,1.98011a4.6672,4.6672,0,0,1-3.29607-4.45481V574.536a11.01879,11.01879,0,0,1-1.8759.159,11.34627,11.34627,0,0,1-1.55972-.10952c-.01942-.00352-.03885-.00529-.05828-.00883-.16428-.023-.25789-.04062-.25789-.04062v13.20192a4.6672,4.6672,0,0,1-3.29608,4.45481c-4.78511,1.47846-11.90186.96268-12.09793-1.98011a4.64338,4.64338,0,0,1,.55111-2.61071v-.00177a5.86371,5.86371,0,0,1,2.911-2.457,105.53709,105.53709,0,0,1-1.51025-18.2573s5.557,1.69925,15.318,1.69925,15.318-1.69925,15.318-1.69925a105.53773,105.53773,0,0,1-1.51026,18.2573S873.86459,586.43435,873.612,590.21264Z" transform="translate(-815.57709 -505.26737)" />
    <path class="b5f73f37-115d-432d-a11f-9e9bc7e11e23" d="M854.4662,574.536h0v13.20192a4.6672,4.6672,0,0,1-3.29608,4.45481c-4.78511,1.47846-11.90186.96268-12.09793-1.98011a4.64338,4.64338,0,0,1,.55111-2.61071c-.1572,4.18222,5.59374,3.87743,9.47444,3.20095a4.17021,4.17021,0,0,0,3.44663-4.11207v-9.80122a1.15219,1.15219,0,0,0-.72842-1.07893,6.73292,6.73292,0,0,1-3.44916-3.01015.46256.46256,0,0,1,.67508-.59956A12.60967,12.60967,0,0,0,854.4662,574.536Z" transform="translate(-815.57709 -505.26737)" />
    <path class="b5f73f37-115d-432d-a11f-9e9bc7e11e23" d="M858.218,574.536h0v13.20192a4.6672,4.6672,0,0,0,3.29607,4.45481c4.78512,1.47846,11.90186.96268,12.09793-1.98011a4.6433,4.6433,0,0,0-.55111-2.61071c.1572,4.18222-5.59374,3.87743-9.47444,3.20095a4.17021,4.17021,0,0,1-3.44663-4.11207v-9.80122a1.1522,1.1522,0,0,1,.72843-1.07893,6.73285,6.73285,0,0,0,3.44915-3.01015.46256.46256,0,0,0-.67508-.59956A12.60969,12.60969,0,0,1,858.218,574.536Z" transform="translate(-815.57709 -505.26737)" />
    <path class="b5f73f37-115d-432d-a11f-9e9bc7e11e23" d="M856.34207,568.58542s-9.99839.3148-15.31852-1.69993V568.428s4.79192,1.637,15.31852,1.637,15.31852-1.637,15.31852-1.637v-1.54252C866.34046,568.90022,856.34207,568.58542,856.34207,568.58542Z" transform="translate(-815.57709 -505.26737)" />
    <path class="be06aafa-257e-404b-8bce-0974e6ec8378" d="M842.32733,584.71637a8.04218,8.04218,0,0,1,2.16364-.624,7.20561,7.20561,0,0,1,2.24145.017,5.72134,5.72134,0,0,1,2.105.77863,4.76186,4.76186,0,0,1,1.55615,1.55322.11107.11107,0,0,1-.15716.15113l-.00964-.00684a9.75539,9.75539,0,0,0-1.71625-1.10681,5.22247,5.22247,0,0,0-1.89264-.54572,7.4084,7.4084,0,0,0-1.98053.08063,8.63705,8.63705,0,0,0-1.89551.55792l-.0271.01233a.475.475,0,1,1-.39233-.86523Z" transform="translate(-815.57709 -505.26737)" />
    <path class="be06aafa-257e-404b-8bce-0974e6ec8378" d="M854.382,575.00464a11.98018,11.98018,0,0,1-2.89276-.91821,7.305,7.305,0,0,1-2.48474-1.72046.10286.10286,0,0,1,.00805-.14533.10671.10671,0,0,1,.11646-.01446,22.883,22.883,0,0,0,2.66644,1.11c.90472.29651,1.84448.55176,2.75372.75293l.01917.00428a.47493.47493,0,0,1-.18634.93121Z" transform="translate(-815.57709 -505.26737)" />
    <path class="be06aafa-257e-404b-8bce-0974e6ec8378" d="M869.94232,585.57147a8.63593,8.63593,0,0,0-1.89551-.55792,7.40819,7.40819,0,0,0-1.98053-.08063,5.22206,5.22206,0,0,0-1.89257.54572,9.75729,9.75729,0,0,0-1.71631,1.10681l-.00959.00677a.11106.11106,0,0,1-.15722-.15106,4.76244,4.76244,0,0,1,1.55615-1.55322,5.72219,5.72219,0,0,1,2.105-.77863,7.20607,7.20607,0,0,1,2.24152-.017,8.04108,8.04108,0,0,1,2.16357.624.475.475,0,1,1-.38238.86963l-.00257-.00116Z" transform="translate(-815.57709 -505.26737)" />
    <path class="be06aafa-257e-404b-8bce-0974e6ec8378" d="M858.13507,574.06915c.90924-.20117,1.849-.45642,2.75366-.75293a22.87375,22.87375,0,0,0,2.66645-1.11.103.103,0,0,1,.139.04327.10674.10674,0,0,1-.01446.11652,7.30567,7.30567,0,0,1-2.48474,1.72046,11.98116,11.98116,0,0,1-2.89276.91821.475.475,0,0,1-.18732-.931Z" transform="translate(-815.57709 -505.26737)" />
    <path class="abaa3116-4185-4203-ac17-731c7b4bb691" d="M870.14959,585.14392a105.527,105.527,0,0,0,1.511-18.25843s-5.558,1.69993-15.31854,1.69993-15.31854-1.69993-15.31854-1.69993a105.52816,105.52816,0,0,0,1.511,18.25843s-3.71464,1.29068-3.4628,5.06828c.19626,2.94384,7.313,3.45976,12.09867,1.97981a4.66567,4.66567,0,0,0,3.29507-4.45452v-13.2006a11.26792,11.26792,0,0,0,3.75312,0v13.2006a4.66567,4.66567,0,0,0,3.29507,4.45452c4.78565,1.48,11.90241.964,12.09867-1.97981C873.86423,586.4346,870.14959,585.14392,870.14959,585.14392Z" transform="translate(-815.57709 -505.26737)" />
    <path class="b3e3c816-5372-4108-942f-c1d63b2aafe5" d="M856.34209,553.75831c7.97669,0,8.33-10.22962,8.33-10.22962h2.3541a10.03916,10.03916,0,0,0,3.43823,8.20441,136.03084,136.03084,0,0,1,1.553,24.00878s-4.44568,2.09867-15.67531,2.09867-15.67531-2.09867-15.67531-2.09867a136.03084,136.03084,0,0,1,1.553-24.00878,10.03916,10.03916,0,0,0,3.43823-8.20441h2.3541S848.3654,553.75831,856.34209,553.75831Z" transform="translate(-815.57709 -505.26737)" />
    <path class="b5f73f37-115d-432d-a11f-9e9bc7e11e23" d="M870.46439,551.7331s2.98361,21.4484-14.1223,21.4484-14.1223-21.4484-14.1223-21.4484c-1.49276,9.02741-1.553,24.00878-1.553,24.00878,6.00219,2.18261,15.67531,2.09866,15.67531,2.09866s9.67312.08395,15.67531-2.09866C872.0174,575.74188,871.95716,560.76051,870.46439,551.7331Z" transform="translate(-815.57709 -505.26737)" />
    <path class="abaa3116-4185-4203-ac17-731c7b4bb691" d="M856.34209,553.75831c7.97669,0,8.33-10.22962,8.33-10.22962h2.3541a10.03916,10.03916,0,0,0,3.43823,8.20441,136.03084,136.03084,0,0,1,1.553,24.00878s-4.44568,2.09867-15.67531,2.09867-15.67531-2.09867-15.67531-2.09867a136.03084,136.03084,0,0,1,1.553-24.00878,10.03916,10.03916,0,0,0,3.43823-8.20441h2.3541S848.3654,553.75831,856.34209,553.75831Z" transform="translate(-815.57709 -505.26737)" />
    <path class="be06aafa-257e-404b-8bce-0974e6ec8378" d="M843.5625,547.13568c-.45532,1.50421-.827,3.06354-1.267,4.60834a.077.077,0,0,1-.1513-.02185c.01379-.8075.06671-1.6109.154-2.41132.091-.79992.1806-1.603.34179-2.40332a.47575.47575,0,1,1,.93421.1806C843.57141,547.10284,843.56659,547.12152,843.5625,547.13568Z" transform="translate(-815.57709 -505.26737)" />
    <path class="be06aafa-257e-404b-8bce-0974e6ec8378" d="M869.99414,551.801l-.48541-4.76111a.077.077,0,0,1,.067-.08582.079.079,0,0,1,.08143.04913,30.9667,30.9667,0,0,1,1.27746,4.66193.476.476,0,1,1-.93182.19513.48526.48526,0,0,1-.00763-.04871Z" transform="translate(-815.57709 -505.26737)" />
    <path class="f0cb29e0-cf2c-4210-bfbf-dfcb2e376179" d="M876.74378,526.14419c0,.597-.0265,1.18877-.07772,1.77168a20.40081,20.40081,0,0,1-40.64794,0c-.05122-.58291-.07772-1.17465-.07772-1.77168a20.40169,20.40169,0,1,1,40.80338,0Z" transform="translate(-815.57709 -505.26737)" />
    <path class="b5f73f37-115d-432d-a11f-9e9bc7e11e23" d="M856.34209,543.36815a20.40408,20.40408,0,0,1-20.34131-18.81282q-.06063.78694-.06125,1.58974a20.40256,20.40256,0,0,0,40.80513,0q0-.80248-.06126-1.58974A20.40407,20.40407,0,0,1,856.34209,543.36815Z" transform="translate(-815.57709 -505.26737)" />
    <path class="b26f38bb-e96a-4c20-b23c-1d8d10c2c2e4" d="M876.4594,522.73692a20.40169,20.40169,0,0,0-40.519,3.40734c0,.597.0265,1.18877.07772,1.77169a20.3085,20.3085,0,0,0,4.81466,11.48332,19.6282,19.6282,0,0,1-4.144-10.48193c-.04953-.56368-.07515-1.13589-.07515-1.71323a19.70993,19.70993,0,0,1,9.71766-17.00318,1.228,1.228,0,0,1,1.10841-.06979,7.81763,7.81763,0,0,0,7.19132-2.10543,1.22575,1.22575,0,0,1,.96689-.53578q.37035-.01412.74418-.01428a19.71506,19.71506,0,0,1,19.72847,19.72846c0,.57734-.02563,1.14955-.07516,1.71323a19.6282,19.6282,0,0,1-4.144,10.48193,20.3085,20.3085,0,0,0,4.81466-11.48332c.05122-.58292.07772-1.17465.07772-1.77169A20.43844,20.43844,0,0,0,876.4594,522.73692Z" transform="translate(-815.57709 -505.26737)" />
    <path class="bc21131c-a917-4e12-a8f5-84fd78511214" d="M846.93638,536.08029a7.893,7.893,0,0,0,5.494,3.04111" transform="translate(-815.57709 -505.26737)" />
    <path class="b92f5bea-2e92-4589-bf70-bbe118c8b7c3" d="M859.78182,511.21429a15.301,15.301,0,0,0-2.34122-.34894" transform="translate(-815.57709 -505.26737)" />
    <path class="b92f5bea-2e92-4589-bf70-bbe118c8b7c3" d="M870.9446,521.503a15.35974,15.35974,0,0,0-6.752-8.51452" transform="translate(-815.57709 -505.26737)" />
    <circle class="bc5848d8-37bd-4088-ae57-4ba8122955fb" cx="40.765" cy="20.8777" r="20.40257" />
    <path class="eeb4999d-6a49-4a60-8054-3e6c6956b51f" d="M855.85065,555.56842a8.71729,8.71729,0,0,1-7.12118,2.093,1.54418,1.54418,0,0,1-1.2488-1.04284,6.69609,6.69609,0,0,1,.12106-4.60309,1.52294,1.52294,0,0,1,1.32628-.9624,12.879,12.879,0,0,1,6.92264,1.76083Z" transform="translate(-815.57709 -505.26737)" />
    <path class="b5f73f37-115d-432d-a11f-9e9bc7e11e23" d="M848.72947,555.895a1.54416,1.54416,0,0,1-1.2488-1.04283,6.68635,6.68635,0,0,1-.29027-1.24809,6.60321,6.60321,0,0,0,.29027,3.01447,1.54419,1.54419,0,0,0,1.2488,1.04284,8.71726,8.71726,0,0,0,7.12118-2.093V553.802A8.71725,8.71725,0,0,1,848.72947,555.895Z" transform="translate(-815.57709 -505.26737)" />
    <path class="b26f38bb-e96a-4c20-b23c-1d8d10c2c2e4" d="M848.928,551.05308a1.5229,1.5229,0,0,0-1.32628.9624,6.79616,6.79616,0,0,0-.44982,2.99646,6.87287,6.87287,0,0,1,.44982-1.93663,1.5229,1.5229,0,0,1,1.32628-.9624,12.879,12.879,0,0,1,6.92264,1.76083v-1.05983A12.879,12.879,0,0,0,848.928,551.05308Z" transform="translate(-815.57709 -505.26737)" />
    <path class="be06aafa-257e-404b-8bce-0974e6ec8378" d="M856.03387,555.22388a8.03333,8.03333,0,0,1-2.17663.63336,5.12547,5.12547,0,0,1-2.23853-.11615.09585.09585,0,0,1-.06475-.1192.09941.09941,0,0,1,.092-.06879,9.14548,9.14548,0,0,0,2.08288-.32025,11.32152,11.32152,0,0,0,1.93866-.73645l.0188-.00885a.40712.40712,0,0,1,.34759.73633Z" transform="translate(-815.57709 -505.26737)" />
    <path class="be06aafa-257e-404b-8bce-0974e6ec8378" d="M855.66748,554.164a11.32651,11.32651,0,0,0-1.93866-.73645,9.14548,9.14548,0,0,0-2.08288-.32025.09607.09607,0,0,1-.096-.096.09937.09937,0,0,1,.06878-.092,5.12547,5.12547,0,0,1,2.23853-.11615,8.03133,8.03133,0,0,1,2.17663.63342.40711.40711,0,0,1-.34869.73578Z" transform="translate(-815.57709 -505.26737)" />
    <path class="b7887597-5d65-4b2d-9edc-14c45c5230aa" d="M855.85065,555.56842a8.71729,8.71729,0,0,1-7.12118,2.093,1.54418,1.54418,0,0,1-1.2488-1.04284,6.69609,6.69609,0,0,1,.12106-4.60309,1.52294,1.52294,0,0,1,1.32628-.9624,12.879,12.879,0,0,1,6.92264,1.76083Z" transform="translate(-815.57709 -505.26737)" />
    <path class="eeb4999d-6a49-4a60-8054-3e6c6956b51f" d="M856.83353,555.56842a8.71729,8.71729,0,0,0,7.12118,2.093,1.54421,1.54421,0,0,0,1.24881-1.04284,6.69614,6.69614,0,0,0-.12107-4.60309,1.52292,1.52292,0,0,0-1.32627-.9624,12.879,12.879,0,0,0-6.92265,1.76083Z" transform="translate(-815.57709 -505.26737)" />
    <path class="b5f73f37-115d-432d-a11f-9e9bc7e11e23" d="M863.95471,555.895a1.54415,1.54415,0,0,0,1.2488-1.04283,6.68556,6.68556,0,0,0,.29027-1.24809,6.60321,6.60321,0,0,1-.29027,3.01447,1.54418,1.54418,0,0,1-1.2488,1.04284,8.71727,8.71727,0,0,1-7.12118-2.093V553.802A8.71726,8.71726,0,0,0,863.95471,555.895Z" transform="translate(-815.57709 -505.26737)" />
    <path class="b26f38bb-e96a-4c20-b23c-1d8d10c2c2e4" d="M863.75618,551.05308a1.5229,1.5229,0,0,1,1.32627.9624,6.79616,6.79616,0,0,1,.44982,2.99646,6.87253,6.87253,0,0,0-.44982-1.93663,1.5229,1.5229,0,0,0-1.32627-.9624,12.879,12.879,0,0,0-6.92265,1.76083v-1.05983A12.879,12.879,0,0,1,863.75618,551.05308Z" transform="translate(-815.57709 -505.26737)" />
    <path class="be06aafa-257e-404b-8bce-0974e6ec8378" d="M857.01672,554.4964a11.3212,11.3212,0,0,0,1.9386.73645,9.146,9.146,0,0,0,2.08289.32025.096.096,0,0,1,.096.096.09926.09926,0,0,1-.06873.092,5.12547,5.12547,0,0,1-2.23852.11615,8.03288,8.03288,0,0,1-2.17664-.63336.40714.40714,0,0,1,.34869-.73584Z" transform="translate(-815.57709 -505.26737)" />
    <path class="be06aafa-257e-404b-8bce-0974e6ec8378" d="M856.65033,553.43658a8.03088,8.03088,0,0,1,2.17664-.63342,5.12547,5.12547,0,0,1,2.23852.11615.096.096,0,0,1,.06476.1192.09945.09945,0,0,1-.092.06879,9.146,9.146,0,0,0-2.08289.32025,11.32619,11.32619,0,0,0-1.9386.73645l-.0188.00885a.4071.4071,0,0,1-.34759-.73627Z" transform="translate(-815.57709 -505.26737)" />
    <path class="b7887597-5d65-4b2d-9edc-14c45c5230aa" d="M856.83353,555.56842a8.71729,8.71729,0,0,0,7.12118,2.093,1.54421,1.54421,0,0,0,1.24881-1.04284,6.69614,6.69614,0,0,0-.12107-4.60309,1.52292,1.52292,0,0,0-1.32627-.9624,12.879,12.879,0,0,0-6.92265,1.76083Z" transform="translate(-815.57709 -505.26737)" />
    <circle class="eeb4999d-6a49-4a60-8054-3e6c6956b51f" cx="40.765" cy="49.08907" r="1.9745" />
    <path class="b5f73f37-115d-432d-a11f-9e9bc7e11e23" d="M856.34209,554.91782a1.97349,1.97349,0,0,1-1.842-1.26794,1.97451,1.97451,0,1,0,3.68406,0A1.97348,1.97348,0,0,1,856.34209,554.91782Z" transform="translate(-815.57709 -505.26737)" />
    <path class="b26f38bb-e96a-4c20-b23c-1d8d10c2c2e4" d="M856.34209,553.26512a1.974,1.974,0,0,1,1.92316,1.5329,1.97451,1.97451,0,1,0-3.84632,0A1.974,1.974,0,0,1,856.34209,553.26512Z" transform="translate(-815.57709 -505.26737)" />
    <circle class="af6b32c2-94bb-4980-8a07-dba174b59a2d" cx="40.765" cy="49.08907" r="1.9745" />
</svg>