<svg id="a23cfe10-efd8-43b1-82c9-bb888240c758" data-name="Layer 1" xmlns="http://www.w3.org/2000/svg" xmlns:xlink="http://www.w3.org/1999/xlink" viewBox="0 0 169.76451 169.76451">
    <defs>
        <style>.a265ba60-5b59-45b1-a9b0-9db80d0edb82{fill:#2d2d2d;opacity:0.3;}.abbc2e5f-18ce-4fe3-a0a7-e5fd42c83953,.ad3a4840-3019-46e9-aaee-877456869616,.afafda98-1caf-4766-9e40-84a5ecad9336,.b5fa3553-03e3-4313-ae5f-99a0e9217865{fill:#fff;}.a277acb7-cdbc-4e40-a943-ea6229dc12d7,.b5fa3553-03e3-4313-ae5f-99a0e9217865{stroke:#fff;}.a277acb7-cdbc-4e40-a943-ea6229dc12d7,.aeb9f9ca-3760-49fd-a580-083908bfe54e,.b5fa3553-03e3-4313-ae5f-99a0e9217865,.bc7512b1-2b39-49c6-a188-eae1e96bb7ce,.bc920335-292b-4a54-af3f-6e7e9f445a8d{stroke-miterlimit:10;}.b5fa3553-03e3-4313-ae5f-99a0e9217865{stroke-width:0.57862px;}.bb82a682-0712-4444-ad65-e2b5071dc612{fill:#05c2ea;}.bc76333b-35c4-4576-a9b8-d294f249caa3{fill:url(#bcf6f3bb-e300-477f-91d8-c486a8d08147);}.ec3fb50a-34f3-4880-b083-1738c7fa27e0{fill:url(#aa49d8ca-dfb4-4e95-b445-c4cc49aa7910);}.e27c5b94-d71d-47fd-aeef-613758ce9b67{fill:#9339fb;}.e27c5b94-d71d-47fd-aeef-613758ce9b67,.e611fe18-d960-4ae2-8a55-b9380bf2a7db{opacity:0.35;}.e611fe18-d960-4ae2-8a55-b9380bf2a7db,.ee8a4648-4be1-4dae-b1e9-e3f037c4e5b7{fill:#8d6800;}.ad3a4840-3019-46e9-aaee-877456869616{opacity:0.7;}.a277acb7-cdbc-4e40-a943-ea6229dc12d7,.a8f90690-c366-40f2-915d-acb10df03576,.aeb9f9ca-3760-49fd-a580-083908bfe54e,.b579da2b-1533-4b47-aede-25b0b752b195,.bc7512b1-2b39-49c6-a188-eae1e96bb7ce,.bc920335-292b-4a54-af3f-6e7e9f445a8d,.f3fa8685-d700-4a43-a59c-d16a888117cf{fill:none;}.a8f90690-c366-40f2-915d-acb10df03576,.aeb9f9ca-3760-49fd-a580-083908bfe54e,.bc920335-292b-4a54-af3f-6e7e9f445a8d{stroke:#8d6800;}.a277acb7-cdbc-4e40-a943-ea6229dc12d7,.a8f90690-c366-40f2-915d-acb10df03576,.aeb9f9ca-3760-49fd-a580-083908bfe54e,.bc7512b1-2b39-49c6-a188-eae1e96bb7ce,.f3fa8685-d700-4a43-a59c-d16a888117cf{stroke-linecap:round;}.a8f90690-c366-40f2-915d-acb10df03576,.f3fa8685-d700-4a43-a59c-d16a888117cf{stroke-linejoin:round;}.a8f90690-c366-40f2-915d-acb10df03576,.aeb9f9ca-3760-49fd-a580-083908bfe54e,.bc7512b1-2b39-49c6-a188-eae1e96bb7ce,.bc920335-292b-4a54-af3f-6e7e9f445a8d,.f3fa8685-d700-4a43-a59c-d16a888117cf{stroke-width:1.82827px;}.bc7512b1-2b39-49c6-a188-eae1e96bb7ce,.f3fa8685-d700-4a43-a59c-d16a888117cf{stroke:#9339fb;}.e66a364a-7afa-47e5-ad80-0ab8b3d3f396{fill:url(#abce7431-b857-494c-a298-8f652c3a3e53);}.a277acb7-cdbc-4e40-a943-ea6229dc12d7{stroke-width:4.1789px;opacity:0.5;}.a72655ce-03ea-45ea-a335-560c4b743b0b,.afafda98-1caf-4766-9e40-84a5ecad9336,.bb8d75ab-7f66-4597-b711-3f0bfc97233f,.f5e708b4-179c-4734-970e-6ac9f4b9d5d0{fill-rule:evenodd;}.f5e708b4-179c-4734-970e-6ac9f4b9d5d0{fill:#315060;}.bb8d75ab-7f66-4597-b711-3f0bfc97233f{fill:#0087b2;}.a72655ce-03ea-45ea-a335-560c4b743b0b{fill:#00a2d6;}</style>
        <radialGradient id="bcf6f3bb-e300-477f-91d8-c486a8d08147" cx="565.22864" cy="635.29284" r="0" gradientUnits="userSpaceOnUse">
            <stop offset="0" stop-color="#fef43d" />
            <stop offset="0.25424" stop-color="#fee937" />
            <stop offset="0.69719" stop-color="#ffcc26" />
            <stop offset="1" stop-color="#ffb518" />
        </radialGradient>
        <radialGradient id="aa49d8ca-dfb4-4e95-b445-c4cc49aa7910" cx="539.83907" cy="562.46516" r="79.42595">
            <stop offset="0" stop-color="#fef43d" />
            <stop offset="0.25424" stop-color="#fee937" />
            <stop offset="0.69719" stop-color="#ffcc26" />
            <stop offset="1" stop-color="#ffb518" />
        </radialGradient>
        <radialGradient id="abce7431-b857-494c-a298-8f652c3a3e53" cx="541.00093" cy="529.44832" r="68.1847">
            <stop offset="0" stop-color="#fef43d" />
            <stop offset="0.25424" stop-color="#fee937" />
            <stop offset="0.69719" stop-color="#ffcc26" />
            <stop offset="1" stop-color="#ffb518" />
        </radialGradient>
    </defs>
    <circle class="a265ba60-5b59-45b1-a9b0-9db80d0edb82" cx="84.88225" cy="84.88226" r="84.59295" />
    <circle class="b5fa3553-03e3-4313-ae5f-99a0e9217865" cx="84.88226" cy="84.88226" r="84.59295" />
    <circle class="bb82a682-0712-4444-ad65-e2b5071dc612" cx="84.88225" cy="84.88226" r="77.80213" />
    <polygon class="abbc2e5f-18ce-4fe3-a0a7-e5fd42c83953" points="125.985 67.422 127.667 72.774 133.018 74.455 127.667 76.136 125.985 81.488 124.304 76.136 118.952 74.455 124.304 72.774 125.985 67.422" />
    <polygon class="abbc2e5f-18ce-4fe3-a0a7-e5fd42c83953" points="41.462 68.699 43.143 74.05 48.495 75.732 43.143 77.413 41.462 82.765 39.781 77.413 34.429 75.732 39.781 74.05 41.462 68.699" />
    <polygon class="abbc2e5f-18ce-4fe3-a0a7-e5fd42c83953" points="36.846 53.58 37.945 57.078 41.443 58.177 37.945 59.277 36.846 62.775 35.746 59.277 32.248 58.177 35.746 57.078 36.846 53.58" />
    <path class="bc76333b-35c4-4576-a9b8-d294f249caa3" d="M565.22864,635.29284" transform="translate(-456.52479 -510.22791)" />
    <path class="ec3fb50a-34f3-4880-b083-1738c7fa27e0" d="M517.33156,634.42723c-1.07664-10.67431-.54581-.41763-.80326-1.59773-.84727-3.88373.426.56494-2.49,1.22373-6.07725,1.373-10.80033-1.75273-10.16079-11.531a53.88762,53.88762,0,0,1,3.08445-13.61027c9.01677-26.3059,34.03866-22.76266,34.03866-22.76266s25.02189-3.54324,34.03866,22.76266c9.47843,27.65911-2.91047,30.75-14.83858,21.15041-.69093-.55592,8.73932-6.68546,5.31644,4.36488" transform="translate(-456.52479 -510.22791)" />
    <path class="e27c5b94-d71d-47fd-aeef-613758ce9b67" d="M577.63758,623.77716" transform="translate(-456.52479 -510.22791)" />
    <path class="e611fe18-d960-4ae2-8a55-b9380bf2a7db" d="M517.92292,610.17512c-2.05727,8.74266,1.43993-12.95469,1.43993-12.95469a74.96016,74.96016,0,0,0-6.43693,25.01054,4.50181,4.50181,0,0,1-8.58037,1.54619,9.457,9.457,0,0,1-.4771-1.255c-.94641,14.47011,12.95791,11.42338,11.96518,11.00258" transform="translate(-456.52479 -510.22791)" />
    <path class="ad3a4840-3019-46e9-aaee-877456869616" d="M575.03031,608.91315c-9.016-26.30737-34.03875-22.76295-34.03875-22.76295s-25.02269-3.54442-34.03874,22.76295c-4.63157,13.51419-3.68779,20.95612-.12123,23.91635-2.58267-3.40816-2.88792-10.424,1.13-22.14772,8.74884-25.52769,33.02994-22.08832,33.02994-22.08832s24.28111-3.43937,33.02995,22.08832c4.01795,11.72372,3.7127,18.73956,1.13,22.14772C578.7181,629.86927,579.66188,622.42734,575.03031,608.91315Z" transform="translate(-456.52479 -510.22791)" />
    <path class="a8f90690-c366-40f2-915d-acb10df03576" d="M565.73971,633.37808c9.43084,3.584,16.91713-2.212,9.2906-24.46493-9.016-26.30737-34.03875-22.76295-34.03875-22.76295s-25.02269-3.54442-34.03874,22.76295c-6.86726,20.03756-1.40151,26.82905,6.61049,25.32987,3.047-.57015,50.84672,1.32127,53.25228.03994" transform="translate(-456.52479 -510.22791)" />
    <line class="e27c5b94-d71d-47fd-aeef-613758ce9b67" x1="59.43155" y1="120.32485" x2="59.43155" y2="122.60882" />
    <path class="b579da2b-1533-4b47-aede-25b0b752b195" d="M529.10728,639.26379" transform="translate(-456.52479 -510.22791)" />
    <path class="b579da2b-1533-4b47-aede-25b0b752b195" d="M537.92622,642.94049" transform="translate(-456.52479 -510.22791)" />
    <path class="b579da2b-1533-4b47-aede-25b0b752b195" d="M550.84466,662.50384" transform="translate(-456.52479 -510.22791)" />
    <path class="a8f90690-c366-40f2-915d-acb10df03576" d="M565.44325,630.2831" transform="translate(-456.52479 -510.22791)" />
    <path class="a8f90690-c366-40f2-915d-acb10df03576" d="M549.43938,671.78" transform="translate(-456.52479 -510.22791)" />
    <path class="a8f90690-c366-40f2-915d-acb10df03576" d="M544.05691,664.50354" transform="translate(-456.52479 -510.22791)" />
    <path class="a8f90690-c366-40f2-915d-acb10df03576" d="M537.92622,642.94049" transform="translate(-456.52479 -510.22791)" />
    <path class="a8f90690-c366-40f2-915d-acb10df03576" d="M516.68018,630.442" transform="translate(-456.52479 -510.22791)" />
    <path class="a8f90690-c366-40f2-915d-acb10df03576" d="M564.06021,605.6907s2.01261,6.04927,1.60124,28.8808" transform="translate(-456.52479 -510.22791)" />
    <path class="f3fa8685-d700-4a43-a59c-d16a888117cf" d="M517.92292,605.6907" transform="translate(-456.52479 -510.22791)" />
    <path class="f3fa8685-d700-4a43-a59c-d16a888117cf" d="M516.29406,644.90882" transform="translate(-456.52479 -510.22791)" />
    <path class="ee8a4648-4be1-4dae-b1e9-e3f037c4e5b7" d="M563.15546,605.82141l-.67786-7.79162a.14886.14886,0,0,1,.28552-.07062,28.3535,28.3535,0,0,1,1.25977,3.75818c.33868,1.27447.68426,2.54278.94208,3.84265a.91562.91562,0,0,1-1.79468.36413A1.033,1.033,0,0,1,563.15546,605.82141Z" transform="translate(-456.52479 -510.22791)" />
    <path class="e27c5b94-d71d-47fd-aeef-613758ce9b67" d="M540.99156,592.02663a33.32986,33.32986,0,0,1-33.22734-30.73058q-.09906,1.28547-.10006,2.59683a33.3274,33.3274,0,1,0,66.65481,0q0-1.31085-.10006-2.59683A33.32987,33.32987,0,0,1,540.99156,592.02663Z" transform="translate(-456.52479 -510.22791)" />
    <path class="bc7512b1-2b39-49c6-a188-eae1e96bb7ce" d="M525.62742,580.122a12.893,12.893,0,0,0,8.97443,4.96762" transform="translate(-456.52479 -510.22791)" />
    <path class="b579da2b-1533-4b47-aede-25b0b752b195" d="M548.68492,612.08421" transform="translate(-456.52479 -510.22791)" />
    <path class="b579da2b-1533-4b47-aede-25b0b752b195" d="M541.79433,610.79865" transform="translate(-456.52479 -510.22791)" />
    <path class="b579da2b-1533-4b47-aede-25b0b752b195" d="M548.68492,607.78187" transform="translate(-456.52479 -510.22791)" />
    <path class="b579da2b-1533-4b47-aede-25b0b752b195" d="M541.79433,609.06743" transform="translate(-456.52479 -510.22791)" />
    <path class="e611fe18-d960-4ae2-8a55-b9380bf2a7db" d="M564.06032,610.66064c2.05727,8.74266-1.43994-12.95469-1.43994-12.95469a74.95992,74.95992,0,0,1,6.43694,25.01054,4.50181,4.50181,0,0,0,8.58037,1.54618,9.45639,9.45639,0,0,0,.4771-1.255c.94641,14.47012-8.1037,13.11345-11.43288,11.1834" transform="translate(-456.52479 -510.22791)" />
    <path class="e66a364a-7afa-47e5-ad80-0ab8b3d3f396" d="M574.32691,563.89142c0,.97526-.04329,1.94185-.127,2.894a33.32455,33.32455,0,0,1-66.398,0c-.08367-.95218-.127-1.91877-.127-2.894a33.326,33.326,0,1,1,66.652,0Z" transform="translate(-456.52479 -510.22791)" />
    <path class="e611fe18-d960-4ae2-8a55-b9380bf2a7db" d="M541.00093,592.02661A33.32986,33.32986,0,0,1,507.77359,561.296q-.09906,1.28548-.10007,2.59683a33.32741,33.32741,0,1,0,66.65482,0q0-1.31085-.10007-2.59683A33.32986,33.32986,0,0,1,541.00093,592.02661Z" transform="translate(-456.52479 -510.22791)" />
    <path class="ad3a4840-3019-46e9-aaee-877456869616" d="M573.86237,558.32568a33.326,33.326,0,0,0-66.18742,5.56586c0,.97526.04329,1.94185.127,2.894a33.17368,33.17368,0,0,0,7.8647,18.75791,32.06243,32.06243,0,0,1-6.76918-17.12214c-.08091-.92076-.12277-1.85546-.12277-2.79854a32.19611,32.19611,0,0,1,15.87371-27.77454,2.006,2.006,0,0,1,1.81059-.114c1.33843.57417,3.74389.5326,6.316-.22156,2.56761-.75282,4.61169-2.01358,5.43094-3.21765a2.00222,2.00222,0,0,1,1.57939-.87518q.605-.02307,1.21562-.02334A32.20434,32.20434,0,0,1,573.2272,565.6228c0,.94308-.04186,1.87778-.12277,2.79854a32.06243,32.06243,0,0,1-6.76918,17.12214,33.17368,33.17368,0,0,0,7.8647-18.75791c.08367-.95218.127-1.91877.127-2.894A33.38485,33.38485,0,0,0,573.86237,558.32568Z" transform="translate(-456.52479 -510.22791)" />
    <path class="aeb9f9ca-3760-49fd-a580-083908bfe54e" d="M553.3661,579.83342a13.94152,13.94152,0,0,1-8.97444,4.96762" transform="translate(-456.52479 -510.22791)" />
    <path class="a277acb7-cdbc-4e40-a943-ea6229dc12d7" d="M546.61969,539.50356a24.99359,24.99359,0,0,0-3.82435-.57" transform="translate(-456.52479 -510.22791)" />
    <path class="a277acb7-cdbc-4e40-a943-ea6229dc12d7" d="M564.854,556.31a25.09,25.09,0,0,0-11.02925-13.90839" transform="translate(-456.52479 -510.22791)" />
    <circle class="bc920335-292b-4a54-af3f-6e7e9f445a8d" cx="84.55526" cy="53.58204" r="33.3714" />
    <path class="ee8a4648-4be1-4dae-b1e9-e3f037c4e5b7" d="M517.01819,604.786c.25775-1.29987.60333-2.56818.94208-3.84265a28.343,28.343,0,0,1,1.2597-3.75818.14886.14886,0,0,1,.28552.07062l-.67785,7.79162a.91558.91558,0,1,1-1.82428-.15869A1.007,1.007,0,0,1,517.01819,604.786Z" transform="translate(-456.52479 -510.22791)" />
    <path class="a8f90690-c366-40f2-915d-acb10df03576" d="M517.95438,605.59357s-2.04408,5.56932-1.6327,28.40085" transform="translate(-456.52479 -510.22791)" />
    <line class="e27c5b94-d71d-47fd-aeef-613758ce9b67" x1="91.91474" y1="123.11637" x2="91.91474" y2="125.40035" />
    <path class="a8f90690-c366-40f2-915d-acb10df03576" d="M499.9035,635.0287" transform="translate(-456.52479 -510.22791)" />
    <path class="a8f90690-c366-40f2-915d-acb10df03576" d="M549.1355,633.392" transform="translate(-456.52479 -510.22791)" />
    <path class="b579da2b-1533-4b47-aede-25b0b752b195" d="M577.28444,617.24591" transform="translate(-456.52479 -510.22791)" />
    <path class="b579da2b-1533-4b47-aede-25b0b752b195" d="M571.224,616.11523" transform="translate(-456.52479 -510.22791)" />
    <path class="b579da2b-1533-4b47-aede-25b0b752b195" d="M577.28444,613.4619" transform="translate(-456.52479 -510.22791)" />
    <path class="b579da2b-1533-4b47-aede-25b0b752b195" d="M571.224,614.59258" transform="translate(-456.52479 -510.22791)" />
    <g id="a485ab62-6e04-4d92-99e7-3f1c25633001" data-name=" G copia">
        <path class="afafda98-1caf-4766-9e40-84a5ecad9336" d="M557.50989,610.25073h-5.95752a.5139.5139,0,0,0-.57508.52173v1.96143a.62557.62557,0,0,0,.5926.56213h1.90454a.50982.50982,0,0,1,.54815.57019v.89734c0,.3504-.33075.632-.84631.80182a5.09073,5.09073,0,0,1-1.60071.22967,4.04642,4.04642,0,0,1-4.15112-4.25268v-.03162a3.98611,3.98611,0,0,1,3.88061-4.16229,5.149,5.149,0,0,1,3.21741,1.079.81156.81156,0,0,0,.80994-.0852c.47064-.5655,1.2854-1.54462,1.75207-2.10547a.63981.63981,0,0,0-.09039-.79273,8.86211,8.86211,0,0,0-5.71075-1.846,7.87827,7.87827,0,0,0-8.1731,7.891v.09943c0,4.63373,3.56287,7.91229,8.32794,7.91229a10.3748,10.3748,0,0,0,5.46246-1.518,3.3834,3.3834,0,0,0,1.18238-1.77374v-5.43287A.65865.65865,0,0,0,557.50989,610.25073Z" transform="translate(-456.52479 -510.22791)" />
    </g>
    <g id="ad9fb3af-25d5-4eb6-b666-f2174e6b7552" data-name="Forma 25 copia">
        <path class="afafda98-1caf-4766-9e40-84a5ecad9336" d="M546.71405,603.98053a2.60445,2.60445,0,1,0,2.41187,2.59735A2.50984,2.50984,0,0,0,546.71405,603.98053Z" transform="translate(-456.52479 -510.22791)" />
    </g>
    <g id="a36e246b-d959-4b40-b15b-d46f4cfcc3f1" data-name="Forma 24 copia">
        <path class="f5e708b4-179c-4734-970e-6ac9f4b9d5d0" d="M546.47821,606.70074a.07678.07678,0,0,0-.06891.11512v1.34527a.07677.07677,0,0,0,.06891.11512c.0545,0,.09869-.05152.18488-.11512v-1.34527C546.5769,606.75232,546.53271,606.70074,546.47821,606.70074Z" transform="translate(-456.52479 -510.22791)" />
    </g>
    <g id="b99e1f67-d07e-472b-909b-ae1b4b3906c6" data-name="Forma 23 copia 3">
        <path class="bb8d75ab-7f66-4597-b711-3f0bfc97233f" d="M546.48065,604.921a1.05313,1.05313,0,1,0,1.05316,1.0531A1.05313,1.05313,0,0,0,546.48065,604.921Z" transform="translate(-456.52479 -510.22791)" />
    </g>
    <g id="b3f84a86-4ffd-4215-a3f7-ba204ead0c5b" data-name="Forma 23 copia 4">
        <path class="a72655ce-03ea-45ea-a335-560c4b743b0b" d="M546.48834,605.0694a.97894.97894,0,1,0,.979.97894A.97894.97894,0,0,0,546.48834,605.0694Z" transform="translate(-456.52479 -510.22791)" />
    </g>
</svg>