<svg xmlns="http://www.w3.org/2000/svg" viewBox="0 0 118.4 118.55"><title>Glup_manosRecurso 2</title><g id="Capa_2" data-name="Capa 2"><g id="Capa_1-2" data-name="Capa 1"><g id="Manos"><path d="M2,58.6C2,27,29.45,2,58.37,2s58,27.29,58,58.91-29.08,55.58-58,55.58S2,90.21,2,58.6Z" fill="#1fb1ec" stroke="#fff" stroke-linecap="round" stroke-linejoin="round" stroke-width="4.06" fill-rule="evenodd"/><path d="M83.8,67.38S98.19,89.11,94.29,94.69s-21.76-2.37-21.76-2.37" fill="none" stroke="#000" stroke-linecap="round" stroke-linejoin="round" stroke-width="1.33" stroke-dasharray="5 5"/><path d="M11,56.36a39.06,39.06,0,0,1,7-12.46c3.79-4.55,10.33-8.68,13.92-11.43,8.9-6.8,7.48-10.8,7.48-10.8" fill="none" stroke="#000" stroke-linecap="round" stroke-linejoin="round" stroke-width="1.33" stroke-dasharray="5 5"/><path d="M64.23,58.44,68,55.17l-6.25,5.25L42.41,68.85l-8,10.51s-.89,2.85,0,4.17,5.57.09,5.57.09l8-7.85-8,7.86s-3.32,5.3-2.4,6.77,3.15.93,5.08.56a5.68,5.68,0,0,0,2.66-1l8.56-9.07-8.58,9.2s-.54,3.18,1,4,2.89-.25,5.54-1.48a23.42,23.42,0,0,0,5-3.46A238.65,238.65,0,0,0,75.6,74.24c2.13-1.94,4.89-4.45,5.39-5.49C81.84,67,82.25,60,82.78,58.64c.43-1.13,9.87-10.51,9.81-11.4S81,35.15,80.1,35.33c-1.09.22-10.31,9.92-10.31,9.92s-8.4.29-9.82.89" fill="#fbe259" stroke="#000" stroke-linecap="round" stroke-linejoin="round" stroke-width="0.43" fill-rule="evenodd"/><path d="M63.31,53.83c7.28,6.69,11,14.09,15.16,19.44,4.36,5.54-.69,9.1-3.18,6.11-2.72-3.27-11.37-11.67-11.37-11.67S79.52,80.77,75,85.13c-3.34,3.22-16-12.41-16-12.41S68.82,83.8,70,85.36a2.09,2.09,0,0,1,.24,2.47,3.32,3.32,0,0,1-3,1.42,6.7,6.7,0,0,1-3.86-2.15L53.9,77.67l9.41,9.53s2.18,1.8-.43,3.58C60.7,92.27,58,89.58,58,89.58s-6.7-7-14.47-14.08c-2.13-1.94-4.89-4.45-5.39-5.48-.85-1.74-1.26-8.77-1.79-10.12-.43-1.12-9.87-10.51-9.81-11.4S38.13,36.41,39.05,36.6c1.09.22,10.31,9.91,10.31,9.91s5.8.55,12.49,6.05C62.33,53,62.82,53.38,63.31,53.83Z" fill="#fbe259" stroke="#000" stroke-linecap="round" stroke-linejoin="round" stroke-width="0.43" fill-rule="evenodd"/><path d="M60,46.14c-2.29,1-12.68,9.51-17.06,14.38s2,6,5.06,4.27A94.06,94.06,0,0,0,56.11,59l10.12-2.56" fill="#fbe259" stroke="#000" stroke-linecap="round" stroke-linejoin="round" stroke-width="0.43" fill-rule="evenodd"/><path d="M81.13,33.9l-7.91,7.22L85.93,54.89l7.59-8Z" fill="#fe9629" stroke="#000" stroke-linecap="round" stroke-linejoin="round" stroke-width="0.43" fill-rule="evenodd"/><path d="M25.81,48.46,33,56.6,47,43.91l-7.93-7.82Z" fill="#fe9629" stroke="#000" stroke-linecap="round" stroke-linejoin="round" stroke-width="0.43" fill-rule="evenodd"/><path d="M46.81,27.6a2.77,2.77,0,1,1,2.76,2.95A2.86,2.86,0,0,1,46.81,27.6Z" fill="#a9edf2" fill-rule="evenodd"/><path d="M95.52,62.25a3,3,0,1,1,3,3A3,3,0,0,1,95.52,62.25Z" fill="#7ee7fe" fill-rule="evenodd"/><path d="M85.45,87.93a3.24,3.24,0,1,1,3.22,2.85A3.05,3.05,0,0,1,85.45,87.93Z" fill="#5ac6fe" fill-rule="evenodd"/></g></g></g></svg>