<svg xmlns="http://www.w3.org/2000/svg" xmlns:xlink="http://www.w3.org/1999/xlink" viewBox="0 0 383.2 658.9"><defs><linearGradient id="linear-gradient" x1="9.94" y1="329.43" x2="373.28" y2="329.43" gradientUnits="userSpaceOnUse"><stop offset="0" stop-color="#fffa3f"/><stop offset="0.41" stop-color="#ffdc2d"/><stop offset="1" stop-color="#ffb415"/></linearGradient><linearGradient id="linear-gradient-2" x1="90.56" y1="362.95" x2="289.86" y2="362.95" gradientUnits="userSpaceOnUse"><stop offset="0" stop-color="#ff5baf"/><stop offset="0.22" stop-color="#ff60af"/><stop offset="0.5" stop-color="#ff70b0"/><stop offset="0.8" stop-color="#ff89b1"/><stop offset="1" stop-color="#ff9eb2"/></linearGradient></defs><title>glupperson_5</title><g id="Capa_2" data-name="Capa 2"><g id="Layer_1" data-name="Layer 1"><path d="M363.5,358.8a273.2,273.2,0,0,0-21.4-55.5,263.5,263.5,0,0,0-22.2-35.2,214.9,214.9,0,0,0-28.5-30.3c-1.9-1.7-23.3-19.1-23-19.5a118.2,118.2,0,0,0,8.6-9.4c44.9-50.1,41.1-120.4-2.1-163.8S167.2-2.2,119.1,35C92,55.9,76.8,84,73.8,118.2s8.2,64,31,90.2c-.3-.3,5.6,5.5,9.9,9.5-1.6,1.7-7.6,7.4-7.8,7.6C90.5,236.7,76,250,64.5,266.2l-16,22.4c-.6,1.1-1,1.8-1.3,2.5-5.3,10.3-11.2,20.5-15.7,31.2-8.5,20-15.1,40.6-17.8,62.2C12,397.3,11,410.2,9.9,423.1c0,0,1.6,54.1,43,54.1,15.2,0,26-7.3,33.7-16.6V596.5a62.1,62.1,0,0,0,7.5,25.8c6.7,12.1,20.5,26.6,48.5,26.6,20.9,0,37-8.9,46.9-25.9,6.9,12,20.8,25.9,48.3,25.9,22.5,0,39.4-10.1,49-29.4a74.1,74.1,0,0,0,7.5-27.9l.2-130.9c7.8,9.2,19,16.5,34.6,16.5,42.5,0,44.2-54.1,44.2-54.1A304.9,304.9,0,0,0,363.5,358.8Z" stroke="#fff" stroke-miterlimit="10" stroke-width="19.86" fill="url(#linear-gradient)"/><path d="M89.2,110a102.6,102.6,0,0,1,12.7-33.7A102.6,102.6,0,0,0,89.2,110Z" fill="none"/><path d="M287.7,91.1a113.8,113.8,0,0,1,5.1,19.1A113.8,113.8,0,0,0,287.7,91.1Z" fill="none"/><polygon points="24.3 423.1 24.3 423.1 24.4 423.1 24.3 423.1" fill="none"/><path d="M51.8,464.1c22,.5,32.1-24.8,35.5-35.9H24.6C25.5,439.1,29.9,463.6,51.8,464.1Z" fill="none"/><path d="M88,120.6c.1-2.4.4-4.7.7-7.1C88.4,115.9,88.1,118.2,88,120.6Z" fill="none"/><polygon points="358.7 423.1 358.7 423.1 358.7 423.1 358.7 423.1" fill="none"/><path d="M330.2,464.1c22.5-.5,27.3-25,28.2-35.9H293.2C296.8,439.3,307.6,464.6,330.2,464.1Z" fill="none"/><path d="M286.8,428.2l-10-7.4.3,9.1-.2,161.3c-.1,2.9-2.5,41.4-39.1,41.4-15.6,0-26.4-5.7-33.1-17.4a46.1,46.1,0,0,1-5.8-19.1V428.2H181.5V596.5a63.9,63.9,0,0,0,7.5,25.8c6.8,12.1,20.7,26.6,48.8,26.6,22.5,0,39.4-10.1,49-29.4a74.1,74.1,0,0,0,7.5-27.9l.2-151A19.4,19.4,0,0,1,286.8,428.2Z" fill="#8e6603"/><path d="M149.2,169.6c8.3,9.5,19.1,14.5,31.6,15.8,8,.9,7,12.3-1,11.5-15.6-1.6-29.7-8-40.2-19.9C134.3,170.9,144.2,164,149.2,169.6Z" fill="#8e6603" fill-rule="evenodd"/><path d="M363.5,358.8a273.2,273.2,0,0,0-21.4-55.5,263.5,263.5,0,0,0-22.2-35.2,214.9,214.9,0,0,0-28.5-30.3c-1.9-1.7-23.3-19.1-23-19.5a118.2,118.2,0,0,0,8.6-9.4c44.9-50.1,41.1-120.4-2.1-163.8S167.2-2.2,119.1,35C92,55.9,76.8,84,73.8,118.2s8.2,64,31,90.2c-.3-.3,5.6,5.5,9.9,9.5-1.6,1.7-7.6,7.4-7.8,7.6C90.5,236.7,76,250,64.5,266.2l-16,22.4c-.6,1.1-1,1.8-1.3,2.5-5.3,10.3-11.2,20.5-15.7,31.2-8.5,20-15.1,40.6-17.8,62.2C12,397.3,11,410.2,9.9,423.1c0,0,1.6,54.1,43,54.1s50.4-54.1,50.4-54.1h0c.6-4.5,1.2-9,1.7-13.4,1.6-11.8,3.1-23.6,4.6-35.4s2.7-22.5,4.1-33.8c0-.3.1-.7.1-1.1s.3-2.2.5-3.2.4-2.7.6-3.8v-1a8.6,8.6,0,0,0-.3-1.7,7.9,7.9,0,0,0-1.2-3A11.5,11.5,0,0,0,112,325a7.1,7.1,0,0,0-4-1.6c-3-.3-5.9,2-7.2,5.1a8.6,8.6,0,0,0-.6,2.3c-2.3,18.2-4.7,36.5-7,54.8v.2l-2.4,18.9c-.7,6.1-1.5,12.2-2.2,18.3h0s-.4,2-1.3,5.1c-3.4,11.1-13.5,36.4-35.5,35.9s-26.3-25-27.2-35.9c-.3-3.1-.3-5.1-.3-5.1h0c.3-3.7.5-7.4.8-11.1a12.1,12.1,0,0,1,.1-1.9c.2-3.7.5-7.4.8-11.1a210.1,210.1,0,0,1,7-37c1.1-4.1,2.3-8.1,3.6-12.1.7-2.3,1.5-4.6,2.3-6.9s1.6-4.6,2.5-6.9a232.3,232.3,0,0,1,19-39.2A219,219,0,0,1,74.6,276a194.9,194.9,0,0,1,16.3-18.7,160.7,160.7,0,0,1,40.3-29.4c3.2-1.7,5.1-3.9,5.7-6.2,0-.3.1-.7.1-1a6.7,6.7,0,0,0-.5-3.1l-.5-1a13.2,13.2,0,0,0-3.7-3.8c-22.8-16-37-37.7-42.4-65.2a96.6,96.6,0,0,1-2.1-19.8c0-2.4,0-4.8.2-7.2s.4-4.7.7-7.1.3-2.3.5-3.5a102.6,102.6,0,0,1,12.7-33.7l2-3.2c10.9-17.2,24.9-29.9,42.2-38a75.9,75.9,0,0,1,9.7-4,109.6,109.6,0,0,1,15.7-4.3,123,123,0,0,1,16.7-2.1h2.7c2.7-.1,5.4,0,8.1.1a101.3,101.3,0,0,1,23.2,4.5,50.1,50.1,0,0,1,5,1.8c2.5.9,4.9,2,7.3,3.1s6.4,3.3,9.6,5.2,6.2,4,9.3,6.3a103.9,103.9,0,0,1,11.2,9.7A93.6,93.6,0,0,1,276.8,70a83,83,0,0,1,4.9,8.1c.8,1.4,1.5,2.8,2.2,4.2,1.4,2.9,2.6,5.8,3.8,8.8a113.8,113.8,0,0,1,5.1,19.1,105.4,105.4,0,0,1,1.7,14.6c0,1.6.1,3.2.1,4.8a100.4,100.4,0,0,1-3,23.2c-.4,1.5-.8,3-1.3,4.5a91.8,91.8,0,0,1-3.1,8.8c-1.2,3-2.6,5.9-4,8.8s-3.1,5.7-4.8,8.5a95.7,95.7,0,0,1-6.1,8.7l-3.4,4.1a117.5,117.5,0,0,1-15.5,14.4l-4.3,3.1a8.2,8.2,0,0,0-2.5,2.4,7.7,7.7,0,0,0-1.4,4.5,9.5,9.5,0,0,0,.4,1.8,3.6,3.6,0,0,0,.4.9,4.2,4.2,0,0,0,1.1,1.6l.7.7,1.9,1.3a145.6,145.6,0,0,1,14.4,8.3,149.7,149.7,0,0,1,17.5,13c2.8,2.3,5.4,4.7,8,7.3s5.2,5.1,7.6,7.7,4.8,5.5,7.2,8.3,4.5,5.8,6.7,8.8c1.1,1.4,2.1,3,3.2,4.5,2.3,3.3,4.5,6.8,6.6,10.2A233.6,233.6,0,0,1,335,321.6c.9,1.9,1.7,3.7,2.4,5.5a235.8,235.8,0,0,1,8.3,22.6l1.8,5.8q2.5,8.8,4.5,17.7c.4,2.2.9,4.4,1.3,6.5a25.6,25.6,0,0,1,.5,2.7c.3,1.3.5,2.5.7,3.7l.6,3.6c.2.9.3,1.8.5,2.8l.6,4.1.3,2.2c.2,1.5.4,3,.5,4.5a9.9,9.9,0,0,1,.2,1.7c.2,1.7.4,3.3.5,5s.1.8.2,1.2.3,3.6.4,5.3v.7c.2,2,.3,3.9.4,5.9h0s0,2-.3,5.1c-.9,10.9-5.7,35.4-28.2,35.9s-33.4-24.8-37-35.9c-1-3.1-1.5-5.1-1.5-5.1h0c-.7-6.1-1.4-12.2-2.2-18.3s-1.5-12.6-2.3-18.9v-.2c-2.3-18.3-4.8-36.6-7.1-54.8a8.6,8.6,0,0,0-.6-2.3c-1.2-3.1-4.2-5.4-7.2-5.1a6.8,6.8,0,0,0-3.9,1.6,8,8,0,0,0-1.5,1.7,9.9,9.9,0,0,0-1.2,3,8.8,8.8,0,0,0-.2,1.7,3.3,3.3,0,0,0,0,1,32.6,32.6,0,0,0,.6,3.8c.1,1,.3,2.1.4,3.2s.1.8.2,1.1c1.4,11.3,2.7,22.6,4.1,33.8s3,23.6,4.5,35.4l1.8,13.4s9.4,54.1,52,54.1,44.2-54.1,44.2-54.1A304.9,304.9,0,0,0,363.5,358.8Z" fill="#8e6603"/><path d="M181.7,428.2l-.2,163c-.1,2.9-2.5,41.4-38.9,41.4-15.5,0-26.3-5.7-33-17.4a49.7,49.7,0,0,1-5.8-19.1v-173l-13,5.1a21.3,21.3,0,0,1-4.2,6.5V596.5a62.1,62.1,0,0,0,7.5,25.8c6.7,12.1,20.5,26.6,48.5,26.6,22.3,0,39.2-10.1,48.8-29.4a75.1,75.1,0,0,0,7.4-27.9l.2-163.4Z" fill="#8e6603"/><circle cx="190.3" cy="428.2" r="8.7" fill="#8e6603"/><path d="M106.2,230.9s2.9,83.1,0,98.5S90.6,495.2,90.6,495.2H289.9L273.1,329.4s-8.1-93.6-1-98.5-81.9,88.4-81.9,88.4Z" stroke="#8e6603" stroke-linejoin="round" stroke-width="12.15" fill-rule="evenodd" fill="url(#linear-gradient-2)"/><g id="_G_copia" data-name=" G copia"><path d="M264.8,452.9H248.1a1.4,1.4,0,0,0-1.6,1.5V460a1.8,1.8,0,0,0,1.7,1.7h5.3a1.5,1.5,0,0,1,1.6,1.6v2.5c0,1-1,1.8-2.4,2.3a15.6,15.6,0,0,1-4.6.6c-6.9,0-11.7-5-11.7-12h0c0-6.6,4.8-11.9,11-11.9a14.6,14.6,0,0,1,9.2,3.1c.5.3,1.9.3,2.3-.3l5-6a1.7,1.7,0,0,0-.2-2.2c-4.3-3.4-9.4-5.3-16.3-5.3-13.5,0-23.4,9.9-23.4,22.5h0c0,13.2,10.1,22.5,23.6,22.5a30,30,0,0,0,15.5-4.3,9.7,9.7,0,0,0,3.3-5.1V454.4A1.7,1.7,0,0,0,264.8,452.9Z" fill="#fff" fill-rule="evenodd"/></g><g id="Forma_25_copia" data-name="Forma 25 copia"><ellipse cx="234.2" cy="442.5" rx="6.8" ry="7.3" fill="#fff"/></g><g id="Forma_24_copia" data-name="Forma 24 copia"><path d="M233.5,442.9c-.1,0-.2.1-.2.3V447c0,.2.1.3.2.3a.3.3,0,0,0,.3-.3v-3.8A.3.3,0,0,0,233.5,442.9Z" fill="#315060" fill-rule="evenodd"/></g><g id="Forma_23_copia_3" data-name="Forma 23 copia 3"><path d="M233.5,437.9a3,3,0,0,0,0,5.9,3,3,0,1,0,0-5.9Z" fill="#0087b2" fill-rule="evenodd"/></g><g id="Forma_23_copia_4" data-name="Forma 23 copia 4"><path d="M233.6,438.3a2.8,2.8,0,1,0,2.7,2.7A2.7,2.7,0,0,0,233.6,438.3Z" fill="#00a2d6" fill-rule="evenodd"/></g><path d="M227,356.8h2.8a2.8,2.8,0,0,0,2.4-1.5,50.4,50.4,0,0,0,0-47.7,2.8,2.8,0,0,0-2.4-1.5h-6.6a41.6,41.6,0,0,0-28.5,11.3h-9.3l-6.7-4.4a40.8,40.8,0,0,0-22.8-6.9h-5.2a2.8,2.8,0,0,0-2.5,1.5,50.4,50.4,0,0,0,0,47.7,2.8,2.8,0,0,0,2.5,1.5h2.8l-5.1,6.7a2.7,2.7,0,0,0-.4,2.6l5.6,16.9a2.6,2.6,0,0,0,2.3,1.8h.4a3.1,3.1,0,0,0,2.3-1.2L186,345.5h8.4l27.5,38.2a2.8,2.8,0,0,0,4.9-.7l5.6-16.9a2.7,2.7,0,0,0-.4-2.6ZM157.2,376l-3.4-10.3,6.8-9.1a39.4,39.4,0,0,0,12.7-3.1Zm24.6-49.1-7.4-3.6a2.8,2.8,0,0,0-3.8,1.3,2.7,2.7,0,0,0,1.3,3.7l6.3,3.1-6.3,3.1a2.8,2.8,0,1,0,2.5,5.1l7.4-3.6v5.5a36.5,36.5,0,0,1-24.6,9.6h-4.8a47.3,47.3,0,0,1-4.6-19.7c0-8.8,3.2-16.5,4.6-19.6h3.5a35.3,35.3,0,0,1,19.7,5.9h.1l6.1,3.9Zm11.2,13h-5.6V323H193ZM223.2,376l-16.1-22.5a39.4,39.4,0,0,0,12.7,3.1l6.8,9.1Zm0-24.9a36.5,36.5,0,0,1-24.6-9.6V336l7.2,3.6a2.8,2.8,0,0,0,3.8-1.3,2.7,2.7,0,0,0-1.3-3.7l-6.2-3.2,6.2-3.1a2.7,2.7,0,0,0,1.3-3.7,2.8,2.8,0,0,0-3.8-1.3l-7.2,3.6v-5.5a36.5,36.5,0,0,1,24.6-9.6H228a46.7,46.7,0,0,1,4.6,19.6,47.7,47.7,0,0,1-4.6,19.7Z" fill="#8e6603"/></g></g></svg>