<svg xmlns="http://www.w3.org/2000/svg" viewBox="0 0 141.73 141.73"><title>glupPage</title><g id="Capa_2" data-name="Capa 2"><g id="Capa_1-2" data-name="Capa 1"><rect width="141.73" height="141.73" rx="34.98" fill="#3ba7cc"/><g id="Capa_2-2" data-name="Capa 2"><g id="Capa_1-2-2" data-name="Capa 1-2"><path d="M40.58,51.27c0,1.56,0,3.39.84,3.7,1.12.42,3-2.3,3.29-2.64,1.3-4.23,3.17-11.46,1.93-15.92-.23-.85-.72-2.62-1.64-2.7s-1.76,1.6-1.88,1.88a12.56,12.56,0,0,0-5.4-1.41c-14.73-.35-25.06,27.89-26.2,31-2.74,7.5-6.69,18.74-2.81,31.24,1.22,4,3.33,10.8,9.86,14.1,4.49,2.26,11,2.82,15.39-.24,4.84-3.33,6.12-10.22,6.46-10.1s-2.51,5.26-.59,9.75c.09.21,1.28,2.91,2.7,2.82.92-.06,1.6-1.26,2.23-2.82,1.81-4.41,1.81-8.24,2-12.21.24-4.5.41-3,.82-9.29.24-3.65.43-7.82.47-12.44.36-.15,2.23-1,2.24-2s-1.91-2.3-4.94-2.59c-1.6-.07-3.67-.16-6.11-.23-2.82-.08-4-.08-5,.7s-2,2.07-1.64,3.06c.4,1.24,2.87,1.94,6.11,1.29Q38.84,83,39,89.74a15.47,15.47,0,0,1-3.17,10.81c-.55.66-4.5,5.49-9,4.69a7.28,7.28,0,0,1-4-2.35C18,97.73,18.4,83.63,23.4,67.3,26.88,56,33.77,39.16,38.67,39.94a4,4,0,0,1,2.58,2.11C42.4,44.26,40.58,46.28,40.58,51.27Z" fill="#fff"/><path d="M52.53,92.2a4.33,4.33,0,0,0,2.23,1.3,3,3,0,0,0,2.11-.12c1.06-.71.73-2.7.47-5.93-.17-2.12-.16-4.23-.29-6.35a92.12,92.12,0,0,1,0-9.69,86.66,86.66,0,0,1,1.64-11.74c.62-3.36,1.06-6.75,1.71-10.1.43-2.28.92-4.68-.18-7.23-.27-.63-1.16-2.69-2.64-2.82s-2.85,1.94-3.41,2.82a15.22,15.22,0,0,0-2.11,8.17c-.11,9.24-1.76,7.68-2.12,20.61-.15,5.17.19,2.86.24,11A47.53,47.53,0,0,0,51,88.5,6.41,6.41,0,0,0,52.53,92.2Z" fill="#fff"/><path d="M134.4,35.8c-.18-.83-1-4.6-3.39-5.19a4.15,4.15,0,0,0-3.18.83c-1.62,1.27-2,4.36-2.73,10.52-.07.65-.14,1.29-.28,2.24-.29,1.89-.55,2.77-.77,5.16-.15,1.6-.19,2.65-.44,4.45a45.52,45.52,0,0,1-1,5.15l-2.27,0-2.69,0a11.25,11.25,0,0,0,.56-6.49c-.71-3.11-3.15-7.26-7.09-7.75a8.08,8.08,0,0,0-5.42,1.5,9.12,9.12,0,0,0-3.46,4.38h-.07c-.08,0-.24-4.23-1.45-6.3-.6-1-2-2.38-3.26-2.3C94,42.29,92.08,52.4,91.8,53.83c-1.35,7.16.24,8.41-1,14.71s-4.4,13-6.3,12.76c-1.62-.25-2.68-5.84-1.89-10.49.48-2.84,1.22-2.85,1.85-6.39.55-3.1,1.11-6.57-.88-9.38-.39-.55-2-2.79-3.79-2.6-3.7.4-5.31,10.64-5.46,11.63-.59,3.9.08,4.34-.71,7.45-1.13,4.5-4,9.29-5.68,8.94-1.41-.3-2.31-4.23-1.76-7.32.35-2,1.11-2.64,1.67-5.72a15,15,0,0,0,.35-3.83c-.14-2.79-1.33-6.67-3-6.83-1.36-.13-2.6,2.18-3.28,3.43-1.22,2.26-1.53,4.17-2.06,12.28-.3,4.58-.31,5.51.29,6.81.36.74,1.87,3.77,5.17,4.41a7.28,7.28,0,0,0,6.29-2c1.89-1.87,2-4.34,2.82-4.29.56,0,.64,1.22,1.29,2.41a8.65,8.65,0,0,0,8.28,4c3.83-.63,5.55-5.09,6.4-4.63s-2.06,4.91-.71,9.92c.82,3,3.22,6.23,5.29,6A3.25,3.25,0,0,0,97,93.55c1.44-2,1-4.53.82-6.16a37.14,37.14,0,0,1,.35-10.63,10.4,10.4,0,0,0,5.76.57c3.15-.64,5-2.74,7-5a30.08,30.08,0,0,0,6.08-11,3.94,3.94,0,0,1,.1-.47v.05l5.29.29c0,.5,0,1.32-.11,2.33-.64,9.93-3.55,13.61-1.88,19.16.23.76,1.1,3.63,2.82,3.88a2.75,2.75,0,0,0,2.07-.84c2.22-2,1.72-6,1.59-7.31-.2-2.05,1.1-7.65,3.7-18.85,1.47-6.34,2.43-12.77,3.83-19.12A11.43,11.43,0,0,0,134.4,35.8ZM105.68,70.19c-.71,1.33-1.94,3.68-3.41,3.53a2.12,2.12,0,0,1-1.58-1.41c-.52-1.41.68-2.92,1.58-4.06,1.37-1.72,3.93-4,4.76-3.46s-.56,3.88-1.35,5.39Zm4-13.8c-.14,2.47-.22,3.68-.65,4.34-.79,1.23-1.7,1.08-5,2.71-3.18,1.53-3.88,2.41-4.41,2-1.18-.81,1.2-6.15,1.94-7.81,1.73-3.87,5.25-10.41,6.93-9.86.59.19.76,1.3,1.11,3.52a21.25,21.25,0,0,1,.12,5Z" fill="#fff"/><path d="M118.16,91.18a3.85,3.85,0,0,1,2.64-2.56,3.71,3.71,0,0,1,3.08.79,3.58,3.58,0,0,1,1,4.06,4.05,4.05,0,0,1-2.11,1.76,3.73,3.73,0,0,1-2.56.61C118.66,95.43,117.58,93.1,118.16,91.18Z" fill="#fff"/><path d="M27.77,46.93l.12-.13a1.11,1.11,0,0,1,.95-.36c.41.15.49.89.39,1.37s-.3,1-.72,1-.83-.43-.93-1.14" fill="#fff"/></g></g></g></g></svg>