<svg id="fae1f0a7-d656-4020-8001-be190fe9caca" data-name="Layer 1" xmlns="http://www.w3.org/2000/svg" xmlns:xlink="http://www.w3.org/1999/xlink" viewBox="0 0 46.82357 99.38874">
    <defs>
        <style>.b8da470e-0a83-4c4e-be8c-29667c1ac0d4{fill:#05c2ea;}.a91c75fa-bd48-4112-a9e5-7aff1205dac0,.fdee7a35-775d-49dc-9bb0-ecbce04f7523{fill:#8d6800;}.fdee7a35-775d-49dc-9bb0-ecbce04f7523{opacity:0.35;}.b6e5ceb0-f6f6-4899-aeda-379efe85fbdb{fill:url(#e0066946-e821-452f-9636-3f7d49e36a17);}.f64d74e0-477f-4cf7-af48-6d69c9a21919{fill:#fff;opacity:0.7;}.a83ed6fd-5ebb-4162-b90a-469483006d64,.ab501901-14c4-443c-93dd-4388305ca7f6,.af88930a-ab4e-4582-a3d4-18aa496ef911,.ff13bf07-3695-44be-9e5a-f08a1d37c670{fill:none;}.a83ed6fd-5ebb-4162-b90a-469483006d64,.ab501901-14c4-443c-93dd-4388305ca7f6,.ff13bf07-3695-44be-9e5a-f08a1d37c670{stroke:#8d6800;stroke-width:0.95027px;}.ab501901-14c4-443c-93dd-4388305ca7f6,.af88930a-ab4e-4582-a3d4-18aa496ef911,.ff13bf07-3695-44be-9e5a-f08a1d37c670{stroke-linecap:round;}.ab501901-14c4-443c-93dd-4388305ca7f6{stroke-linejoin:round;}.b8cbd478-29e0-4849-bc35-c42761bdbb0e{fill:url(#b284e4fa-2c76-4eb6-bc5e-d241a1509926);}.b00773d2-4dbb-439a-9765-9901fc82e8db{fill:url(#a4ecdc09-d310-432c-b8af-d75f07661d9c);}.fa8e2520-5ce7-446d-bd4f-d9a407a01c17{fill:url(#b2d7adfe-bb2c-4256-af69-08b3ba9df1fd);}.b19c396e-320e-418c-acf8-82e36dbdd90a{fill:url(#ea9f06df-ffad-45b9-9e03-a2e4d483c622);}.a83ed6fd-5ebb-4162-b90a-469483006d64,.af88930a-ab4e-4582-a3d4-18aa496ef911,.ff13bf07-3695-44be-9e5a-f08a1d37c670{stroke-miterlimit:10;}.e7964943-b252-4dd2-8a9e-839dbee2d6fa{fill:url(#e43d4a8c-6743-43b9-8264-88dac720e099);}.af88930a-ab4e-4582-a3d4-18aa496ef911{stroke:#fff;stroke-width:1.76479px;opacity:0.5;}</style>
        <linearGradient id="e0066946-e821-452f-9636-3f7d49e36a17" x1="781.72108" y1="540.941" x2="781.55318" y2="567.63608" gradientUnits="userSpaceOnUse">
            <stop offset="0" stop-color="#fef43d" />
            <stop offset="1" stop-color="#ffb518" />
        </linearGradient>
        <linearGradient id="b284e4fa-2c76-4eb6-bc5e-d241a1509926" x1="818.6448" y1="543.89435" x2="817.80533" y2="567.90313">
            <stop offset="0" stop-color="#fef43d" />
            <stop offset="1" stop-color="#ffb518" />
        </linearGradient>
        <linearGradient id="a4ecdc09-d310-432c-b8af-d75f07661d9c" x1="799.8179" y1="606.42443" x2="799.8179" y2="569.15206">
            <stop offset="0" stop-color="#fef43d" />
            <stop offset="1" stop-color="#ffb518" />
        </linearGradient>
        <radialGradient id="b2d7adfe-bb2c-4256-af69-08b3ba9df1fd" cx="800.60667" cy="530.87232" r="32.61333" gradientUnits="userSpaceOnUse">
            <stop offset="0" stop-color="#fea83b" />
            <stop offset="1" stop-color="#fa8c1b" />
        </radialGradient>
        <radialGradient id="ea9f06df-ffad-45b9-9e03-a2e4d483c622" cx="799.92461" cy="505.43645" r="47.47257" gradientUnits="userSpaceOnUse">
            <stop offset="0" stop-color="#fef43d" />
            <stop offset="0.25424" stop-color="#fee937" />
            <stop offset="0.69719" stop-color="#ffcc26" />
            <stop offset="1" stop-color="#ffb518" />
        </radialGradient>
        <radialGradient id="e43d4a8c-6743-43b9-8264-88dac720e099" cx="800.55421" cy="493.34811" r="28.46047">
            <stop offset="0" stop-color="#fea83b" />
            <stop offset="1" stop-color="#fa8c1b" />
        </radialGradient>
    </defs>
    <path class="b8da470e-0a83-4c4e-be8c-29667c1ac0d4" d="M1080,0" transform="translate(-776.40614 -496.96538)" />
    <ellipse class="fdee7a35-775d-49dc-9bb0-ecbce04f7523" cx="23.41179" cy="95.23172" rx="21.00304" ry="4.15702" />
    <path class="b6e5ceb0-f6f6-4899-aeda-379efe85fbdb" d="M786.26272,568.01807c-3.95669,4.03442-7.14854,2.33339-8.574-1.60034a17.01181,17.01181,0,0,1-.3674-9.10215c1.89-8.68883,6.29714-12.27811,6.29714-12.27811l.00176.00177,2.38992,7.05138Z" transform="translate(-776.40614 -496.96538)" />
    <path class="fdee7a35-775d-49dc-9bb0-ecbce04f7523" d="M786.26272,568.01807c-3.95669,4.03442-7.14854,2.33339-8.574-1.60034,0,0,.03952.03141.11354.082a3.23785,3.23785,0,0,0,5.04022-2.4448,72.79858,72.79858,0,0,1,1.34273-9.88057,10.82736,10.82736,0,0,0,.166-3.93939l-.73271-5.19751.00176.00177,2.38992,7.05138Z" transform="translate(-776.40614 -496.96538)" />
    <path class="f64d74e0-477f-4cf7-af48-6d69c9a21919" d="M778.5719,567.30092a17.01181,17.01181,0,0,1-.3674-9.10215c1.52571-7.014,4.69044-10.70334,5.85426-11.86564l-.43855-1.29389-.00176-.00177s-4.40711,3.58928-6.29714,12.27811a17.01181,17.01181,0,0,0,.3674,9.10215,6.8526,6.8526,0,0,0,2.10209,3.157A8.16429,8.16429,0,0,1,778.5719,567.30092Z" transform="translate(-776.40614 -496.96538)" />
    <path class="ab501901-14c4-443c-93dd-4388305ca7f6" d="M783.61794,545.03834s-4.4072,3.58873-6.296,12.27722,2.51841,17.25106,8.94034,10.70321l-.25184-15.9289Z" transform="translate(-776.40614 -496.96538)" />
    <path class="b8cbd478-29e0-4849-bc35-c42761bdbb0e" d="M813.37312,568.01807c3.9567,4.03442,7.14855,2.33339,8.574-1.60034a17.01181,17.01181,0,0,0,.3674-9.10215c-1.89-8.68883-6.29714-12.27811-6.29714-12.27811l-.00177.00177-2.38992,7.05138Z" transform="translate(-776.40614 -496.96538)" />
    <path class="fdee7a35-775d-49dc-9bb0-ecbce04f7523" d="M813.37312,568.01807c3.9567,4.03442,7.14855,2.33339,8.574-1.60034,0,0-.03952.03141-.11354.082a3.23785,3.23785,0,0,1-5.04022-2.4448,72.79715,72.79715,0,0,0-1.34274-9.88057,10.82757,10.82757,0,0,1-.166-3.93939l.73271-5.19751-.00177.00177-2.38992,7.05138Z" transform="translate(-776.40614 -496.96538)" />
    <path class="f64d74e0-477f-4cf7-af48-6d69c9a21919" d="M821.064,567.30092a17.01181,17.01181,0,0,0,.3674-9.10215c-1.52571-7.014-4.69044-10.70334-5.85426-11.86564l.43854-1.29389.00177-.00177s4.40711,3.58928,6.29714,12.27811a17.01181,17.01181,0,0,1-.3674,9.10215,6.85268,6.85268,0,0,1-2.10209,3.157A8.16429,8.16429,0,0,0,821.064,567.30092Z" transform="translate(-776.40614 -496.96538)" />
    <path class="ab501901-14c4-443c-93dd-4388305ca7f6" d="M816.0179,545.03834s4.40721,3.58873,6.296,12.27722-2.5184,17.25106-8.94033,10.70321l.25184-15.9289Z" transform="translate(-776.40614 -496.96538)" />
    <path class="b00773d2-4dbb-439a-9765-9901fc82e8db" d="M817.08783,590.21264c-.19608,2.94279-7.31282,3.45857-12.09794,1.98011a4.6672,4.6672,0,0,1-3.29607-4.45481V574.536a11.01879,11.01879,0,0,1-1.8759.159,11.34622,11.34622,0,0,1-1.55971-.10952c-.01943-.00352-.03886-.00529-.05829-.00883-.16428-.023-.25789-.04062-.25789-.04062v13.20192a4.6672,4.6672,0,0,1-3.29607,4.45481c-4.78512,1.47846-11.90186.96268-12.09794-1.98011a4.64338,4.64338,0,0,1,.55111-2.61071v-.00177a5.86376,5.86376,0,0,1,2.911-2.457,105.53827,105.53827,0,0,1-1.51025-18.2573s5.557,1.69925,15.318,1.69925,15.31805-1.69925,15.31805-1.69925a105.53773,105.53773,0,0,1-1.51026,18.2573S817.34042,586.43435,817.08783,590.21264Z" transform="translate(-776.40614 -496.96538)" />
    <path class="fdee7a35-775d-49dc-9bb0-ecbce04f7523" d="M797.942,574.536h0v13.20192a4.6672,4.6672,0,0,1-3.29607,4.45481c-4.78512,1.47846-11.90186.96268-12.09794-1.98011a4.64338,4.64338,0,0,1,.55111-2.61071c-.1572,4.18222,5.59374,3.87743,9.47444,3.20095a4.17022,4.17022,0,0,0,3.44664-4.11207v-9.80122a1.1522,1.1522,0,0,0-.72843-1.07893,6.73292,6.73292,0,0,1-3.44916-3.01015.46256.46256,0,0,1,.67508-.59956A12.60967,12.60967,0,0,0,797.942,574.536Z" transform="translate(-776.40614 -496.96538)" />
    <path class="fdee7a35-775d-49dc-9bb0-ecbce04f7523" d="M801.69382,574.536h0v13.20192a4.6672,4.6672,0,0,0,3.29607,4.45481c4.78512,1.47846,11.90186.96268,12.09794-1.98011a4.64338,4.64338,0,0,0-.55111-2.61071c.15719,4.18222-5.59375,3.87743-9.47445,3.20095a4.17022,4.17022,0,0,1-3.44663-4.11207v-9.80122a1.1522,1.1522,0,0,1,.72843-1.07893,6.73292,6.73292,0,0,0,3.44916-3.01015.46256.46256,0,0,0-.67508-.59956A12.60972,12.60972,0,0,1,801.69382,574.536Z" transform="translate(-776.40614 -496.96538)" />
    <path class="fdee7a35-775d-49dc-9bb0-ecbce04f7523" d="M799.8179,568.58542s-9.99838.3148-15.31852-1.69993V568.428s4.79192,1.637,15.31852,1.637,15.31852-1.637,15.31852-1.637v-1.54252C809.81629,568.90022,799.8179,568.58542,799.8179,568.58542Z" transform="translate(-776.40614 -496.96538)" />
    <path class="a91c75fa-bd48-4112-a9e5-7aff1205dac0" d="M785.80316,584.71637a8.04218,8.04218,0,0,1,2.16364-.624,7.20561,7.20561,0,0,1,2.24145.017,5.72134,5.72134,0,0,1,2.105.77863,4.76129,4.76129,0,0,1,1.55615,1.55322.11107.11107,0,0,1-.15716.15113l-.00964-.00684a9.75539,9.75539,0,0,0-1.71625-1.10681,5.22247,5.22247,0,0,0-1.89264-.54572,7.4084,7.4084,0,0,0-1.98053.08063,8.63705,8.63705,0,0,0-1.89551.55792l-.0271.01233a.475.475,0,1,1-.39233-.86523Z" transform="translate(-776.40614 -496.96538)" />
    <path class="a91c75fa-bd48-4112-a9e5-7aff1205dac0" d="M797.85779,575.00464a11.98018,11.98018,0,0,1-2.89276-.91821,7.305,7.305,0,0,1-2.48474-1.72046.10286.10286,0,0,1,.00805-.14533.10671.10671,0,0,1,.11646-.01446,22.883,22.883,0,0,0,2.66644,1.11c.90472.29651,1.84448.55176,2.75372.75293l.01917.00428a.47493.47493,0,0,1-.18634.93121Z" transform="translate(-776.40614 -496.96538)" />
    <path class="a91c75fa-bd48-4112-a9e5-7aff1205dac0" d="M813.41815,585.57147a8.63593,8.63593,0,0,0-1.89551-.55792,7.40819,7.40819,0,0,0-1.98053-.08063,5.22206,5.22206,0,0,0-1.89257.54572,9.75729,9.75729,0,0,0-1.71631,1.10681l-.00958.00677a.11107.11107,0,0,1-.15723-.15106,4.76244,4.76244,0,0,1,1.55615-1.55322,5.72219,5.72219,0,0,1,2.105-.77863,7.20607,7.20607,0,0,1,2.24152-.017,8.04211,8.04211,0,0,1,2.16363.624.475.475,0,0,1-.38244.86963l-.00257-.00116Z" transform="translate(-776.40614 -496.96538)" />
    <path class="a91c75fa-bd48-4112-a9e5-7aff1205dac0" d="M801.6109,574.06915c.90924-.20117,1.849-.45642,2.75366-.75293a22.87375,22.87375,0,0,0,2.66645-1.11.103.103,0,0,1,.139.04327.10674.10674,0,0,1-.01446.11652,7.30567,7.30567,0,0,1-2.48474,1.72046,11.98116,11.98116,0,0,1-2.89276.91821.475.475,0,0,1-.18732-.931Z" transform="translate(-776.40614 -496.96538)" />
    <path class="ab501901-14c4-443c-93dd-4388305ca7f6" d="M813.62542,585.14392a105.527,105.527,0,0,0,1.511-18.25843s-5.558,1.69993-15.31854,1.69993-15.31854-1.69993-15.31854-1.69993a105.52816,105.52816,0,0,0,1.511,18.25843s-3.71463,1.29068-3.4628,5.06828c.19626,2.94384,7.313,3.45976,12.09867,1.97981a4.66567,4.66567,0,0,0,3.29507-4.45452v-13.2006a11.268,11.268,0,0,0,3.75313,0v13.2006a4.66565,4.66565,0,0,0,3.29507,4.45452c4.78564,1.48,11.90241.964,12.09867-1.97981C817.34006,586.4346,813.62542,585.14392,813.62542,585.14392Z" transform="translate(-776.40614 -496.96538)" />
    <path class="fa8e2520-5ce7-446d-bd4f-d9a407a01c17" d="M798.32,548.08271l1.49788,1.92888v18.57349c-10.43224,0-15.318-1.69925-15.318-1.69925a96.55936,96.55936,0,0,1,1.51025-14.79521l-2.39168-7.05315a12.237,12.237,0,0,1,2.68313-2.02074c5.61356-3.19008,13.51634-2.82621,13.51634-2.82621l-3.91253,4.78512Z" transform="translate(-776.40614 -496.96538)" />
    <path class="fdee7a35-775d-49dc-9bb0-ecbce04f7523" d="M786.01043,552.08987l.42719,5.95023a8.394,8.394,0,0,0,7.37521,7.73271,50.50816,50.50816,0,0,0,6.00509.35716v2.45545s-10.34469.063-15.31854-1.69993C784.49938,566.88549,784.94011,558.44884,786.01043,552.08987Z" transform="translate(-776.40614 -496.96538)" />
    <path class="f64d74e0-477f-4cf7-af48-6d69c9a21919" d="M786.30158,544.60647c4.22685-2.402,9.751-2.789,12.22262-2.83369l1.29372-1.58226s-7.90278-.36387-13.51634,2.82621a12.237,12.237,0,0,0-2.68313,2.02074l.40742,1.20148A12.593,12.593,0,0,1,786.30158,544.60647Z" transform="translate(-776.40614 -496.96538)" />
    <polygon class="a91c75fa-bd48-4112-a9e5-7aff1205dac0" points="19.5 48.01 27.323 48.01 23.412 53.047 19.5 48.01" />
    <path class="ab501901-14c4-443c-93dd-4388305ca7f6" d="M799.81792,540.19042s-10.91133-.50368-16.2,4.84792l2.39249,7.05153a96.64661,96.64661,0,0,0-1.51105,14.79562s4.88641,1.69993,15.31854,1.69993V550.01219l-3.91169-5.03681Z" transform="translate(-776.40614 -496.96538)" />
    <path class="fa8e2520-5ce7-446d-bd4f-d9a407a01c17" d="M813.62571,552.09062a96.55827,96.55827,0,0,1,1.51026,14.79521s-4.88581,1.69925-15.31805,1.69925V550.01159l1.49789-1.92888,2.41465-3.10707-3.91254-4.78512s7.90279-.36387,13.51635,2.82621a12.237,12.237,0,0,1,2.68313,2.02074Z" transform="translate(-776.40614 -496.96538)" />
    <path class="fdee7a35-775d-49dc-9bb0-ecbce04f7523" d="M813.62542,552.08987l-.4272,5.95023a8.394,8.394,0,0,1-7.3752,7.73271,50.50821,50.50821,0,0,1-6.0051.35716v2.45545s10.3447.063,15.31854-1.69993C815.13646,566.88549,814.69574,558.44884,813.62542,552.08987Z" transform="translate(-776.40614 -496.96538)" />
    <path class="f64d74e0-477f-4cf7-af48-6d69c9a21919" d="M813.33427,544.60647c-4.22685-2.402-9.751-2.789-12.22262-2.83369l-1.29373-1.58226s7.90279-.36387,13.51635,2.82621a12.237,12.237,0,0,1,2.68313,2.02074L815.61,546.239A12.59331,12.59331,0,0,0,813.33427,544.60647Z" transform="translate(-776.40614 -496.96538)" />
    <path class="ab501901-14c4-443c-93dd-4388305ca7f6" d="M799.81792,540.19042s10.91134-.50368,16.2,4.84792l-2.39248,7.05153a96.646,96.646,0,0,1,1.511,14.79562s-4.8864,1.69993-15.31854,1.69993V550.01219l3.9117-5.03681Z" transform="translate(-776.40614 -496.96538)" />
    <path class="fdee7a35-775d-49dc-9bb0-ecbce04f7523" d="M813.33427,543.01673a20.2979,20.2979,0,0,1-12.01846,5.066q-.74187.05564-1.49789.05475-.75511,0-1.49788-.05475a20.29788,20.29788,0,0,1-12.01846-5.066c5.61356-3.19008,13.51634-2.82621,13.51634-2.82621S807.72071,539.82665,813.33427,543.01673Z" transform="translate(-776.40614 -496.96538)" />
    <path class="b19c396e-320e-418c-acf8-82e36dbdd90a" d="M820.21962,526.14426c0,.597-.0265,1.18877-.07773,1.77169a20.40082,20.40082,0,0,1-40.64794,0c-.05122-.58292-.07772-1.17465-.07772-1.77169a20.4017,20.4017,0,1,1,40.80339,0Z" transform="translate(-776.40614 -496.96538)" />
    <path class="fdee7a35-775d-49dc-9bb0-ecbce04f7523" d="M799.81792,543.36815a20.40406,20.40406,0,0,1-20.3413-18.81282q-.06065.78694-.06126,1.58974a20.40256,20.40256,0,0,0,40.80513,0q0-.80248-.06126-1.58974A20.40406,20.40406,0,0,1,799.81792,543.36815Z" transform="translate(-776.40614 -496.96538)" />
    <path class="fdee7a35-775d-49dc-9bb0-ecbce04f7523" d="M820.21962,526.14426c0,.597-.0265,1.18877-.07773,1.77169a33.76306,33.76306,0,0,0-40.64794,0c-.05122-.58292-.07772-1.17465-.07772-1.77169a20.43738,20.43738,0,0,1,.28439-3.40734l.01413-.03356s4.446-8.12183,20.10317-8.12183,20.10318,8.12183,20.10318,8.12183l.01413.03356A20.43738,20.43738,0,0,1,820.21962,526.14426Z" transform="translate(-776.40614 -496.96538)" />
    <path class="ff13bf07-3695-44be-9e5a-f08a1d37c670" d="M790.41221,536.08029a7.893,7.893,0,0,0,5.494,3.04111" transform="translate(-776.40614 -496.96538)" />
    <circle class="a83ed6fd-5ebb-4162-b90a-469483006d64" cx="23.41179" cy="29.17969" r="20.40257" />
    <path class="e7964943-b252-4dd2-8a9e-839dbee2d6fa" d="M799.81792,512.99166c15.65783,0,20.10351,8.12185,20.10351,8.12185l1.98671,4.62658a.8136.8136,0,0,1-1.19463,1.00178l-.03656-.02491a33.8404,33.8404,0,0,0-41.71805,0l-.03656.02491a.8136.8136,0,0,1-1.19463-1.00178l1.98671-4.62658S784.1601,512.99166,799.81792,512.99166Z" transform="translate(-776.40614 -496.96538)" />
    <path class="f64d74e0-477f-4cf7-af48-6d69c9a21919" d="M821.64408,525.12518a.78569.78569,0,0,1-.93057.027l-.03656-.02492a33.8404,33.8404,0,0,0-41.71805,0l-.03656.02492a.78571.78571,0,0,1-.93058-.027l-.264.61491a.8136.8136,0,0,0,1.19463,1.00178l.03656-.02492a33.8404,33.8404,0,0,1,41.71805,0l.03656.02492a.8136.8136,0,0,0,1.19462-1.00178Z" transform="translate(-776.40614 -496.96538)" />
    <path class="ab501901-14c4-443c-93dd-4388305ca7f6" d="M799.81792,512.99166c15.65783,0,20.10351,8.12185,20.10351,8.12185l1.98671,4.62658a.8136.8136,0,0,1-1.19463,1.00178l-.03656-.02491a33.8404,33.8404,0,0,0-41.71805,0l-.03656.02491a.8136.8136,0,0,1-1.19463-1.00178l1.98671-4.62658S784.1601,512.99166,799.81792,512.99166Z" transform="translate(-776.40614 -496.96538)" />
    <path class="e7964943-b252-4dd2-8a9e-839dbee2d6fa" d="M799.81792,512.99166c15.30105,0,20.10351,8.12185,20.10351,8.12185s1.36592-6.2479-2.40267-15.2501a6.81455,6.81455,0,0,0-1.57161-2.30077,24.308,24.308,0,0,0-32.25846,0,6.81483,6.81483,0,0,0-1.57161,2.30077c-3.76859,9.0022-2.40266,15.2501-2.40266,15.2501S784.51687,512.99166,799.81792,512.99166Z" transform="translate(-776.40614 -496.96538)" />
    <path class="fdee7a35-775d-49dc-9bb0-ecbce04f7523" d="M817.51877,505.86342a6.97311,6.97311,0,0,0-.675-1.2427,31.41527,31.41527,0,0,1,2.09538,8.41014,2.18363,2.18363,0,0,1-3.44733,1.98861c-2.86348-2.07383-7.79888-4.348-15.67394-4.348s-12.81046,2.27415-15.67393,4.348a2.18363,2.18363,0,0,1-3.44733-1.98861,31.41488,31.41488,0,0,1,2.09538-8.41014,6.97311,6.97311,0,0,0-.675,1.2427c-3.76859,9.00218-2.40266,15.25009-2.40266,15.25009s4.80245-8.12186,20.1035-8.12186,20.10351,8.12186,20.10351,8.12186S821.28736,514.8656,817.51877,505.86342Z" transform="translate(-776.40614 -496.96538)" />
    <path class="f64d74e0-477f-4cf7-af48-6d69c9a21919" d="M817.51859,505.863a6.81313,6.81313,0,0,0-1.5711-2.3,24.30789,24.30789,0,0,0-32.25913,0,6.81313,6.81313,0,0,0-1.5711,2.3c-3.76881,9.00241-2.40284,15.25051-2.40284,15.25051s.08793-.14812.27573-.40268a29.7464,29.7464,0,0,1,2.53463-13.35569,6.6577,6.6577,0,0,1,1.53541-2.24777,21.19506,21.19506,0,0,1,5.6378-3.80271.69157.69157,0,0,1,.70283.08045,4.44321,4.44321,0,0,0,3.29513-.00386,4.661,4.661,0,0,0,2.75562-1.69268.70419.70419,0,0,1,.55088-.40747,25.5305,25.5305,0,0,1,2.81547-.15486,22.61074,22.61074,0,0,1,15.75806,5.98143,6.65586,6.65586,0,0,1,1.53486,2.247,29.7465,29.7465,0,0,1,2.53485,13.35621c.18781.25456.27574.40268.27574.40268S821.2874,514.86541,817.51859,505.863Z" transform="translate(-776.40614 -496.96538)" />
    <path class="af88930a-ab4e-4582-a3d4-18aa496ef911" d="M814.61572,509.539a10.102,10.102,0,0,0-5.091-5.01611" transform="translate(-776.40614 -496.96538)" />
    <path class="ab501901-14c4-443c-93dd-4388305ca7f6" d="M799.81792,512.99166c15.30105,0,20.10351,8.12185,20.10351,8.12185s1.36592-6.2479-2.40267-15.2501a6.81455,6.81455,0,0,0-1.57161-2.30077,24.308,24.308,0,0,0-32.25846,0,6.81483,6.81483,0,0,0-1.57161,2.30077c-3.76859,9.0022-2.40266,15.2501-2.40266,15.2501S784.51687,512.99166,799.81792,512.99166Z" transform="translate(-776.40614 -496.96538)" />
</svg>