<svg xmlns="http://www.w3.org/2000/svg" viewBox="0 0 66.64 66.64"><defs><style>.cls-1{opacity:0.6;}.cls-2{fill:#9a9a9b;}</style></defs><title>gluplupaBuscador</title><g id="Capa_2" data-name="Capa 2"><g id="Layer_1" data-name="Layer 1"><g class="cls-1"><path class="cls-2" d="M65.12,57.75,47.74,40.38A25.79,25.79,0,0,0,52.06,26a26,26,0,1,0-26,26,25.79,25.79,0,0,0,14.35-4.32l4.8,4.8h0L57.75,65.12a5.21,5.21,0,0,0,7.37-7.37ZM26,46.86A20.83,20.83,0,1,1,46.86,26,20.85,20.85,0,0,1,26,46.86Zm16.47-.68a25.6,25.6,0,0,0,3.68-3.68l3.69,3.69a30.46,30.46,0,0,1-3.68,3.68Z"/><path class="cls-2" d="M40.62,20.44A15.67,15.67,0,0,0,26,10.41,1.31,1.31,0,0,0,26,13a13.11,13.11,0,0,1,12.16,8.36,1.29,1.29,0,0,0,1.21.83,1.5,1.5,0,0,0,.47-.08A1.31,1.31,0,0,0,40.62,20.44Z"/></g></g></g></svg>