<svg id="b56e4576-66f3-4651-9129-094b4bc1c1a0" data-name="Layer 1" xmlns="http://www.w3.org/2000/svg" viewBox="0 0 169.76451 169.76451">
    <defs>
        <style>.b63a036f-6fb1-4cbe-aec5-a7fba27e13b6{fill:#05c2ea;}.e025e166-3ec0-448d-aefb-b393eb225c3c{fill:#2d2d2d;opacity:0.3;}.e51e492f-7607-4870-9d41-d948500be079,.fe3abf2f-285f-4b85-a074-ee15738b6cdb{fill:#fff;}.fe3abf2f-285f-4b85-a074-ee15738b6cdb{stroke:#fff;stroke-miterlimit:10;stroke-width:0.57862px;}.bac948a4-7df2-4ec6-bac7-7de8b3c5e4f7{fill:#05eab6;}.a9158fd6-b27a-4b58-8cf7-ec837fb8ac9a,.b2845651-7f24-4918-9da0-c963bd93c191{fill:none;}.b2845651-7f24-4918-9da0-c963bd93c191{stroke:#8d6800;stroke-linecap:round;stroke-linejoin:round;stroke-width:1.82827px;}</style>
    </defs>
    <path class="b63a036f-6fb1-4cbe-aec5-a7fba27e13b6" d="M1080,0" transform="translate(-456.52479 -510.22791)" />
    <path class="b63a036f-6fb1-4cbe-aec5-a7fba27e13b6" d="M0,0" transform="translate(-456.52479 -510.22791)" />
    <circle class="e025e166-3ec0-448d-aefb-b393eb225c3c" cx="84.88225" cy="84.88226" r="84.59295" />
    <circle class="fe3abf2f-285f-4b85-a074-ee15738b6cdb" cx="84.88226" cy="84.88226" r="84.59295" />
    <circle class="bac948a4-7df2-4ec6-bac7-7de8b3c5e4f7" cx="84.88225" cy="84.88226" r="77.80213" />
    <polygon class="e51e492f-7607-4870-9d41-d948500be079" points="130.985 86.422 132.667 91.774 138.018 93.455 132.667 95.136 130.985 100.488 129.304 95.136 123.952 93.455 129.304 91.774 130.985 86.422" />
    <polygon class="e51e492f-7607-4870-9d41-d948500be079" points="53.462 62.699 55.143 68.05 60.495 69.732 55.143 71.413 53.462 76.765 51.781 71.413 46.429 69.732 51.781 68.05 53.462 62.699" />
    <polygon class="e51e492f-7607-4870-9d41-d948500be079" points="46.846 49.58 47.945 53.078 51.443 54.177 47.945 55.277 46.846 58.775 45.746 55.277 42.248 54.177 45.746 53.078 46.846 49.58" />
    <path class="b2845651-7f24-4918-9da0-c963bd93c191" d="M499.9035,635.0287" transform="translate(-456.52479 -510.22791)" />
    <path class="b2845651-7f24-4918-9da0-c963bd93c191" d="M549.1355,633.392" transform="translate(-456.52479 -510.22791)" />
    <path class="a9158fd6-b27a-4b58-8cf7-ec837fb8ac9a" d="M577.28444,617.24591" transform="translate(-456.52479 -510.22791)" />
    <path class="a9158fd6-b27a-4b58-8cf7-ec837fb8ac9a" d="M571.224,616.11523" transform="translate(-456.52479 -510.22791)" />
    <path class="a9158fd6-b27a-4b58-8cf7-ec837fb8ac9a" d="M577.28444,613.4619" transform="translate(-456.52479 -510.22791)" />
    <path class="a9158fd6-b27a-4b58-8cf7-ec837fb8ac9a" d="M571.224,614.59258" transform="translate(-456.52479 -510.22791)" />
    <path class="e51e492f-7607-4870-9d41-d948500be079" d="M505.97894,592.035a10.76876,10.76876,0,0,1,15.23252,0l13.92766,13.92766L570.61177,570.49a10.771,10.771,0,0,1,15.23253,15.23252L542.75573,628.8111a10.76655,10.76655,0,0,1-15.2318,0l-21.54428-21.54428a10.76594,10.76594,0,0,1-.00072-15.2318Z" transform="translate(-456.52479 -510.22791)" />
</svg>