<svg xmlns="http://www.w3.org/2000/svg" viewBox="0 0 121.19 121.19">
	<defs>
		<style>.cls-1{fill:#2d2d2d;opacity:0.3;}.cls-2,.cls-6{fill:#05c2ea;}.cls-2{stroke:#fff;stroke-width:5px;}.cls-2,.cls-3,.cls-7,.cls-8{stroke-miterlimit:10;}.cls-3{fill:#fff;stroke:#b5b4b4;stroke-width:0.18px;}.cls-4,.cls-7,.cls-8{fill:none;stroke:#05c2ea;stroke-width:1.26px;}.cls-4,.cls-7{stroke-linecap:round;}.cls-4{stroke-linejoin:round;}.cls-5{fill:#9339fb;opacity:0.35;}</style>
	</defs>
	<title>gps</title>
	<g id="Capa_2" data-name="Capa 2">
		<g id="Layer_1" data-name="Layer 1">
			<circle class="cls-1" cx="60.59" cy="60.59" r="58.09" />
			<circle class="cls-2" cx="60.59" cy="60.59" r="58.09" />
			<circle class="cls-3" cx="60.59" cy="60.59" r="53.43" />
			<path class="cls-4" d="M77.3,86.87c6.48,2.46,11.62-1.52,6.38-16.8-2.26-6.61-8.59-13.66-9.83-12.72A23.52,23.52,0,0,1,60.92,62c-1.8.89-13.28-3.77-14.53-4.85-2.2-1.88-7.13,6.15-9.46,12.94-4.71,13.76-1,18.43,4.54,17.4,2.09-.39,34.92.9,36.57,0" />
			<line class="cls-5" x1="43.12" y1="84.93" x2="43.12" y2="86.5" />
			<path class="cls-4" d="M76.15,67.86s1.38,4.15,1.1,19.83" />
			<path class="cls-6" d="M75.53,68l-.47-5.35a.1.1,0,0,1,.1-.11.1.1,0,0,1,.1.06,20,20,0,0,1,.86,2.58c.24.88.47,1.75.65,2.64a.63.63,0,0,1-1.23.25A.17.17,0,0,1,75.53,68Z" />
			<path class="cls-7" d="M68.81,50.1a9.56,9.56,0,0,1-6.17,3.41" />
			<circle class="cls-8" cx="60.37" cy="39.1" r="22.92" />
			<path class="cls-6" d="M43.84,67.24c.18-.9.42-1.77.65-2.64A21.73,21.73,0,0,1,45.36,62a.1.1,0,0,1,.13-.06.1.1,0,0,1,.06.11l-.46,5.35a.63.63,0,0,1-1.26-.11A.17.17,0,0,0,43.84,67.24Z" />
			<path class="cls-4" d="M44.49,67.79s-1.41,3.83-1.12,19.51" />
			<line class="cls-5" x1="65.42" y1="86.85" x2="65.42" y2="88.42" />
		</g>
	</g>
</svg>