<svg xmlns="http://www.w3.org/2000/svg" xmlns:xlink="http://www.w3.org/1999/xlink" viewBox="0 0 42.4 50.4"><defs><linearGradient id="linear-gradient" x1="1.78" y1="25.15" x2="40.69" y2="25.15" gradientUnits="userSpaceOnUse"><stop offset="0" stop-color="#fffa3f"/><stop offset="0.41" stop-color="#ffdc2d"/><stop offset="1" stop-color="#ffb415"/></linearGradient></defs><title>MiCuenta</title><g id="Capa_2" data-name="Capa 2"><g id="Layer_1" data-name="Layer 1"><path d="M35.5,31.9A21,21,0,0,0,28,25.2a.8.8,0,0,1-.1-1.5,11.3,11.3,0,0,0,3.4-3.5A11.9,11.9,0,0,0,33,11.6a11.4,11.4,0,0,0-4.6-7.4A11.2,11.2,0,0,0,18.9,2a11.1,11.1,0,0,0-7.8,5.3A11.7,11.7,0,0,0,9.4,16a12,12,0,0,0,5,7.6.9.9,0,0,1-.2,1.7,21,21,0,0,0-8.2,8A29.2,29.2,0,0,0,2,45.2c-.1,1.1-.2,2.3-.2,3.4H9.2l.6-4.9c.3-2.2.6-4.3.8-6.4a1.1,1.1,0,0,1,.9-.9,1,1,0,0,1,.8,1.1c0,.2-.1.6-.1.9s-.3,2.6-.5,3.9-.3,2.8-.5,4.1l-.3,2.2H31.3L31,46.4l-.6-4.1c-.1-1.3-.3-2.6-.4-3.9s-.1-.7-.2-.9a1.1,1.1,0,0,1,.8-1.1.9.9,0,0,1,.9.9c.3,2.1.6,4.2.8,6.4s.5,3.2.7,4.9h7.7a44.8,44.8,0,0,0-.8-6.4A30.3,30.3,0,0,0,35.5,31.9Z" fill="url(#linear-gradient)"/><path d="M42.4,48.6a37.8,37.8,0,0,0-1.2-8.1,31.4,31.4,0,0,0-2.5-6.4A25.7,25.7,0,0,0,36.1,30a22,22,0,0,0-3.3-3.5c-.2-.2-2.7-2.2-2.7-2.3l1.1-1.1A13.7,13.7,0,0,0,12.8,2.9a13.2,13.2,0,0,0-5.3,9.7,14.1,14.1,0,0,0,3.6,10.5,7.4,7.4,0,0,1,1.2,1.1l-.9.8a22.8,22.8,0,0,0-5,4.8L4.6,32.4l-.2.3c-.6,1.2-1.3,2.3-1.8,3.6A29.8,29.8,0,0,0,.5,43.5c-.2,2-.3,3.9-.5,5.9a.9.9,0,0,0,.8,1H41.7a.7.7,0,0,0,.7-.7V48.6Zm-9.5,0-.6-4.9c-.2-2.2-.5-4.3-.8-6.4a1.1,1.1,0,0,0-.9-.9,1,1,0,0,0-.8,1.1c0,.2.1.6.1.9s.4,2.6.5,3.9.4,2.8.5,4.1l.3,2.2H10.9l.3-2.2c.1-1.3.3-2.7.5-4.1s.3-2.6.5-3.9.1-.7.1-.9a1,1,0,0,0-.8-1.1,1.1,1.1,0,0,0-.9.9c-.3,2.1-.5,4.2-.8,6.4l-.6,4.9H1.8c0-1.1.1-2.3.2-3.4A29.2,29.2,0,0,1,6,33.3a20.4,20.4,0,0,1,8.2-8c.9-.4.9-1.2.1-1.7A11.9,11.9,0,0,1,9.4,16,12.1,12.1,0,0,1,11,7.3,11.5,11.5,0,0,1,18.9,2a11.2,11.2,0,0,1,9.5,2.2A11.4,11.4,0,0,1,33,11.6a12.4,12.4,0,0,1-1.7,8.6,12.6,12.6,0,0,1-3.4,3.5.8.8,0,0,0,.1,1.5,21,21,0,0,1,7.5,6.7,32.4,32.4,0,0,1,4.4,10.3,44.8,44.8,0,0,1,.8,6.4Z" fill="#fff"/><path d="M26.1,18.6a5.7,5.7,0,0,1-3.7,1.8.7.7,0,1,0,.1,1.3,6.8,6.8,0,0,0,4.7-2.3C27.8,18.7,26.7,17.9,26.1,18.6Z" fill="#fff" fill-rule="evenodd"/></g></g></svg>