<svg xmlns="http://www.w3.org/2000/svg" xmlns:xlink="http://www.w3.org/1999/xlink" viewBox="0 0 69.07 78.57">
    <defs>
        <style>.cls-1{opacity:0.8;}.cls-2{stroke:#00a2d6;stroke-miterlimit:10;stroke-width:1.64px;fill:url(#linear-gradient);}.cls-3{fill:#00a2d6;}.cls-4{fill:#b2f4f9;}</style>
        <linearGradient id="linear-gradient" x1="0.82" y1="39.01" x2="68.25" y2="39.01" gradientUnits="userSpaceOnUse">
            <stop offset="0" stop-color="#08d5f7" />
            <stop offset="0.27" stop-color="#07d0f4" />
            <stop offset="0.57" stop-color="#05c2eb" />
            <stop offset="0.89" stop-color="#02acdc" />
            <stop offset="1" stop-color="#00a2d6" />
        </linearGradient>
    </defs>
    <title>marker_glup</title>
    <g id="Capa_2" data-name="Capa 2">
        <g id="Layer_1" data-name="Layer 1">
            <g class="cls-1">
                <path class="cls-2" d="M34.54.82a33.72,33.72,0,0,0-7.31,66.63l7.31,9.75,7.31-9.75A33.72,33.72,0,0,0,34.54.82Z" />
            </g>
            <circle class="cls-3" cx="34.16" cy="34.39" r="16.96" />
            <path class="cls-4" d="M36.39,24.28a2.06,2.06,0,0,0-1.7-2.18c-2.5-.49-8.58-.93-11.26,5.67,0,0-.65,1.69,1.22,1.48a3.45,3.45,0,0,0,2.29-1.31c.92-1.15,3.11-3,7.19-2.14a1.85,1.85,0,0,0,2.22-1.27A2.17,2.17,0,0,0,36.39,24.28Z" />
        </g>
    </g>
</svg>