<svg xmlns="http://www.w3.org/2000/svg" xmlns:xlink="http://www.w3.org/1999/xlink" viewBox="0 0 38.89 42.43">
    <defs>
        <style>.cls-1{fill:url(#linear-gradient);}.cls-2{fill:url(#linear-gradient-2);}.cls-3{fill:url(#linear-gradient-3);}</style>
        <linearGradient id="linear-gradient" x1="11.05" y1="38.45" x2="24.31" y2="38.45" gradientUnits="userSpaceOnUse">
            <stop offset="0" stop-color="#ffc13f" />
            <stop offset="0.3" stop-color="#ffae31" />
            <stop offset="1" stop-color="#ff8615" />
        </linearGradient>
        <linearGradient id="linear-gradient-2" x1="0" y1="21.21" x2="35.36" y2="21.21">
            <stop offset="0" stop-color="#ffc13f" />
            <stop offset="0.3" stop-color="#ffae31" />
            <stop offset="1" stop-color="#ff8615" />
        </linearGradient>
        <linearGradient id="linear-gradient-3" x1="21.21" y1="8.84" x2="38.89" y2="8.84">
            <stop offset="0" stop-color="#ffc13f" />
            <stop offset="0.3" stop-color="#ffae31" />
            <stop offset="1" stop-color="#ff8615" />
        </linearGradient>
    </defs>
    <title>glupRecurso 1</title>
    <g id="Capa_2" data-name="Capa 2">
        <g id="Layer_1" data-name="Layer 1">
            <path class="cls-1" d="M17.68,42.43a6.63,6.63,0,0,1-6.63-6.63,1.33,1.33,0,1,1,2.65,0,4,4,0,0,0,8,0,1.33,1.33,0,1,1,2.65,0A6.64,6.64,0,0,1,17.68,42.43Z" />
            <path class="cls-2" d="M32.26,37.13H3.09a3.1,3.1,0,0,1-2-5.45l.14-.11a11.85,11.85,0,0,0,4.08-9V17.68A12.4,12.4,0,0,1,17.68,5.3a5.09,5.09,0,0,1,.87.06A1.32,1.32,0,1,1,18.12,8a3.27,3.27,0,0,0-.44,0A9.73,9.73,0,0,0,8,17.68v4.93A14.57,14.57,0,0,1,2.82,33.7l-.07.06a.42.42,0,0,0-.1.27.44.44,0,0,0,.44.44H32.26a.45.45,0,0,0,.45-.44.42.42,0,0,0-.1-.27l-.08-.06A14.56,14.56,0,0,1,27.4,22.61V20.68a1.33,1.33,0,0,1,2.65,0v1.93a11.9,11.9,0,0,0,4.09,9l.14.1a3.1,3.1,0,0,1-2,5.45Z" />
            <path class="cls-3" d="M30.05,17.68a8.84,8.84,0,1,1,8.84-8.84A8.86,8.86,0,0,1,30.05,17.68Zm0-15a6.19,6.19,0,1,0,6.19,6.19A6.19,6.19,0,0,0,30.05,2.65Z" />
        </g>
    </g>
</svg>