<svg xmlns="http://www.w3.org/2000/svg" xmlns:xlink="http://www.w3.org/1999/xlink" viewBox="0 0 49.1 42.2">
    <defs>
        <linearGradient id="linear-gradient" y1="21.1" x2="49.1" y2="21.1" gradientUnits="userSpaceOnUse">
            <stop offset="0" stop-color="#6fd645" />
            <stop offset="1" stop-color="#a2eb33" />
        </linearGradient>
        <linearGradient id="linear-gradient-2" x1="3.86" y1="28.72" x2="38.55" y2="28.72">
            <stop offset="0" stop-color="#6fd645" />
            <stop offset="1" stop-color="#a2eb33" />
        </linearGradient>
        <linearGradient id="linear-gradient-3" x1="15.42" y1="28.72" x2="26.99" y2="28.72">
            <stop offset="0" stop-color="#6fd645" />
            <stop offset="1" stop-color="#a2eb33" />
        </linearGradient>
        <linearGradient id="linear-gradient-4" x1="9.16" y1="28.72" x2="12.05" y2="28.72">
            <stop offset="0" stop-color="#6fd645" />
            <stop offset="1" stop-color="#a2eb33" />
        </linearGradient>
        <linearGradient id="linear-gradient-5" x1="30.36" y1="28.72" x2="33.25" y2="28.72">
            <stop offset="0" stop-color="#6fd645" />
            <stop offset="1" stop-color="#a2eb33" />
        </linearGradient>
    </defs>
    <title>Pagos</title>
    <g id="Capa_2" data-name="Capa 2">
        <g id="Layer_1" data-name="Layer 1">
            <path d="M49,23.9h0L39.8.6A1,1,0,0,0,38.5.1h0L.9,15l-.4.3a1.1,1.1,0,0,0-.5.9v25a.9.9,0,0,0,1,1H41.4a.9.9,0,0,0,1-1V27.6l6.1-2.5A.9.9,0,0,0,49,23.9ZM40.5,40.3H1.9V17.2H40.5ZM16.1,15.2,32.2,8.8a7.9,7.9,0,0,0,5.5,2.4l1.7,4ZM42.4,25.5V16.2a1,1,0,0,0-1-1h0l-2-5.1h-.1a1,1,0,0,0-1-.8,6,6,0,0,1-5.1-2.1A1,1,0,0,0,32,6.8h-.1L12.2,14.7a1,1,0,0,0-.6.5H5.7l32.6-13,8.6,21.5Z" fill="url(#linear-gradient)" />
            <path d="M4.5,33.8a5.5,5.5,0,0,1,3.9,3.9,1,1,0,0,0,1,.6h.1a.1.1,0,0,1,.1.1H32.8c0-.1,0-.1.1-.1a.9.9,0,0,0,1.1-.6h0a5.5,5.5,0,0,1,3.9-3.9,1,1,0,0,0,.6-1.1.1.1,0,0,1,.1-.1V24.9c-.1-.1-.1-.1-.1-.2a.8.8,0,0,0-.6-1A5.9,5.9,0,0,1,34,19.8a1,1,0,0,0-1.1-.7H9.5a1,1,0,0,0-1.1.7,5.9,5.9,0,0,1-3.9,3.9.8.8,0,0,0-.6,1v7.9h0A1,1,0,0,0,4.5,33.8Zm1.3-8.5A7.7,7.7,0,0,0,10,21H32.4a8,8,0,0,0,4.2,4.3v6.9a7.9,7.9,0,0,0-4.2,4.2H10a7.5,7.5,0,0,0-4.2-4.2Z" fill="url(#linear-gradient-2)" />
            <path d="M21.2,34.5a5.8,5.8,0,1,0-5.8-5.8A5.8,5.8,0,0,0,21.2,34.5Zm0-9.6a3.9,3.9,0,0,1,3.9,3.8,3.9,3.9,0,0,1-7.8,0A3.9,3.9,0,0,1,21.2,24.9Z" fill="url(#linear-gradient-3)" />
            <path d="M10.6,30.2A1.5,1.5,0,0,0,12,28.7a1.4,1.4,0,0,0-2.8,0A1.5,1.5,0,0,0,10.6,30.2Zm0-2a.5.5,0,1,1-.5.5A.5.5,0,0,1,10.6,28.2Z" fill="url(#linear-gradient-4)" />
            <path d="M31.8,30.2a1.5,1.5,0,0,0,1.5-1.5,1.5,1.5,0,0,0-1.5-1.4,1.4,1.4,0,0,0-1.4,1.4A1.5,1.5,0,0,0,31.8,30.2Zm0-2a.5.5,0,1,1-.5.5A.5.5,0,0,1,31.8,28.2Z" fill="url(#linear-gradient-5)" />
        </g>
    </g>
</svg>