<?xml version="1.0" encoding="utf-8"?>
<!-- Generator: Adobe Illustrator 25.2.3, SVG Export Plug-In . SVG Version: 6.00 Build 0)  -->
<svg version="1.1" id="Capa_1" xmlns="http://www.w3.org/2000/svg" xmlns:xlink="http://www.w3.org/1999/xlink" x="0px" y="0px"
	 viewBox="0 0 141 141" style="enable-background:new 0 0 141 141;" xml:space="preserve">
<style type="text/css">
	.st0{fill:#FFFFFF;}
	.st1{fill:#4E56A1;}
</style>
<g>
	<g>
		<path class="st0" d="M84.9,75.99h-2.08c-0.78,0-1.48-0.49-1.75-1.22c-0.23-0.6-0.48-1.2-0.74-1.78c-0.33-0.71-0.18-1.56,0.38-2.11
			l1.48-1.48c2.2-2.22,2.2-5.8-0.01-8.01l-5.34-5.34c-2.22-2.2-5.8-2.2-8.01,0l-1.48,1.48c-0.55,0.56-1.4,0.71-2.11,0.38
			c-0.59-0.27-1.18-0.51-1.78-0.76c-0.74-0.27-1.23-0.97-1.23-1.75v-2.08c0-3.13-2.54-5.67-5.67-5.67h-7.56
			c-3.13,0-5.67,2.54-5.67,5.67v2.08c0,0.78-0.49,1.48-1.22,1.75c-0.6,0.23-1.2,0.48-1.78,0.74c-0.71,0.33-1.56,0.18-2.11-0.38
			l-1.48-1.48c-2.22-2.2-5.79-2.2-8.01,0l-5.34,5.36c-2.2,2.22-2.2,5.8,0,8.01l1.48,1.48c0.56,0.55,0.71,1.4,0.38,2.11
			c-0.27,0.59-0.51,1.18-0.75,1.78c-0.27,0.74-0.98,1.23-1.76,1.22h-2.08c-3.13,0-5.67,2.54-5.67,5.67v7.56
			c0,3.13,2.54,5.67,5.67,5.67h2.08c0.78,0,1.48,0.49,1.75,1.22c0.23,0.6,0.48,1.2,0.74,1.78c0.33,0.71,0.18,1.56-0.38,2.11
			l-1.48,1.48c-2.2,2.22-2.2,5.79,0,8.01l5.34,5.34c2.22,2.2,5.8,2.2,8.01,0l1.48-1.48c0.55-0.56,1.4-0.71,2.11-0.38
			c0.59,0.27,1.18,0.51,1.78,0.76c0.74,0.26,1.24,0.97,1.24,1.75v2.08c0,3.13,2.54,5.67,5.67,5.67h7.56c3.13,0,5.67-2.54,5.67-5.67
			v-2.08c0-0.78,0.49-1.48,1.22-1.75c0.6-0.23,1.2-0.48,1.78-0.74c0.71-0.33,1.56-0.18,2.11,0.38l1.48,1.48
			c2.22,2.2,5.8,2.19,8.01-0.01l5.34-5.34c2.2-2.22,2.2-5.8,0-8.01l-1.48-1.48c-0.56-0.55-0.71-1.4-0.38-2.11
			c0.27-0.59,0.51-1.18,0.76-1.78c0.27-0.74,0.97-1.23,1.75-1.23h2.08c3.13,0,5.67-2.54,5.67-5.67v-7.56
			C90.56,78.53,88.03,75.99,84.9,75.99z M86.78,89.22c0,1.04-0.85,1.89-1.89,1.89h-2.08c-2.35,0.01-4.45,1.46-5.29,3.65
			c-0.2,0.53-0.42,1.05-0.65,1.56c-0.97,2.14-0.52,4.67,1.13,6.34l1.48,1.48c0.74,0.74,0.74,1.93,0,2.67c0,0,0,0,0,0l-5.34,5.34
			c-0.74,0.74-1.93,0.74-2.67,0l-1.48-1.48c-1.67-1.66-4.2-2.11-6.34-1.13c-0.51,0.23-1.03,0.45-1.56,0.65
			c-2.19,0.84-3.64,2.94-3.65,5.29v2.08c0,1.04-0.85,1.89-1.89,1.89h-7.56c-1.04,0-1.89-0.85-1.89-1.89v-2.08
			c-0.01-2.35-1.46-4.45-3.65-5.29c-0.53-0.2-1.05-0.42-1.56-0.65c-2.14-0.97-4.67-0.52-6.34,1.13l-1.48,1.48
			c-0.74,0.74-1.93,0.74-2.67,0c0,0,0,0,0,0l-5.34-5.33c-0.74-0.74-0.74-1.93,0-2.67l1.48-1.48c1.65-1.68,2.11-4.2,1.13-6.34
			c-0.23-0.51-0.45-1.03-0.65-1.56c-0.84-2.19-2.94-3.65-5.29-3.66h-2.08c-1.04,0-1.89-0.85-1.89-1.89v-7.56
			c0-1.04,0.85-1.89,1.89-1.89h2.08c2.35-0.01,4.45-1.46,5.29-3.65c0.2-0.53,0.42-1.05,0.65-1.56c0.97-2.14,0.52-4.67-1.13-6.34
			l-1.49-1.48c-0.74-0.74-0.74-1.93,0-2.67c0,0,0,0,0,0l5.34-5.34c0.74-0.74,1.93-0.74,2.67,0l1.48,1.48
			c1.67,1.66,4.2,2.11,6.34,1.13c0.51-0.23,1.03-0.45,1.56-0.65c2.2-0.84,3.65-2.94,3.66-5.29v-2.08c0-1.04,0.85-1.89,1.89-1.89
			h7.56c1.04,0,1.89,0.85,1.89,1.89v2.08c0.01,2.35,1.46,4.45,3.65,5.29c0.53,0.2,1.05,0.42,1.56,0.65
			c2.14,0.97,4.67,0.52,6.34-1.13l1.48-1.48c0.74-0.73,1.93-0.73,2.67,0l5.34,5.34c0.74,0.74,0.74,1.93,0,2.67l-1.48,1.48
			c-1.65,1.68-2.11,4.2-1.13,6.34c0.23,0.51,0.45,1.03,0.65,1.56c0.84,2.19,2.94,3.64,5.29,3.65h2.08c1.04,0,1.89,0.85,1.89,1.89
			L86.78,89.22L86.78,89.22z"/>
	</g>
</g>
<g>
	<g>
		<path class="st0" d="M69.74,84.69c-0.02-0.45-0.05-0.91-0.11-1.35c-0.06-0.48-0.13-0.96-0.23-1.43c-0.07-0.31-0.15-0.61-0.24-0.92
			c-0.11-0.39-0.22-0.77-0.36-1.15c-0.09-0.26-0.19-0.52-0.29-0.78c-0.24-0.61-0.52-1.2-0.83-1.77c-0.02-0.04-0.04-0.09-0.06-0.13
			c-0.49-0.87-1.06-1.7-1.7-2.48c-0.05-0.07-0.12-0.13-0.17-0.2c-0.26-0.31-0.53-0.61-0.81-0.89c-0.15-0.15-0.3-0.3-0.46-0.44
			c-0.19-0.18-0.38-0.35-0.57-0.52c-0.23-0.2-0.46-0.39-0.7-0.58l-0.31-0.23c-2.92-2.19-6.48-3.37-10.13-3.37
			c-0.19,0-0.38,0.03-0.57,0.04c-0.4,0.01-0.81,0.03-1.21,0.08c-0.21,0.02-0.43,0.05-0.64,0.08c-0.62,0.08-1.23,0.2-1.83,0.34
			C39.42,71.32,33.95,80.6,36.3,89.7c1.55,6,6.23,10.68,12.23,12.22c0.03,0,0.06,0.01,0.09,0.02c0.65,0.16,1.31,0.29,1.98,0.38
			c0.44,0.05,0.88,0.07,1.32,0.09c0.29,0.02,0.57,0.06,0.87,0.06c0.54,0,1.1-0.04,1.67-0.09c0.06,0,0.12-0.02,0.19-0.02
			c0.46-0.05,0.92-0.12,1.4-0.21c0.19-0.04,0.36-0.08,0.55-0.12c0.33-0.08,0.66-0.16,1-0.26c0.26-0.08,0.52-0.17,0.78-0.26
			c0.26-0.09,0.53-0.19,0.8-0.29c0.27-0.1,0.49-0.22,0.74-0.33c0.32-0.15,0.63-0.29,0.94-0.46h0.01c1.76-0.94,3.39-2.12,4.84-3.5
			c0.39-0.37,0.73-0.78,1.01-1.24c1.47-2.36,2.44-5.01,2.85-7.77c0.05-0.36,0.1-0.73,0.13-1.1c0.03-0.34,0.05-0.68,0.05-1.02
			c0-0.11,0.02-0.21,0.02-0.32C69.78,85.19,69.75,84.94,69.74,84.69z M65.97,85.92c0,0.16-0.01,0.31-0.02,0.47
			c-0.03,0.46-0.09,0.91-0.17,1.37c-0.71,3.93-3.15,7.33-6.64,9.26c-0.23,0.12-0.46,0.24-0.7,0.34l-0.16,0.08
			c-1.1,0.5-2.26,0.85-3.45,1.04c-0.08,0.01-0.17,0.03-0.25,0.04c-0.24,0.03-0.47,0.06-0.7,0.08c-0.3,0.03-0.61,0.04-0.92,0.05
			c-0.13,0-0.26,0-0.39,0c-0.45-0.01-0.89-0.03-1.34-0.08l-0.23-0.03c-0.52-0.07-1.04-0.17-1.54-0.29
			c-7.08-1.81-11.35-9.02-9.54-16.1c1.2-4.68,4.85-8.33,9.52-9.53v0c1.09-0.27,2.2-0.41,3.32-0.42c0.54,0,1.08,0.04,1.62,0.11
			c0.14,0.02,0.29,0.04,0.43,0.06c0.41,0.06,0.81,0.15,1.21,0.25c0.13,0.03,0.26,0.06,0.39,0.1c1,0.29,1.97,0.7,2.88,1.21
			c0.15,0.09,0.29,0.17,0.43,0.26c0.3,0.19,0.59,0.38,0.87,0.59c0.15,0.11,0.31,0.22,0.46,0.34c0.37,0.3,0.73,0.61,1.06,0.94
			c0.13,0.14,0.26,0.29,0.39,0.43c0.22,0.24,0.43,0.48,0.63,0.73c0.14,0.18,0.27,0.36,0.41,0.54c0.19,0.27,0.38,0.56,0.55,0.84
			c0.09,0.16,0.19,0.31,0.29,0.47c0.24,0.45,0.46,0.91,0.65,1.39c0.08,0.19,0.14,0.38,0.21,0.57c0.12,0.35,0.23,0.7,0.32,1.05
			c0.05,0.19,0.1,0.36,0.14,0.54c0.11,0.51,0.19,1.03,0.24,1.55c0.01,0.14,0.01,0.28,0.02,0.42C65.98,85.05,65.99,85.49,65.97,85.92
			z"/>
	</g>
</g>
<g>
	<g>
		<path class="st0" d="M122.69,49.54h-5.94c-0.79,0.01-1.5-0.49-1.76-1.24c-0.59-1.76-1.3-3.47-2.12-5.12
			c-0.35-0.72-0.2-1.57,0.36-2.13l4.21-4.22c2.21-2.21,2.21-5.8,0-8.01l-8.04-8.02c-2.21-2.21-5.8-2.21-8.01,0l-4.21,4.21
			c-0.56,0.57-1.42,0.71-2.13,0.36c-1.66-0.83-3.37-1.54-5.13-2.13c-0.75-0.26-1.25-0.97-1.25-1.76v-5.94
			c0-3.13-2.54-5.67-5.67-5.67H71.67c-3.13,0-5.67,2.54-5.67,5.67v5.94c0.01,0.79-0.49,1.5-1.24,1.76c-1.76,0.59-3.47,1.3-5.12,2.13
			c-0.72,0.35-1.58,0.21-2.13-0.36l-4.22-4.21c-2.22-2.21-5.8-2.21-8.01,0l-8.02,8.02c-2.21,2.21-2.21,5.8,0,8.02l6.2,6.21
			c0.75,0.73,1.95,0.71,2.67-0.04c0.71-0.73,0.71-1.89,0-2.63l-6.2-6.21c-0.74-0.74-0.74-1.93,0-2.67l8.02-8.02
			c0.74-0.74,1.93-0.74,2.67,0l4.22,4.21c1.71,1.72,4.33,2.15,6.49,1.07c1.5-0.75,3.04-1.39,4.63-1.93
			c2.29-0.78,3.83-2.93,3.82-5.35v-5.94c0-1.04,0.85-1.89,1.89-1.89h11.34c1.04,0,1.89,0.85,1.89,1.89v5.94
			c-0.01,2.42,1.53,4.57,3.82,5.35c1.59,0.53,3.14,1.18,4.63,1.93c2.17,1.08,4.78,0.65,6.49-1.07l4.22-4.21
			c0.74-0.74,1.93-0.74,2.67,0l8.02,8.02c0.74,0.74,0.74,1.93,0,2.67l-4.21,4.22c-1.72,1.71-2.15,4.33-1.07,6.49
			c0.75,1.5,1.39,3.04,1.93,4.63c0.78,2.29,2.93,3.83,5.35,3.82h5.94c1.04,0,1.89,0.85,1.89,1.89v11.34c0,1.04-0.85,1.89-1.89,1.89
			h-5.94c-2.42-0.01-4.57,1.53-5.35,3.82c-0.53,1.59-1.18,3.14-1.93,4.63c-1.08,2.17-0.65,4.78,1.07,6.49l4.21,4.22
			c0.74,0.74,0.74,1.93,0,2.67l-8.02,8.02c-0.74,0.74-1.93,0.74-2.67,0l-6.21-6.2c-0.73-0.75-1.92-0.77-2.67-0.04
			c-0.75,0.73-0.77,1.92-0.04,2.67c0.02,0.02,0.03,0.03,0.05,0.05l6.21,6.2c2.21,2.21,5.8,2.21,8.01,0l8.02-8.02
			c2.21-2.21,2.21-5.8,0-8.02l-4.21-4.22c-0.57-0.56-0.71-1.42-0.36-2.13c0.83-1.66,1.54-3.37,2.13-5.13
			c0.26-0.75,0.97-1.25,1.76-1.25h5.94c3.13,0,5.67-2.54,5.67-5.67V55.21C128.36,52.07,125.82,49.54,122.69,49.54z"/>
	</g>
</g>
<g>
	<g>
		<path class="st0" d="M94.71,43.5c-9.6-9.58-25.14-9.58-34.74,0c-0.72,0.75-0.7,1.95,0.05,2.67c0.73,0.71,1.89,0.71,2.63,0
			c8.06-8.17,21.22-8.26,29.4-0.2s8.26,21.22,0.2,29.4c-0.07,0.07-0.13,0.13-0.2,0.2c-0.75,0.73-0.77,1.92-0.05,2.67
			c0.73,0.75,1.92,0.77,2.67,0.05c0.02-0.02,0.03-0.03,0.05-0.05C104.29,68.65,104.29,53.1,94.71,43.5z"/>
	</g>
</g>
<path class="st1" d="M106.69,141.75H34.91c-19.32,0-34.98-15.66-34.98-34.98V34.99c0-19.32,15.66-34.98,34.98-34.98h71.78
	c19.32,0,34.98,15.66,34.98,34.98v71.78C141.67,126.09,126.01,141.75,106.69,141.75z"/>
<g>
	<path class="st0" d="M111.64,41.01h-1.03c-0.61-2.14-1.46-4.19-2.54-6.12l0.73-0.73c0.84-0.84,1.3-1.95,1.3-3.14
		c0-1.19-0.46-2.3-1.3-3.14L103.93,23c-0.84-0.84-1.95-1.31-3.15-1.31c-1.19,0-2.31,0.46-3.14,1.3l-0.73,0.73
		c-1.94-1.08-3.99-1.93-6.12-2.54v-1.03c0-2.45-1.99-4.44-4.44-4.44h-6.89c-2.45,0-4.44,1.99-4.44,4.44v1.03
		c-2.13,0.61-4.19,1.46-6.13,2.54L68.15,23c-0.84-0.84-1.95-1.31-3.15-1.31c-1.19,0-2.31,0.46-3.14,1.3l-4.87,4.87
		c-0.84,0.84-1.3,1.95-1.3,3.14c0,1.19,0.46,2.3,1.3,3.14l0.73,0.73c-1.08,1.94-1.93,3.99-2.54,6.12h-1.03
		c-2.45,0-4.44,1.99-4.44,4.44v6.9c0,2.45,1.99,4.44,4.44,4.44h1.03c0.6,2.13,1.46,4.18,2.54,6.12l-0.73,0.73
		c-0.84,0.84-1.3,1.95-1.3,3.14c0,1.19,0.46,2.3,1.3,3.14l4.87,4.87c0.84,0.84,1.95,1.31,3.15,1.31h0c1.19,0,2.31-0.46,3.14-1.3
		l0.73-0.73c1.95,1.09,4,1.94,6.13,2.54v1.03c0,2.45,1.99,4.44,4.44,4.44h6.89c2.45,0,4.44-1.99,4.44-4.44v-1.03
		c2.13-0.6,4.18-1.45,6.12-2.54l0.73,0.73c0.84,0.84,1.95,1.31,3.15,1.31c1.19,0,2.31-0.46,3.14-1.3l4.88-4.87
		c0.84-0.84,1.3-1.95,1.3-3.14c0-1.19-0.46-2.3-1.3-3.14l-0.73-0.73c1.08-1.94,1.93-3.99,2.54-6.12h1.03c2.45,0,4.44-1.99,4.44-4.44
		v-6.9C116.09,43.01,114.09,41.01,111.64,41.01L111.64,41.01z M86.82,77.65c0,0.26-0.22,0.48-0.48,0.48h-6.89
		c-0.26,0-0.48-0.22-0.48-0.48v-2.57v-12.5c0-0.83-0.52-1.57-1.29-1.86c-5.33-1.98-8.91-7.1-8.91-12.76c0-4.48,2.23-8.68,5.97-11.24
		c0.17-0.11,0.32-0.21,0.45-0.28c-0.01,0.26-0.03,0.5-0.04,0.63c-0.01,0.2-0.03,0.36-0.03,0.52v9.36c0,4.3,3.36,7.88,7.64,8.17
		c0.09,0.01,0.18,0.01,0.26,0c4.28-0.28,7.63-3.87,7.63-8.17v-9.36c0-0.16-0.01-0.31-0.03-0.51c-0.01-0.13-0.03-0.37-0.03-0.63
		c0.13,0.08,0.28,0.17,0.44,0.28c3.74,2.56,5.97,6.76,5.97,11.24c0,5.66-3.58,10.78-8.9,12.76c-0.78,0.29-1.29,1.03-1.29,1.86v12.5
		L86.82,77.65L86.82,77.65z M112.12,52.35c0,0.26-0.22,0.48-0.48,0.48h-2.57c-0.93,0-1.73,0.64-1.93,1.54
		c-0.63,2.77-1.72,5.4-3.23,7.8c-0.5,0.78-0.38,1.81,0.27,2.46l1.82,1.82c0.12,0.12,0.14,0.26,0.14,0.34c0,0.08-0.02,0.22-0.14,0.34
		l-4.88,4.88c-0.11,0.11-0.24,0.14-0.33,0.14c-0.09,0-0.22-0.02-0.34-0.14l-1.82-1.82c-0.66-0.66-1.68-0.77-2.46-0.27
		c-1.69,1.07-3.49,1.92-5.38,2.55V63.9c6.15-2.86,10.2-9.1,10.2-15.94c0-5.79-2.88-11.22-7.7-14.51c-0.74-0.5-2.98-2.04-4.95-0.91
		c-1.93,1.11-1.74,3.71-1.65,4.82c0.01,0.1,0.01,0.18,0.02,0.22v9.36c0,2.17-1.66,3.99-3.8,4.2c-2.14-0.21-3.81-2.03-3.81-4.2
		l0-9.34c0-0.06,0.01-0.14,0.02-0.24c0.08-1.11,0.28-3.71-1.65-4.82c-1.96-1.13-4.21,0.4-4.95,0.91c-4.82,3.29-7.7,8.72-7.7,14.51
		c0,6.84,4.05,13.08,10.2,15.94v8.57c-1.88-0.63-3.69-1.48-5.38-2.55c-0.33-0.21-0.69-0.31-1.06-0.31c-0.51,0-1.02,0.2-1.4,0.58
		l-1.82,1.83c-0.11,0.11-0.24,0.14-0.33,0.14s-0.22-0.02-0.34-0.14l-4.87-4.87c-0.12-0.12-0.14-0.26-0.14-0.34
		c0-0.08,0.02-0.22,0.14-0.34l1.82-1.82c0.66-0.66,0.77-1.68,0.27-2.46c-1.52-2.41-2.61-5.03-3.23-7.79
		c-0.2-0.91-1.01-1.55-1.93-1.55h-2.57c-0.26,0-0.48-0.22-0.48-0.48v-6.9c0-0.26,0.22-0.48,0.48-0.48h2.57
		c0.93,0,1.73-0.64,1.93-1.55c0.62-2.76,1.71-5.38,3.23-7.79c0.5-0.78,0.38-1.81-0.27-2.46l-1.82-1.82
		c-0.12-0.12-0.14-0.26-0.14-0.34s0.02-0.22,0.14-0.34l4.88-4.88c0.11-0.11,0.24-0.14,0.33-0.14s0.22,0.02,0.34,0.14l1.82,1.82
		c0.66,0.66,1.68,0.77,2.46,0.27c2.41-1.52,5.03-2.61,7.8-3.24c0.9-0.2,1.55-1.01,1.55-1.93v-2.57c0-0.26,0.22-0.48,0.48-0.48h6.89
		c0.26,0,0.48,0.22,0.48,0.48v2.57c0,0.93,0.64,1.73,1.55,1.93c2.77,0.63,5.39,1.71,7.79,3.24c0.78,0.5,1.81,0.38,2.46-0.27
		l1.83-1.83c0.11-0.11,0.24-0.14,0.33-0.14c0.09,0,0.22,0.02,0.34,0.14l4.88,4.87c0.12,0.12,0.14,0.26,0.14,0.34
		c0,0.08-0.02,0.22-0.14,0.34l-1.82,1.82c-0.66,0.66-0.77,1.68-0.27,2.46c1.52,2.4,2.6,5.02,3.23,7.8c0.2,0.9,1.01,1.54,1.93,1.54
		h2.57c0.26,0,0.48,0.22,0.48,0.48L112.12,52.35L112.12,52.35z"/>
	<path class="st0" d="M94.45,103.02c-0.77,0.77-0.77,2.03,0,2.8c0.39,0.39,0.89,0.58,1.4,0.58c0.51,0,1.01-0.19,1.4-0.58l0.01-0.01
		c0.77-0.77,0.77-2.03,0-2.8C96.48,102.24,95.23,102.25,94.45,103.02L94.45,103.02z"/>
	<path class="st0" d="M103.64,83.81L87.9,91.9c-1.33-1.38-3.2-2.24-5.27-2.24H71.84c-0.6,0-0.75-0.05-0.76-0.05
		c-0.09-0.05-0.36-0.31-0.59-0.51l-0.1-0.09c-8.73-8.21-16.1-7.69-24.48-4.39c-1.36,0.54-1.38,0.54-2.74,0.59l-2.44,0
		c-0.69-2.1-2.67-3.61-5-3.61H27.8c-2.9,0-5.26,2.36-5.26,5.27v20.81c0,2.9,2.36,5.26,5.26,5.26h7.93c2.33,0,4.3-1.52,5-3.61h4.46
		c0.39,0,0.39,0,0.85,0.13c0.17,0.05,0.37,0.1,0.63,0.17l20.52,5.49c0.9,0.24,1.73,0.48,2.54,0.72c2.63,0.76,4.84,1.4,7.14,1.4
		c2.6,0,5.33-0.82,8.91-3.2c0.02-0.01,0.03-0.02,0.05-0.04l3.92-2.79c0.89-0.64,1.1-1.87,0.46-2.77c-0.64-0.89-1.87-1.1-2.77-0.46
		l-3.89,2.77c-5.2,3.46-7.4,2.82-12.72,1.28c-0.82-0.24-1.67-0.48-2.61-0.74L47.7,105.8c-0.24-0.06-0.43-0.12-0.58-0.16
		c-0.75-0.21-1.03-0.28-1.93-0.28H41V89.17h2.14c0.03,0,0.06,0,0.09,0l0.11,0c1.66-0.07,2.13-0.12,4.03-0.87
		c7.36-2.91,13.04-3.25,20.31,3.59l0.1,0.09c1.24,1.17,1.96,1.64,4.06,1.64h10.79c1.27,0,2.37,0.7,2.95,1.74
		c0.01,0.01,0.01,0.02,0.02,0.03c0.26,0.48,0.4,1.02,0.4,1.6c0,1.85-1.51,3.36-3.37,3.36H65.15c-1.09,0-1.98,0.89-1.98,1.98
		c0,1.1,0.89,1.98,1.98,1.98h17.48c4.04,0,7.33-3.29,7.33-7.33c0-0.55-0.06-1.08-0.18-1.6l15.67-8.05c1.48-0.76,3.51-0.68,4.52,0.95
		c0.89,1.44,0.4,3.35-1.14,4.45l-6.87,4.9c-0.89,0.64-1.1,1.87-0.46,2.77c0.39,0.54,1,0.83,1.62,0.83c0.4,0,0.8-0.12,1.15-0.37
		l6.87-4.9c3.26-2.33,4.21-6.53,2.21-9.76C111.37,83.02,107.2,81.98,103.64,83.81L103.64,83.81z M37.03,107.67
		c0,0.7-0.6,1.29-1.3,1.29H27.8c-0.7,0-1.29-0.59-1.29-1.29V86.86c0-0.72,0.58-1.3,1.29-1.3h7.93c0.7,0,1.3,0.6,1.3,1.3V107.67z"/>
</g>
</svg>
