<svg xmlns="http://www.w3.org/2000/svg" viewBox="0 0 138.37 138.37">
    <defs>
        <style>.cls-1{fill:none;stroke:#fff;stroke-miterlimit:10;stroke-width:1.23px;}.cls-2{fill:#05eab6;}.cls-3{fill:#fff;}</style>
    </defs>
    <title>subisFoto</title>
    <g id="Capa_2" data-name="Capa 2">
        <g id="Capa_1-2" data-name="Capa 1">
            <circle class="cls-1" cx="69.18" cy="69.18" r="68.57" transform="translate(-0.7 0.71) rotate(-0.58)" />
            <path class="cls-2" d="M132.25,69.18A63.07,63.07,0,1,1,69.18,6.12a63.07,63.07,0,0,1,63.07,63.06" />
            <path class="cls-3" d="M65,53.91a4.89,4.89,0,1,1-4.89,4.89A4.89,4.89,0,0,1,65,53.91" />
            <path class="cls-3" d="M105.1,76.81a15,15,0,0,0-8.42-4V47.93a9.76,9.76,0,0,0-2.79-6.79,9.46,9.46,0,0,0-6.79-2.79H47.69a9.77,9.77,0,0,0-6.79,2.79,9.46,9.46,0,0,0-2.79,6.79V88.49a9.8,9.8,0,0,0,2.79,6.8,9.51,9.51,0,0,0,6.79,2.78H85.81A14.37,14.37,0,0,0,105.1,76.81M41.71,47.93a5.65,5.65,0,0,1,1.77-4.14A6,6,0,0,1,47.69,42H87.1a6,6,0,0,1,6,6V69.2L83,59.14a1.82,1.82,0,0,0-2.58,0L65.29,74.36,55,64a1.83,1.83,0,0,0-2.58,0L41.71,74.9Zm5.92,46.68v-.14a6,6,0,0,1-4.22-1.77,6.18,6.18,0,0,1-1.7-4.21V80.07l12-12.1L64,78.23a1.89,1.89,0,0,0,2.58,0L81.73,63l9.92,10-.61.21a5,5,0,0,0-.88.27c-.27.06-.55.2-.82.27a2,2,0,0,0-.54.27,6.14,6.14,0,0,0-.68.34l-1,.61c-.2.14-.34.2-.54.34s-.21.14-.34.2a8,8,0,0,0-1.63,1.43,14.34,14.34,0,0,0-4.22,10.19,15.23,15.23,0,0,0,.34,3c.07.27.14.48.21.75a20.32,20.32,0,0,0,.68,2V93a12.71,12.71,0,0,0,.88,1.63Zm54.82,0a10.75,10.75,0,0,1-15,.13c-.27-.27-.54-.61-.82-.88s-.4-.48-.61-.68A6.93,6.93,0,0,1,85.33,92c-.13-.27-.27-.47-.4-.74a5.06,5.06,0,0,1-.34-1.16c-.07-.27-.21-.61-.28-.88a11.75,11.75,0,0,1-.2-2.17,10.88,10.88,0,0,1,3.13-7.61,10.51,10.51,0,0,1,7.61-3.13,10.87,10.87,0,0,1,7.6,3.13,10.58,10.58,0,0,1,3.13,7.61,10.84,10.84,0,0,1-3.13,7.54" />
            <path class="cls-3" d="M96.14,79.73a2.47,2.47,0,0,0-.61-.41,2,2,0,0,0-.62-.14h-.13a1.87,1.87,0,0,0-.61.14,1.59,1.59,0,0,0-.62.41l-4.21,4.21a1.82,1.82,0,0,0,2.58,2.58L93,85.43v7.48a1.84,1.84,0,0,0,3.67,0V85.43l1.09,1.09a1.82,1.82,0,0,0,2.58-2.58Z" />
        </g>
    </g>
</svg>