<svg xmlns="http://www.w3.org/2000/svg" xmlns:xlink="http://www.w3.org/1999/xlink" viewBox="0 0 34 36.1">
    <defs>
        <linearGradient id="linear-gradient" x1="-313.95" y1="814.89" x2="-279.98" y2="814.89" gradientTransform="translate(313.9 -796.8)" gradientUnits="userSpaceOnUse">
            <stop offset="0" stop-color="#08d5f7" />
            <stop offset="0.27" stop-color="#07d0f4" />
            <stop offset="0.57" stop-color="#05c2eb" />
            <stop offset="0.89" stop-color="#02acdc" />
            <stop offset="1" stop-color="#00a2d6" />
        </linearGradient>
        <linearGradient id="linear-gradient-2" x1="-308.72" y1="802.32" x2="-303.96" y2="802.32" xlink:href="#linear-gradient" />
    </defs>
    <title>TusGlupsas</title>
    <g id="Capa_2" data-name="Capa 2">
        <g id="Layer_1" data-name="Layer 1">
            <g id="_G_copia" data-name=" G copia">
                <path d="M32.7,15.1H19.3A1.2,1.2,0,0,0,18,16.3v4.6a1.5,1.5,0,0,0,1.3,1.3h4.3a1.1,1.1,0,0,1,1.2,1.3v2c0,.8-.7,1.4-1.9,1.8a12.5,12.5,0,0,1-3.6.5c-5.5,0-9.4-4-9.4-9.6h0c0-5.3,3.8-9.5,8.8-9.5A12.4,12.4,0,0,1,26.1,11a1.9,1.9,0,0,0,1.9-.1L32,6a1.7,1.7,0,0,0-.2-1.8A20.9,20.9,0,0,0,18.7,0C7.9,0,0,7.9,0,18H0c0,10.6,8.1,18,18.9,18a24.1,24.1,0,0,0,12.4-3.4A8.1,8.1,0,0,0,34,28.6V16.3A1.6,1.6,0,0,0,32.7,15.1Z" fill-rule="evenodd" fill="url(#linear-gradient)" />
            </g>
            <g id="Forma_24_copia" data-name="Forma 24 copia">
                <path d="M7.6,7.1c-.1,0-.2.1-.2.3v3c0,.2.1.3.2.3s.2-.1.2-.3v-3C7.8,7.2,7.7,7.1,7.6,7.1Z" fill="#fff" fill-rule="evenodd" />
            </g>
            <g id="Forma_23_copia_3" data-name="Forma 23 copia 3">
                <circle cx="7.6" cy="5.5" r="2.4" fill="url(#linear-gradient-2)" />
            </g>
            <g id="Forma_23_copia_4" data-name="Forma 23 copia 4">
                <path d="M7.6,3.4A2.2,2.2,0,0,0,5.4,5.6,2.2,2.2,0,0,0,7.6,7.9,2.2,2.2,0,0,0,9.8,5.6,2.2,2.2,0,0,0,7.6,3.4Z" fill="#fff" fill-rule="evenodd" />
            </g>
        </g>
    </g>
</svg>